<?xml version="1.0" encoding="UTF-8" standalone="no"?>
<svg xmlns:ffdec="https://www.free-decompiler.com/flash" xmlns:xlink="http://www.w3.org/1999/xlink" ffdec:objectType="shape" height="100.0px" width="100.0px" xmlns="http://www.w3.org/2000/svg">
  <g transform="matrix(1.0, 0.0, 0.0, 1.0, 0.0, 0.0)">
    <path d="M81.1 45.8 L83.5 45.8 83.85 45.65 84.0 45.3 83.85 44.95 83.5 44.8 80.95 44.8 80.35 40.85 80.3 40.65 78.8 38.0 78.5 37.8 78.1 37.85 70.2 24.15 68.75 24.35 Q71.0 20.9 68.75 17.4 66.2 15.05 63.5 14.65 58.5 14.4 56.75 17.55 54.45 22.85 57.7 25.85 L53.0 26.45 Q48.5 27.0 43.95 32.3 29.55 45.0 25.55 58.55 L25.3 59.45 Q24.4 65.35 25.55 70.55 26.3 74.05 27.9 77.25 28.65 79.2 31.4 79.3 L31.4 84.25 42.2 84.25 33.45 82.0 34.9 79.55 51.8 79.55 49.8 83.8 63.95 83.8 54.95 81.75 53.25 81.75 57.7 78.7 Q63.6 69.3 62.65 58.85 63.75 57.75 65.0 57.35 66.75 56.75 68.6 57.7 L68.55 58.1 68.75 58.4 69.0 58.55 69.8 59.2 Q70.9 61.45 69.8 63.25 L68.7 64.05 68.5 64.4 68.6 64.75 68.2 65.0 68.6 65.25 68.6 65.3 68.5 65.65 68.75 66.0 69.8 66.65 70.1 66.7 Q73.8 66.4 74.45 64.95 L74.5 64.65 Q74.2 60.6 73.05 57.9 71.6 54.5 69.9 53.2 L69.25 52.8 69.0 52.75 68.85 52.8 68.55 53.05 Q66.7 52.35 64.1 53.6 L64.1 46.6 68.55 48.05 68.55 48.45 68.85 48.7 74.85 50.6 73.9 52.05 73.8 52.4 74.05 52.75 74.4 52.8 74.75 52.6 75.85 50.9 77.0 51.2 75.85 53.55 75.85 53.95 76.1 54.2 76.5 54.25 76.75 54.0 77.95 51.5 80.9 52.5 Q80.95 53.2 81.3 53.7 81.8 54.45 82.5 54.4 83.2 54.45 83.7 53.7 84.15 53.15 84.15 52.25 84.15 51.3 83.7 50.75 L83.7 50.8 Q83.2 50.0 82.5 50.05 L81.85 50.25 81.45 47.85 83.9 47.85 84.25 47.7 84.4 47.35 84.25 47.0 Q84.1 46.85 83.9 46.85 L81.3 46.85 81.1 45.8 M98.75 38.25 Q100.0 43.85 100.0 50.0 100.0 65.6 91.7 77.75 88.95 81.75 85.35 85.35 70.7 100.0 50.0 100.0 29.3 100.0 14.65 85.35 0.0 70.7 0.0 50.0 0.0 29.25 14.65 14.6 29.3 0.0 50.0 0.0 70.7 0.0 85.35 14.6 95.65 24.9 98.75 38.25 M65.75 31.25 Q67.3 31.25 68.3 32.3 L69.1 33.5 69.35 34.85 Q69.35 36.35 68.3 37.35 67.3 38.45 65.75 38.45 64.3 38.45 63.25 37.35 62.15 36.35 62.15 34.85 62.15 33.4 63.25 32.3 64.3 31.25 65.75 31.25" fill="#767676" fill-opacity="0.9764706" fill-rule="evenodd" stroke="none"/>
    <path d="M80.95 44.8 L80.45 44.8 80.15 44.95 80.0 45.3 80.15 45.65 80.5 45.8 81.1 45.8 81.3 46.85 80.85 46.85 80.8 46.85 80.5 47.0 Q80.35 47.15 80.35 47.35 L80.5 47.7 80.85 47.85 81.45 47.85 81.85 50.25 82.5 50.05 Q83.2 50.0 83.7 50.8 L83.7 50.75 Q84.15 51.3 84.15 52.25 84.15 53.15 83.7 53.7 83.2 54.45 82.5 54.4 81.8 54.45 81.3 53.7 80.95 53.2 80.9 52.5 L77.95 51.5 78.2 51.1 78.2 50.75 77.95 50.45 77.55 50.45 Q77.35 50.5 77.25 50.7 L77.0 51.2 75.85 50.9 76.05 50.6 76.1 50.45 76.1 50.2 75.9 49.9 75.5 49.8 75.2 50.05 75.15 50.15 74.85 50.6 68.85 48.7 68.55 48.45 68.55 48.05 68.8 47.75 69.15 47.75 75.4 49.7 76.1 48.7 76.4 48.45 76.8 48.55 77.0 48.85 76.95 49.25 76.4 50.05 77.4 50.3 77.8 49.5 78.05 49.2 78.45 49.2 78.7 49.45 78.75 49.85 78.4 50.6 81.0 51.45 81.0 51.4 80.45 47.85 79.95 47.85 79.6 47.7 79.45 47.35 Q79.45 47.15 79.6 47.0 79.75 46.85 79.95 46.85 L80.25 46.85 80.1 45.8 79.85 45.8 79.5 45.65 79.35 45.3 79.5 44.95 79.85 44.8 79.95 44.8 79.35 41.05 77.95 38.5 77.9 38.15 78.1 37.85 78.5 37.8 78.8 38.0 80.3 40.65 80.35 40.85 80.95 44.8 M68.55 53.05 L68.85 52.8 69.0 52.75 69.25 52.8 69.9 53.2 Q71.6 54.5 73.05 57.9 74.2 60.6 74.5 64.65 L74.45 64.95 Q73.8 66.4 70.1 66.7 L69.8 66.65 68.75 66.0 68.5 65.65 68.6 65.3 68.6 65.25 Q68.7 65.1 68.9 65.05 L69.3 65.15 70.2 65.7 Q72.85 65.45 73.5 64.6 73.2 60.85 72.15 58.3 70.85 55.25 69.35 54.05 L68.8 53.7 68.55 53.4 68.55 53.05 M68.6 64.75 L68.5 64.4 68.7 64.05 69.8 63.25 Q70.9 61.45 69.8 59.2 L69.0 58.55 68.75 58.4 68.55 58.1 68.6 57.7 Q68.7 57.5 68.9 57.5 L69.25 57.55 70.55 58.5 70.65 58.65 Q72.15 61.55 70.65 63.85 L70.5 63.95 69.3 64.85 68.95 64.95 68.6 64.75 M82.15 51.35 L82.0 51.65 81.9 52.1 81.9 52.15 81.9 52.25 Q81.9 52.8 82.15 53.15 L82.1 53.15 82.5 53.4 82.9 53.15 82.9 53.1 83.15 52.25 82.9 51.35 82.5 51.05 82.1 51.35 82.15 51.35" fill="#747474" fill-rule="evenodd" stroke="none"/>
    <path d="M68.55 48.05 L64.1 46.6 64.1 53.6 Q66.7 52.35 68.55 53.05 M68.6 65.25 L68.2 65.0 68.6 64.75 M68.6 57.7 Q66.75 56.75 65.0 57.35 63.75 57.75 62.65 58.85 63.6 69.3 57.7 78.7 L53.25 81.75 54.95 81.75 63.95 83.8 49.8 83.8 51.8 79.55 34.9 79.55 33.45 82.0 42.2 84.25 31.4 84.25 31.4 79.3 Q28.65 79.2 27.9 77.25 26.3 74.05 25.55 70.55 24.4 65.35 25.3 59.45 L25.55 58.55 Q29.55 45.0 43.95 32.3 48.5 27.0 53.0 26.45 L57.7 25.85 Q54.45 22.85 56.75 17.55 58.5 14.4 63.5 14.65 66.2 15.05 68.75 17.4 71.0 20.9 68.75 24.35 L70.2 24.15 78.1 37.85 M65.75 31.25 Q67.3 31.25 68.3 32.3 L69.1 33.5 69.35 34.85 Q69.35 36.35 68.3 37.35 67.3 38.45 65.75 38.45 64.3 38.45 63.25 37.35 62.15 36.35 62.15 34.85 62.15 33.4 63.25 32.3 64.3 31.25 65.75 31.25 M57.7 25.85 L68.75 24.35" fill="none" stroke="#747474" stroke-linecap="round" stroke-linejoin="round" stroke-width="1.0"/>
  </g>
</svg>
