<?xml version="1.0" encoding="UTF-8" standalone="no"?>
<svg xmlns:ffdec="https://www.free-decompiler.com/flash" xmlns:xlink="http://www.w3.org/1999/xlink" ffdec:objectType="shape" height="100.0px" width="100.0px" xmlns="http://www.w3.org/2000/svg">
  <g transform="matrix(1.0, 0.0, 0.0, 1.0, 0.0, 0.0)">
    <path d="M81.0 63.65 L81.05 63.9 81.25 64.05 81.5 64.0 81.65 63.8 Q82.0 61.95 85.05 59.85 L85.1 59.85 86.7 59.0 88.4 57.7 89.3 56.5 90.1 55.6 90.95 54.85 91.0 54.75 91.7 53.55 92.8 51.35 Q93.05 50.8 93.65 50.2 L93.65 50.15 Q94.2 49.4 93.95 48.05 L93.85 47.85 93.65 47.75 93.45 47.85 92.4 48.65 91.75 49.1 91.7 49.15 91.0 49.9 90.45 50.45 90.3 50.5 89.85 50.6 Q89.25 50.65 88.3 51.25 L88.3 51.2 86.7 52.0 85.2 52.4 85.2 52.45 Q84.2 52.65 82.5 53.65 L79.85 54.5 Q77.25 55.3 75.75 56.6 73.85 58.2 71.1 58.25 L68.85 58.1 68.55 58.15 64.9 57.95 Q63.05 57.45 61.3 55.4 L61.1 55.25 61.1 51.35 67.35 51.35 67.6 51.25 67.7 51.0 67.6 50.8 67.1 50.3 66.85 50.2 65.15 49.85 63.65 49.4 63.6 49.4 61.8 48.6 61.75 48.55 Q61.2 48.5 60.35 48.05 L59.5 47.6 59.55 47.55 62.45 46.25 64.75 45.25 64.95 45.15 Q69.2 43.25 69.9 42.3 L69.95 42.1 69.95 41.1 69.85 40.9 69.65 40.8 60.4 40.8 57.7 40.8 56.5 40.65 60.0 37.95 60.05 37.95 Q63.2 35.3 63.15 34.05 L62.95 33.4 62.9 33.35 62.75 33.15 62.6 33.05 62.45 33.0 62.3 33.1 61.3 33.25 59.65 33.5 57.35 33.85 56.65 33.85 57.0 33.35 57.45 32.3 57.75 31.7 58.1 31.2 59.1 30.0 59.15 30.0 60.35 28.45 60.4 28.25 60.3 28.05 60.05 27.95 59.25 27.95 59.1 28.0 59.0 28.1 56.5 28.7 54.0 29.15 53.9 29.1 53.2 29.1 53.3 28.9 53.65 28.35 53.75 28.15 53.75 23.25 53.65 23.05 53.45 22.95 53.1 22.95 52.85 23.05 51.05 23.6 49.4 23.95 49.35 24.0 47.3 24.85 46.35 25.05 46.25 25.1 44.15 26.05 41.75 27.05 Q37.1 29.3 36.3 29.95 35.75 30.3 35.45 31.45 L33.55 34.45 33.5 34.45 32.35 35.7 30.4 35.75 30.2 35.85 30.05 36.05 30.15 36.3 30.35 36.4 30.2 37.0 28.85 36.9 27.95 36.85 27.9 36.85 26.4 37.1 24.85 37.55 24.8 37.6 24.0 37.75 24.0 37.7 22.25 37.9 20.1 38.2 Q19.85 38.2 19.15 38.5 L18.2 38.7 18.0 38.8 17.9 39.0 17.9 40.95 17.9 41.05 Q18.55 43.1 18.55 44.5 L18.35 46.55 18.35 46.65 Q18.35 47.0 18.7 47.25 L19.15 47.35 19.9 47.45 20.5 47.35 24.5 46.15 24.55 46.1 25.2 45.6 25.25 45.6 25.75 45.35 26.2 45.25 26.85 45.15 26.9 45.15 24.15 48.4 24.15 48.35 21.2 51.45 21.15 51.55 21.15 51.6 21.2 51.8 21.3 51.95 23.45 54.2 Q25.45 56.45 25.9 56.35 L26.95 56.2 27.05 56.15 27.55 55.85 Q28.4 55.25 29.0 53.8 L32.05 51.1 32.05 51.05 35.75 48.25 36.2 48.8 36.1 48.95 36.1 49.15 36.65 52.8 Q36.95 55.4 37.4 56.2 L37.6 56.35 37.85 56.35 38.4 57.45 38.3 57.65 38.3 57.8 38.3 57.9 38.2 59.15 Q38.1 60.2 38.35 61.15 L38.8 64.2 Q39.05 66.3 39.5 66.95 39.8 67.35 39.95 68.45 L40.0 68.5 40.35 69.35 Q40.85 70.3 41.5 71.05 L43.55 73.25 43.6 73.25 44.9 74.15 44.8 74.25 44.7 74.45 44.8 74.7 45.0 74.8 45.25 74.7 45.7 74.3 45.8 74.1 45.95 74.1 45.85 75.25 45.6 76.25 45.6 76.2 Q44.0 77.5 42.95 77.6 L41.05 77.6 41.0 77.6 37.4 78.35 Q34.9 79.0 33.1 80.25 L33.0 80.4 32.95 80.55 32.95 81.65 33.05 81.9 33.3 82.0 53.1 82.0 53.3 81.95 54.95 81.4 Q56.2 81.0 56.15 79.95 L55.45 77.7 54.75 75.65 54.75 75.5 54.7 75.35 54.85 74.35 56.25 75.2 57.6 75.55 58.2 75.65 58.25 75.65 60.05 75.75 60.1 75.75 Q61.2 75.75 62.55 74.8 63.85 73.85 65.45 72.95 66.95 72.15 67.8 71.95 L71.6 70.0 74.65 68.15 76.45 67.2 77.8 65.85 77.85 65.85 Q79.55 63.95 80.45 64.0 L80.75 63.9 80.8 63.7 81.0 63.65 M85.35 85.35 Q70.7 100.0 50.0 100.0 29.3 100.0 14.65 85.35 0.0 70.7 0.0 50.0 0.0 29.25 14.65 14.6 29.3 0.0 50.0 0.0 70.7 0.0 85.35 14.6 100.0 29.25 100.0 50.0 100.0 70.7 85.35 85.35 M59.1 29.1 L59.35 28.6 59.5 28.6 59.1 29.1 M43.5 31.85 L44.25 30.95 Q44.2 31.65 44.7 32.75 L45.8 34.7 45.8 38.2 38.85 38.2 42.3 33.5 43.5 31.85 M37.0 56.5 L37.25 56.45 37.35 56.2 37.25 55.95 37.0 55.85 35.75 55.85 35.65 55.9 33.15 56.9 32.2 57.05 32.15 57.05 Q31.55 57.0 30.7 57.55 L29.45 58.3 28.7 58.9 28.6 59.05 28.6 59.25 28.7 59.4 29.8 59.8 29.85 59.8 30.6 60.25 30.6 60.3 30.7 61.95 30.8 62.15 31.0 62.25 31.25 62.2 31.35 61.95 Q31.45 61.35 32.45 61.15 L35.1 61.05 35.25 61.0 35.4 60.85 35.4 60.65 Q35.15 59.9 35.85 59.0 36.45 58.2 37.0 57.95 L37.2 57.8 37.15 57.55 37.0 57.35 37.0 56.5 M18.3 51.9 L18.7 51.45 16.65 49.45 16.4 49.55 15.15 49.55 5.7 50.7 4.75 50.85 4.65 51.0 5.9 51.3 5.95 51.35 Q6.85 51.6 6.85 52.7 6.9 53.25 6.55 53.6 L6.9 54.35 6.9 54.4 7.0 55.55 6.9 56.75 6.15 57.8 7.65 57.8 10.15 57.2 10.25 57.15 11.05 57.15 11.3 57.25 11.4 57.5 11.55 58.65 11.7 59.3 13.3 57.6 16.2 54.2 18.3 51.9" fill="#767676" fill-opacity="0.9764706" fill-rule="evenodd" stroke="none"/>
    <path d="M61.1 55.25 L61.3 55.4 Q63.05 57.45 64.9 57.95 L68.55 58.15 68.85 58.1 71.1 58.25 Q73.85 58.2 75.75 56.6 77.25 55.3 79.85 54.5 L82.5 53.65 Q84.2 52.65 85.2 52.45 L85.2 52.4 86.7 52.0 88.3 51.2 88.3 51.25 Q89.25 50.65 89.85 50.6 L90.3 50.5 90.45 50.45 91.0 49.9 91.7 49.15 91.75 49.1 92.4 48.65 93.45 47.85 93.65 47.75 93.85 47.85 93.95 48.05 Q94.2 49.4 93.65 50.15 L93.65 50.2 Q93.05 50.8 92.8 51.35 L91.7 53.55 91.0 54.75 90.95 54.85 90.1 55.6 89.3 56.5 88.4 57.7 86.7 59.0 85.1 59.85 85.05 59.85 Q82.0 61.95 81.65 63.8 L81.5 64.0 81.25 64.05 81.05 63.9 81.0 63.65 Q81.35 61.65 84.65 59.4 L86.4 58.4 86.35 58.45 87.85 57.3 88.8 56.1 89.65 55.15 90.5 54.35 91.1 53.3 92.2 51.05 93.1 49.8 93.4 48.75 92.75 49.2 92.75 49.15 92.0 49.7 91.6 50.15 91.55 50.25 90.55 51.15 90.45 51.15 89.95 51.25 89.9 51.25 Q89.45 51.3 88.6 51.8 L87.0 52.6 85.35 53.05 Q84.4 53.25 82.75 54.2 L82.7 54.25 80.1 55.1 80.05 55.1 Q77.6 55.9 76.2 57.1 74.1 58.85 71.1 58.9 L71.05 58.9 69.05 58.75 68.9 58.8 68.8 58.9 68.55 58.9 68.45 58.8 64.75 58.55 Q62.7 58.0 60.85 55.8 L60.75 55.55 60.85 55.35 61.1 55.25 M80.8 63.7 L80.75 63.9 80.45 64.0 Q79.55 63.95 77.85 65.85 L77.8 65.85 76.45 67.2 74.65 68.15 71.6 70.0 67.8 71.95 Q66.95 72.15 65.45 72.95 63.85 73.85 62.55 74.8 61.2 75.75 60.1 75.75 L60.05 75.75 58.25 75.65 58.2 75.65 57.6 75.55 56.25 75.2 54.85 74.35 54.7 75.35 54.75 75.5 54.75 75.65 55.45 77.7 56.15 79.95 Q56.2 81.0 54.95 81.4 L53.3 81.95 53.1 82.0 33.3 82.0 33.05 81.9 32.95 81.65 32.95 80.55 33.0 80.4 33.1 80.25 Q34.9 79.0 37.4 78.35 L41.0 77.6 41.05 77.6 42.95 77.6 Q44.0 77.5 45.6 76.2 L45.6 76.25 45.85 75.25 45.95 74.1 46.0 73.9 46.2 73.7 46.45 73.8 46.6 74.0 46.65 74.55 46.5 75.35 46.0 76.75 Q44.2 78.15 43.0 78.25 L42.95 78.25 41.15 78.25 37.6 79.0 Q35.25 79.55 33.6 80.7 L33.6 81.35 53.0 81.35 Q53.4 81.1 54.75 80.75 55.5 80.55 55.5 79.95 L54.85 77.9 54.85 77.95 54.2 75.9 54.15 75.85 54.1 75.95 53.85 76.0 52.45 75.75 52.25 75.55 52.25 75.3 52.4 75.1 52.65 75.1 53.9 75.35 54.05 75.4 54.05 75.3 54.25 73.7 54.3 73.75 54.25 73.5 54.4 73.3 54.65 73.25 54.85 73.35 55.25 73.8 56.45 74.55 57.7 74.9 58.35 75.0 59.9 75.1 60.05 75.1 Q61.0 75.1 62.15 74.25 63.5 73.25 65.15 72.4 66.7 71.6 67.6 71.3 L71.25 69.45 74.35 67.6 76.1 66.65 77.35 65.4 Q79.35 63.15 80.55 63.35 L80.75 63.45 80.8 63.7 M45.8 74.1 L45.7 74.3 45.25 74.7 45.0 74.8 44.8 74.7 44.7 74.45 44.8 74.25 44.9 74.15 43.6 73.25 43.55 73.25 41.5 71.05 Q40.85 70.3 40.35 69.35 L40.0 68.5 39.95 68.45 Q39.8 67.35 39.5 66.95 39.05 66.3 38.8 64.2 L38.35 61.15 Q38.1 60.2 38.2 59.15 L38.3 57.9 38.3 57.8 38.3 57.65 38.4 57.45 38.65 57.35 38.85 57.45 38.95 57.65 38.85 59.2 Q38.75 60.15 38.95 61.0 L39.4 64.1 Q39.7 66.0 40.05 66.6 40.4 67.05 40.6 68.3 L40.95 69.1 42.0 70.6 42.0 70.55 44.0 72.8 45.6 73.75 45.75 73.9 45.8 74.1 M37.85 56.35 L37.6 56.35 37.4 56.2 Q36.95 55.4 36.65 52.8 L36.1 49.15 36.1 48.95 36.2 48.8 36.3 48.75 36.55 48.75 36.7 48.95 37.3 52.75 Q37.6 55.15 37.95 55.9 L38.0 56.15 37.85 56.35 M35.75 48.25 L32.05 51.05 32.05 51.1 29.0 53.8 Q28.4 55.25 27.55 55.85 L27.05 56.15 26.95 56.2 25.9 56.35 Q25.45 56.45 23.45 54.2 L21.3 51.95 21.2 51.8 21.15 51.6 21.15 51.55 21.2 51.45 24.15 48.35 24.15 48.4 26.9 45.15 26.85 45.15 26.2 45.25 25.75 45.35 25.25 45.6 25.2 45.6 24.55 46.1 24.5 46.15 20.5 47.35 19.9 47.45 19.15 47.35 18.7 47.25 Q18.35 47.0 18.35 46.65 L18.35 46.55 18.55 44.5 Q18.55 43.1 17.9 41.05 L17.9 40.95 17.9 39.0 18.0 38.8 18.2 38.7 19.15 38.5 Q19.85 38.2 20.1 38.2 L22.25 37.9 24.0 37.7 24.0 37.75 24.8 37.6 24.85 37.55 26.4 37.1 27.9 36.85 27.95 36.85 28.85 36.9 30.2 37.0 30.35 37.2 30.4 37.4 30.25 37.6 30.0 37.65 28.8 37.55 27.9 37.5 26.6 37.7 24.85 38.2 24.15 38.35 24.1 38.35 22.3 38.55 20.25 38.85 20.2 38.85 Q20.0 38.85 19.35 39.15 L18.55 39.35 18.55 40.9 Q19.2 43.05 19.2 44.5 L19.2 44.65 19.0 46.6 19.3 46.75 19.9 46.8 20.35 46.75 24.25 45.5 24.8 45.15 24.8 45.1 25.55 44.7 25.6 44.7 26.2 44.6 26.65 44.55 26.8 44.5 27.6 44.5 27.85 44.6 27.95 44.85 27.85 45.05 24.65 48.8 21.95 51.65 23.95 53.75 25.9 55.7 26.85 55.55 Q27.8 55.05 28.45 53.45 L28.55 53.4 31.6 50.6 31.65 50.6 Q32.3 49.9 35.35 47.75 L35.9 47.35 36.1 47.3 36.35 47.45 36.35 47.65 36.25 47.9 35.8 48.2 35.75 48.2 35.75 48.25 M30.35 36.4 L30.15 36.3 30.05 36.05 30.2 35.85 30.4 35.75 32.35 35.7 33.5 34.45 33.55 34.45 35.45 31.45 Q35.75 30.3 36.3 29.95 37.1 29.3 41.75 27.05 L44.15 26.05 46.25 25.1 46.35 25.05 47.3 24.85 49.35 24.0 49.4 23.95 51.05 23.6 52.85 23.05 53.1 22.95 53.45 22.95 53.65 23.05 53.75 23.25 53.75 28.15 53.65 28.35 53.3 28.9 53.2 29.1 53.9 29.1 54.0 29.15 56.5 28.7 59.0 28.1 59.1 28.0 59.25 27.95 60.05 27.95 60.3 28.05 60.4 28.25 60.35 28.45 59.15 30.0 59.1 30.0 58.1 31.2 57.75 31.7 57.45 32.3 57.0 33.35 56.65 33.85 57.35 33.85 59.65 33.5 61.3 33.25 62.3 33.1 62.45 33.0 62.6 33.05 62.75 33.15 62.9 33.35 62.95 33.4 63.15 34.05 Q63.2 35.3 60.05 37.95 L60.0 37.95 56.5 40.65 57.7 40.8 60.4 40.8 69.65 40.8 69.85 40.9 69.95 41.1 69.95 42.1 69.9 42.3 Q69.2 43.25 64.95 45.15 L64.75 45.25 62.45 46.25 59.55 47.55 59.5 47.6 60.35 48.05 Q61.2 48.5 61.75 48.55 L61.8 48.6 63.6 49.4 63.65 49.4 65.15 49.85 66.85 50.2 67.1 50.3 67.6 50.8 67.7 51.0 67.6 51.25 67.35 51.35 61.1 51.35 50.95 51.35 50.75 51.25 50.65 51.0 50.75 50.8 50.95 50.7 65.95 50.7 65.0 50.45 63.35 50.0 61.65 49.2 60.05 48.65 59.0 48.1 58.6 48.1 56.5 49.2 56.25 49.2 56.05 49.05 56.05 48.8 Q56.05 48.65 56.2 48.6 L57.15 48.1 56.65 48.1 56.45 48.0 56.35 47.75 56.45 47.55 56.65 47.45 58.45 47.45 59.3 47.0 Q59.95 46.65 62.2 45.65 L64.5 44.7 64.7 44.6 Q68.5 42.85 69.3 42.0 L69.3 41.45 60.4 41.45 57.7 41.45 55.7 41.1 55.55 40.95 55.5 40.75 55.6 40.55 Q56.25 39.95 59.6 37.45 L59.6 37.4 Q62.45 35.1 62.5 34.05 L62.4 33.75 61.35 33.9 59.85 34.15 57.35 34.5 56.0 34.45 55.8 34.35 55.7 34.15 55.8 33.9 56.45 33.0 56.4 33.0 56.85 32.1 57.6 30.8 57.6 30.85 Q58.2 29.9 58.75 29.5 L59.1 29.1 59.5 28.6 59.35 28.6 56.65 29.35 53.85 29.75 52.75 29.75 52.55 29.7 52.45 29.55 52.45 29.35 52.75 28.55 52.75 28.5 53.1 28.05 53.1 23.7 51.2 24.25 49.7 24.55 47.45 25.45 47.4 25.45 46.55 25.7 44.35 26.65 42.55 27.4 42.05 27.6 41.75 27.8 Q37.45 29.85 36.65 30.45 36.3 30.75 36.05 31.65 L36.0 31.7 34.05 34.8 34.05 34.85 32.7 36.25 30.35 36.4 M44.85 30.3 L44.95 30.5 44.95 30.7 Q44.7 31.3 45.3 32.5 L46.4 34.45 46.45 34.6 46.45 38.5 46.35 38.75 46.1 38.85 35.75 38.85 35.5 38.75 35.4 38.5 35.5 38.3 35.75 38.2 38.1 38.2 41.8 33.15 42.95 31.5 43.95 30.35 44.15 30.25 44.65 30.25 44.85 30.3 M43.5 31.85 L42.3 33.5 38.85 38.2 45.8 38.2 45.8 34.7 44.7 32.75 Q44.2 31.65 44.25 30.95 L43.5 31.85 M37.0 56.5 L35.8 56.5 33.45 57.45 33.4 57.45 32.15 57.7 Q31.65 57.7 31.05 58.1 L31.0 58.1 29.55 59.0 Q29.7 59.1 30.0 59.2 30.85 59.4 31.15 59.95 L31.3 60.85 32.3 60.5 34.7 60.4 Q34.6 59.55 35.35 58.65 36.05 57.65 36.75 57.35 L37.0 57.35 37.15 57.55 37.2 57.8 37.0 57.95 Q36.45 58.2 35.85 59.0 35.15 59.9 35.4 60.65 L35.4 60.85 35.25 61.0 35.1 61.05 32.45 61.15 Q31.45 61.35 31.35 61.95 L31.25 62.2 31.0 62.25 30.8 62.15 30.7 61.95 30.6 60.3 30.6 60.25 29.85 59.8 29.8 59.8 28.7 59.4 28.6 59.25 28.6 59.05 28.7 58.9 29.45 58.3 30.7 57.55 Q31.55 57.0 32.15 57.05 L32.2 57.05 33.15 56.9 35.65 55.9 35.75 55.85 37.0 55.85 37.25 55.95 37.35 56.2 37.25 56.45 37.0 56.5" fill="#747474" fill-rule="evenodd" stroke="none"/>
  </g>
</svg>
