<?xml version="1.0" encoding="UTF-8" standalone="no"?>
<svg xmlns:ffdec="https://www.free-decompiler.com/flash" xmlns:xlink="http://www.w3.org/1999/xlink" ffdec:objectType="shape" height="100.0px" width="100.0px" xmlns="http://www.w3.org/2000/svg">
  <g transform="matrix(1.0, 0.0, 0.0, 1.0, 0.0, 0.0)">
    <path d="M84.45 45.9 Q85.2 45.15 85.2 44.05 85.2 42.95 84.45 42.2 83.7 41.45 82.6 41.45 81.5 41.45 80.75 42.2 L80.65 42.35 80.0 41.45 67.9 35.1 56.45 38.25 25.95 38.25 16.25 48.1 20.35 60.05 18.45 66.4 21.35 70.55 30.4 70.55 26.25 66.1 31.5 58.0 59.5 58.6 61.25 63.85 59.15 68.0 60.6 71.5 69.35 71.5 66.15 66.55 69.35 62.25 73.8 64.65 73.8 68.45 77.45 68.45 79.2 64.8 74.75 58.15 83.35 58.6 88.75 53.5 83.6 46.45 84.45 45.9 M85.35 85.35 Q70.7 100.0 50.0 100.0 29.3 100.0 14.65 85.35 0.0 70.7 0.0 50.0 0.0 29.25 14.65 14.6 29.3 0.0 50.0 0.0 70.7 0.0 85.35 14.6 100.0 29.25 100.0 50.0 100.0 70.7 85.35 85.35" fill="#767676" fill-opacity="0.9764706" fill-rule="evenodd" stroke="none"/>
  </g>
</svg>
