<?xml version="1.0" encoding="UTF-8" standalone="no"?>
<svg xmlns:ffdec="https://www.free-decompiler.com/flash" xmlns:xlink="http://www.w3.org/1999/xlink" ffdec:objectType="shape" height="100.0px" width="100.0px" xmlns="http://www.w3.org/2000/svg">
  <g transform="matrix(1.0, 0.0, 0.0, 1.0, 0.0, 0.0)">
    <path d="M85.35 85.35 Q70.7 100.0 50.0 100.0 29.3 100.0 14.65 85.35 0.0 70.7 0.0 50.0 0.0 29.25 14.65 14.6 29.3 0.0 50.0 0.0 70.7 0.0 85.35 14.6 100.0 29.25 100.0 50.0 100.0 70.7 85.35 85.35 M73.05 21.1 L54.1 21.1 49.7 44.2 Q48.05 45.1 46.65 46.3 39.55 51.85 39.55 59.75 39.55 67.6 46.65 73.15 53.7 78.75 63.65 78.75 73.6 78.75 80.65 73.15 87.75 67.6 87.75 59.75 87.75 51.85 80.65 46.3 79.0 44.95 77.15 43.95 L73.05 21.1 M9.75 38.9 Q9.95 52.55 13.3 66.75 17.65 72.3 23.45 75.65 L23.85 75.65 Q29.75 72.65 33.95 66.75 37.35 52.55 37.55 38.9 L9.75 38.9" fill="#767676" fill-opacity="0.9764706" fill-rule="evenodd" stroke="none"/>
    <path d="M62.4 53.5 Q60.35 66.2 56.2 66.35 51.95 66.35 45.35 53.5 L62.4 53.5 M71.95 66.35 Q67.8 66.2 65.75 53.5 L82.8 53.5 Q76.2 66.35 71.95 66.35" fill="#747474" fill-opacity="0.9764706" fill-rule="evenodd" stroke="none"/>
  </g>
</svg>
