<?xml version="1.0" encoding="UTF-8" standalone="no"?>
<svg xmlns:ffdec="https://www.free-decompiler.com/flash" xmlns:xlink="http://www.w3.org/1999/xlink" ffdec:objectType="shape" height="100.0px" width="100.0px" xmlns="http://www.w3.org/2000/svg">
  <g transform="matrix(1.0, 0.0, 0.0, 1.0, 0.0, 0.0)">
    <path d="M92.45 35.25 Q90.9 33.7 88.7 33.7 86.5 33.7 84.9 35.25 83.4 36.85 83.4 39.05 83.4 41.25 84.9 42.8 86.5 44.35 88.7 44.35 90.9 44.35 92.45 42.8 94.0 41.25 94.0 39.05 94.0 36.85 92.45 35.25 M85.35 85.35 Q70.7 100.0 50.0 100.0 29.3 100.0 14.65 85.35 0.0 70.7 0.0 50.0 0.0 29.25 14.65 14.6 29.3 0.0 50.0 0.0 70.7 0.0 85.35 14.6 100.0 29.25 100.0 50.0 100.0 70.7 85.35 85.35 M38.0 65.65 L19.0 50.5 32.4 83.0 73.3 83.0 84.5 47.15 65.45 63.4 63.2 41.55 52.6 65.1 40.8 42.7 38.0 65.65 M32.3 26.3 Q30.75 27.85 30.75 30.1 30.75 32.3 32.3 33.85 33.85 35.4 36.05 35.4 38.25 35.4 39.8 33.85 41.4 32.3 41.4 30.1 41.4 27.85 39.8 26.3 38.25 24.75 36.05 24.75 33.85 24.75 32.3 26.3 M15.35 46.05 Q17.55 46.05 19.1 44.45 20.65 42.95 20.65 40.7 20.65 38.5 19.1 36.95 17.55 35.4 15.35 35.4 13.15 35.4 11.55 36.95 10.0 38.5 10.0 40.7 10.0 42.95 11.55 44.45 13.15 46.05 15.35 46.05 M59.15 26.3 Q57.6 27.85 57.6 30.1 57.6 32.3 59.15 33.85 60.75 35.4 62.95 35.4 65.15 35.4 66.7 33.85 68.25 32.3 68.25 30.1 68.25 27.85 66.7 26.3 65.15 24.75 62.95 24.75 60.75 24.75 59.15 26.3" fill="#767676" fill-opacity="0.9764706" fill-rule="evenodd" stroke="none"/>
  </g>
</svg>
