<?xml version="1.0" encoding="UTF-8" standalone="no"?>
<svg xmlns:ffdec="https://www.free-decompiler.com/flash" xmlns:xlink="http://www.w3.org/1999/xlink" ffdec:objectType="shape" height="100.0px" width="100.0px" xmlns="http://www.w3.org/2000/svg">
  <g transform="matrix(1.0, 0.0, 0.0, 1.0, 0.0, 0.0)">
    <path d="M85.35 85.35 Q70.7 100.0 50.0 100.0 29.3 100.0 14.65 85.35 0.0 70.7 0.0 50.0 0.0 29.25 14.65 14.6 29.3 0.0 50.0 0.0 70.7 0.0 85.35 14.6 100.0 29.25 100.0 50.0 100.0 70.7 85.35 85.35 M41.0 23.15 L41.7 23.4 Q42.1 23.4 42.35 23.1 44.1 21.35 43.0 17.25 L42.95 17.15 Q41.2 13.0 34.1 12.0 L33.85 12.0 33.45 12.05 Q28.55 12.45 24.9 18.95 L24.8 19.35 24.85 19.75 27.65 28.55 27.9 29.0 28.45 29.2 38.0 30.55 69.9 85.75 70.5 86.25 71.25 86.15 71.7 85.55 71.6 84.75 39.45 29.15 39.15 28.8 38.75 28.65 29.35 27.3 26.9 19.55 Q29.9 14.45 33.85 14.0 39.5 14.8 41.05 17.9 41.8 20.55 40.9 21.75 40.65 22.05 40.65 22.5 40.65 22.9 41.0 23.15" fill="#767676" fill-opacity="0.9764706" fill-rule="evenodd" stroke="none"/>
  </g>
</svg>
