<?xml version="1.0" encoding="UTF-8" standalone="no"?>
<svg xmlns:ffdec="https://www.free-decompiler.com/flash" xmlns:xlink="http://www.w3.org/1999/xlink" ffdec:objectType="shape" height="17.0px" width="17.0px" xmlns="http://www.w3.org/2000/svg">
  <g transform="matrix(1.0, 0.0, 0.0, 1.0, 10.5, 12.5)">
    <path d="M4.0 -4.0 Q4.0 -1.5 2.25 0.25 0.5 2.0 -2.0 2.0 -4.5 2.0 -6.25 0.25 -8.0 -1.5 -8.0 -4.0 -8.0 -6.45 -6.25 -8.25 -4.5 -10.0 -2.0 -10.0 0.5 -10.0 2.25 -8.25 4.0 -6.45 4.0 -4.0" fill="#ffffff" fill-opacity="0.96862745" fill-rule="evenodd" stroke="none"/>
    <path d="M4.0 -4.0 Q4.0 -1.5 2.25 0.25 0.5 2.0 -2.0 2.0 -4.5 2.0 -6.25 0.25 -8.0 -1.5 -8.0 -4.0 -8.0 -6.45 -6.25 -8.25 -4.5 -10.0 -2.0 -10.0 0.5 -10.0 2.25 -8.25 4.0 -6.45 4.0 -4.0 Z" fill="none" stroke="#666666" stroke-linecap="round" stroke-linejoin="round" stroke-opacity="0.85882354" stroke-width="5.0"/>
  </g>
</svg>
