<?xml version="1.0" encoding="UTF-8" standalone="no"?>
<svg xmlns:ffdec="https://www.free-decompiler.com/flash" xmlns:xlink="http://www.w3.org/1999/xlink" ffdec:objectType="shape" height="122.6px" width="134.5px" xmlns="http://www.w3.org/2000/svg">
  <g transform="matrix(1.0, 0.0, 0.0, 1.0, -2.75, -415.05)">
    <path d="M112.9 467.85 Q101.65 471.35 92.3 483.65 87.35 494.6 87.5 505.6 90.7 506.3 93.3 507.9 96.1 509.65 97.2 511.8 97.95 513.25 97.95 514.85 97.95 518.2 94.85 520.7 98.85 522.5 98.8 537.35 L98.8 537.65 98.7 537.35 Q95.95 528.45 88.9 523.75 85.8 524.7 82.05 524.7 L76.0 524.0 Q69.2 528.65 66.55 537.35 L66.45 537.65 66.45 537.35 Q66.4 523.75 69.75 521.1 66.15 518.45 66.15 514.85 66.15 513.25 66.9 511.8 68.0 509.65 70.8 507.9 75.2 505.15 81.3 505.0 81.35 496.45 76.85 492.35 68.2 485.4 68.7 477.45 70.45 469.55 77.15 464.55 87.4 455.75 86.4 442.9 84.55 429.5 70.95 425.15 54.0 424.5 43.7 431.65 14.05 450.95 10.25 470.7 6.25 484.55 18.95 493.5 31.6 497.25 39.75 487.6 42.95 480.95 41.7 469.05 40.35 462.05 50.45 472.4 57.15 484.25 53.8 492.1 47.45 505.5 31.05 505.85 14.05 504.0 5.15 489.85 -0.15 479.2 6.3 466.2 17.45 444.9 40.15 428.85 57.6 416.5 74.6 416.45 104.55 412.1 123.8 421.5 141.45 432.65 135.95 447.5 130.45 462.3 112.9 467.85" fill="url(#gradient0)" fill-rule="evenodd" stroke="none"/>
  </g>
  <defs>
    <linearGradient gradientTransform="matrix(0.0, 0.1287, -0.0748, 0.0, 83.25, 414.4)" gradientUnits="userSpaceOnUse" id="gradient0" spreadMethod="pad" x1="-819.2" x2="819.2">
      <stop offset="0.0" stop-color="#000000"/>
      <stop offset="1.0" stop-color="#ffffff" stop-opacity="0.0"/>
    </linearGradient>
  </defs>
</svg>
