<?xml version="1.0" encoding="UTF-8" standalone="no"?>
<svg xmlns:ffdec="https://www.free-decompiler.com/flash" xmlns:xlink="http://www.w3.org/1999/xlink" ffdec:objectType="shape" height="435.95px" width="478.4px" xmlns="http://www.w3.org/2000/svg">
  <g transform="matrix(1.0, 0.0, 0.0, 1.0, 481.5, 123.05)">
    <path d="M-255.0 -123.0 L-254.7 -122.0 Q-245.15 -91.0 -221.1 -74.45 -211.15 -77.0 -199.5 -77.0 -186.2 -77.0 -175.1 -73.7 -150.1 -90.3 -140.3 -122.05 L-140.0 -123.05 -140.0 -122.05 Q-139.75 -69.15 -154.05 -62.85 -143.0 -53.85 -143.0 -42.0 -143.0 -27.5 -159.55 -17.25 -168.8 -11.5 -180.2 -9.0 -180.6 30.05 -163.0 69.0 -129.8 112.7 -89.75 125.2 -27.35 144.85 -7.75 197.6 11.8 250.3 -51.0 290.0 -119.45 323.5 -226.0 308.0 -286.45 307.8 -348.5 263.95 -429.35 206.85 -468.95 131.0 -491.85 84.8 -472.95 47.0 -441.4 -3.45 -380.95 -10.0 -322.6 -8.7 -299.95 39.0 -288.05 66.8 -311.95 109.0 -347.75 145.75 -342.95 121.0 -338.55 78.55 -349.95 55.0 -379.0 20.65 -423.95 34.0 -469.1 65.75 -454.95 115.0 -441.4 185.3 -335.95 254.0 -299.3 279.3 -239.0 277.0 -190.65 261.55 -184.0 214.0 -180.55 168.25 -217.0 137.0 -240.7 119.2 -247.0 91.0 -248.7 62.7 -218.0 38.0 -202.0 23.5 -202.1 -7.0 -223.85 -7.55 -239.45 -17.25 -256.0 -27.5 -256.0 -42.0 -256.0 -54.75 -243.2 -64.2 -255.25 -73.55 -255.0 -122.0 L-255.0 -123.0" fill="#747474" fill-opacity="0.9764706" fill-rule="evenodd" stroke="none"/>
  </g>
</svg>
