<?xml version="1.0" encoding="UTF-8" standalone="no"?>
<svg xmlns:ffdec="https://www.free-decompiler.com/flash" xmlns:xlink="http://www.w3.org/1999/xlink" ffdec:objectType="shape" height="100.0px" width="100.0px" xmlns="http://www.w3.org/2000/svg">
  <g transform="matrix(1.0, 0.0, 0.0, 1.0, 0.0, 0.0)">
    <path d="M85.85 27.85 Q59.35 18.3 43.35 24.85 L43.25 24.9 41.05 21.5 36.85 24.2 35.05 21.5 36.1 20.8 36.35 20.6 36.3 20.3 36.2 20.1 28.9 12.0 28.6 11.85 28.3 11.9 28.05 12.2 28.05 12.55 32.45 22.55 32.65 22.7 32.95 22.8 33.15 22.7 34.2 22.05 36.0 24.75 31.8 27.45 33.95 30.8 33.9 30.85 Q21.05 42.65 19.1 71.1 L19.2 71.45 19.55 71.65 19.85 71.55 48.4 53.05 71.6 83.35 75.55 80.75 57.55 47.1 85.9 28.7 86.15 28.5 86.15 28.1 85.85 27.85 M85.35 85.35 Q70.7 100.0 50.0 100.0 29.3 100.0 14.65 85.35 0.0 70.7 0.0 50.0 0.0 29.25 14.65 14.6 29.3 0.0 50.0 0.0 70.7 0.0 85.35 14.6 100.0 29.25 100.0 50.0 100.0 70.7 85.35 85.35 M57.1 46.25 L43.8 25.8 Q59.2 19.55 84.55 28.4 L57.1 46.25 M34.5 31.65 L47.85 52.2 20.15 70.15 Q22.2 43.1 34.5 31.65" fill="#767676" fill-opacity="0.9764706" fill-rule="evenodd" stroke="none"/>
  </g>
</svg>
