<?xml version="1.0" encoding="UTF-8" standalone="no"?>
<svg xmlns:ffdec="https://www.free-decompiler.com/flash" xmlns:xlink="http://www.w3.org/1999/xlink" ffdec:objectType="shape" height="100.0px" width="100.0px" xmlns="http://www.w3.org/2000/svg">
  <g transform="matrix(1.0, 0.0, 0.0, 1.0, 0.0, 0.0)">
    <path d="M85.35 85.35 Q70.7 100.0 50.0 100.0 29.3 100.0 14.65 85.35 0.0 70.7 0.0 50.0 0.0 29.25 14.65 14.6 29.3 0.0 50.0 0.0 70.7 0.0 85.35 14.6 100.0 29.25 100.0 50.0 100.0 70.7 85.35 85.35 M68.15 33.9 Q69.15 34.55 69.25 35.55 69.35 36.6 68.5 38.0 66.55 41.1 60.4 45.65 54.0 50.4 52.35 54.4 50.6 58.6 53.9 61.95 56.85 64.95 57.35 66.85 57.6 67.75 57.2 68.4 L56.9 68.25 Q56.35 68.05 55.85 68.25 L55.0 67.15 Q53.55 65.7 51.5 65.7 49.45 65.7 48.0 67.15 47.4 67.75 47.05 68.45 L46.0 68.55 45.35 69.05 Q42.4 68.05 39.95 65.2 36.85 61.6 35.3 50.45 33.7 39.5 39.05 36.4 44.55 33.25 54.05 32.0 63.35 30.7 68.15 33.9 M53.9 31.0 Q44.15 32.25 38.55 35.55 32.6 38.8 34.3 50.6 35.95 62.2 39.2 65.85 41.85 68.95 45.1 70.05 L45.25 70.5 Q45.45 71.05 46.05 71.3 L46.65 71.5 Q46.85 73.0 48.0 74.15 49.45 75.6 51.5 75.6 53.55 75.6 55.0 74.15 56.25 72.9 56.45 71.3 L57.0 71.05 57.75 70.2 57.8 69.25 Q58.75 68.2 58.3 66.6 57.75 64.45 54.6 61.25 51.8 58.35 53.3 54.8 54.85 51.0 61.0 46.45 67.4 41.7 69.35 38.5 70.4 36.75 70.25 35.45 70.1 34.0 68.7 33.05 63.65 29.6 53.9 31.0" fill="#767676" fill-opacity="0.9764706" fill-rule="evenodd" stroke="none"/>
  </g>
</svg>
