<?xml version="1.0" encoding="UTF-8" standalone="no"?>
<svg xmlns:ffdec="https://www.free-decompiler.com/flash" xmlns:xlink="http://www.w3.org/1999/xlink" ffdec:objectType="shape" height="100.0px" width="100.0px" xmlns="http://www.w3.org/2000/svg">
  <g transform="matrix(1.0, 0.0, 0.0, 1.0, 0.0, 0.0)">
    <path d="M85.35 85.35 Q70.7 100.0 50.0 100.0 29.3 100.0 14.65 85.35 0.0 70.7 0.0 50.0 0.0 29.25 14.65 14.6 29.3 0.0 50.0 0.0 70.7 0.0 85.35 14.6 100.0 29.25 100.0 50.0 100.0 70.7 85.35 85.35 M70.15 40.7 Q72.4 45.5 79.75 48.3 L77.5 41.8 81.15 42.95 Q79.5 35.05 71.85 28.8 67.65 25.35 57.45 25.15 53.8 28.6 50.2 29.45 46.85 28.5 43.5 25.25 33.25 25.5 29.1 28.95 21.4 35.15 19.75 43.05 L23.45 41.9 21.15 48.4 Q28.5 45.6 30.75 40.8 L38.95 39.65 Q34.55 46.9 35.55 56.35 L29.9 71.85 33.9 79.2 46.6 62.45 55.45 62.45 67.05 79.1 71.0 71.75 65.35 56.2 Q66.35 46.8 61.95 39.55 L70.15 40.7" fill="#767676" fill-opacity="0.9764706" fill-rule="evenodd" stroke="none"/>
  </g>
</svg>
