<?xml version="1.0" encoding="UTF-8" standalone="no"?>
<svg xmlns:ffdec="https://www.free-decompiler.com/flash" xmlns:xlink="http://www.w3.org/1999/xlink" ffdec:objectType="shape" height="36.5px" width="36.5px" xmlns="http://www.w3.org/2000/svg">
  <g transform="matrix(1.0, 0.0, 0.0, 1.0, 1.0, 1.0)">
    <path d="M31.5 17.25 Q31.5 23.15 27.3 27.3 23.15 31.5 17.25 31.5 11.35 31.5 7.15 27.3 3.0 23.15 3.0 17.25 3.0 11.35 7.15 7.15 11.35 3.0 17.25 3.0 23.15 3.0 27.3 7.15 31.5 11.35 31.5 17.25" fill="#e6a202" fill-opacity="0.9647059" fill-rule="evenodd" stroke="none"/>
    <path d="M31.5 17.25 Q31.5 23.15 27.3 27.3 23.15 31.5 17.25 31.5 11.35 31.5 7.15 27.3 3.0 23.15 3.0 17.25 3.0 11.35 7.15 7.15 11.35 3.0 17.25 3.0 23.15 3.0 27.3 7.15 31.5 11.35 31.5 17.25" ffdec:has-small-stroke="true" ffdec:original-stroke-width="0.1" fill="none" stroke="#cccccc" stroke-linecap="round" stroke-linejoin="round" stroke-opacity="0.85882354" stroke-width="1.0"/>
    <path d="M34.5 17.25 Q34.5 24.4 29.45 29.45 24.4 34.5 17.25 34.5 10.1 34.5 5.05 29.45 0.0 24.4 0.0 17.25 0.0 10.1 5.05 5.05 10.1 0.0 17.25 0.0 24.4 0.0 29.45 5.05 34.5 10.1 34.5 17.25 Z" fill="none" stroke="#e6a202" stroke-linecap="round" stroke-linejoin="round" stroke-opacity="0.85882354" stroke-width="2.0"/>
  </g>
</svg>
