<?xml version="1.0" encoding="UTF-8" standalone="no"?>
<svg xmlns:ffdec="https://www.free-decompiler.com/flash" xmlns:xlink="http://www.w3.org/1999/xlink" ffdec:objectType="shape" height="100.0px" width="100.0px" xmlns="http://www.w3.org/2000/svg">
  <g transform="matrix(1.0, 0.0, 0.0, 1.0, 0.0, 0.0)">
    <path d="M88.6 81.85 L70.65 67.0 71.05 66.6 75.8 61.65 80.65 54.9 70.8 49.55 66.35 52.7 72.35 59.05 Q64.7 64.65 57.1 66.6 49.05 68.65 41.0 66.6 35.85 65.3 30.7 62.3 L36.35 51.2 31.9 50.5 23.0 61.4 23.2 62.15 26.95 66.6 Q38.5 79.0 50.9 77.6 L79.6 90.4 Q66.8 100.0 50.0 100.0 29.3 100.0 14.65 85.35 0.0 70.7 0.0 50.0 0.0 29.25 14.65 14.6 29.3 0.0 50.0 0.0 70.7 0.0 85.35 14.6 100.0 29.25 100.0 50.0 100.0 68.25 88.6 81.85 M65.15 48.95 L64.65 49.4 Q64.35 49.8 64.35 50.5 64.35 51.2 64.65 51.7 L65.15 52.2 65.65 51.65 Q65.9 51.3 65.8 50.55 65.9 49.8 65.6 49.4 L65.15 48.95 M68.65 31.25 L68.75 31.95 69.1 32.3 69.45 31.95 69.55 31.25 69.4 30.55 69.1 30.3 68.8 30.55 Q68.55 30.85 68.65 31.25 M42.85 17.9 L42.75 17.15 42.45 17.0 Q42.25 16.9 42.1 17.15 L42.0 17.9 42.1 18.55 42.5 19.0 42.85 18.65 42.85 17.9 M50.2 5.65 Q49.9 5.25 49.6 5.25 49.35 5.2 49.2 5.6 48.85 6.1 48.85 6.85 48.85 7.5 49.2 7.9 49.35 8.45 49.65 8.45 L50.15 8.0 50.4 6.8 50.2 5.65 M57.75 9.3 Q57.5 9.3 57.3 9.8 57.0 10.15 57.0 10.9 57.0 11.6 57.3 12.05 L57.75 12.55 58.3 12.0 58.45 10.95 58.25 9.75 57.75 9.3 M51.05 1.35 Q50.95 1.1 50.7 1.15 L50.5 1.35 Q50.2 1.7 50.3 2.1 L50.35 2.85 50.7 3.2 51.15 2.8 51.25 2.1 51.05 1.35 M56.0 4.15 Q55.9 3.85 55.7 3.9 55.6 3.85 55.45 4.15 55.2 4.45 55.3 4.9 L55.35 5.55 55.7 5.9 56.05 5.55 56.2 4.9 56.0 4.15 M65.4 21.85 L65.55 20.75 65.35 19.55 64.9 19.15 Q64.6 19.15 64.4 19.6 64.1 19.95 64.1 20.7 64.1 21.4 64.4 21.9 L64.9 22.35 65.4 21.85 M52.9 17.0 L41.8 37.3 52.0 61.7 63.4 37.65 52.9 17.0 M62.55 58.6 L62.4 57.85 Q62.25 57.6 62.05 57.6 L61.8 57.85 Q61.55 58.15 61.65 58.6 L61.7 59.25 Q61.9 59.7 62.05 59.6 L62.4 59.25 62.55 58.6 M38.85 54.8 L39.35 54.3 Q39.6 53.95 39.5 53.2 39.6 52.45 39.3 52.0 L38.85 51.55 Q38.55 51.55 38.35 52.05 38.05 52.4 38.05 53.15 38.05 53.85 38.35 54.35 L38.85 54.8 M37.55 46.75 L37.9 46.4 38.05 45.75 37.85 45.0 Q37.75 44.75 37.55 44.8 L37.3 45.0 Q37.05 45.3 37.1 45.75 L37.2 46.4 Q37.4 46.85 37.55 46.75 M34.1 32.7 L33.6 32.3 Q33.35 32.3 33.15 32.75 32.85 33.1 32.85 33.85 32.85 34.55 33.15 35.05 L33.6 35.55 34.15 35.0 34.25 33.9 Q34.35 33.15 34.1 32.7 M39.2 23.25 Q39.05 23.0 38.9 23.05 38.75 23.0 38.6 23.25 38.35 23.55 38.45 24.0 L38.55 24.65 Q38.7 25.1 38.9 25.0 L39.25 24.65 39.35 24.0 39.2 23.25" fill="#767676" fill-opacity="0.9764706" fill-rule="evenodd" stroke="none"/>
  </g>
</svg>
