<?xml version="1.0" encoding="UTF-8" standalone="no"?>
<svg xmlns:ffdec="https://www.free-decompiler.com/flash" xmlns:xlink="http://www.w3.org/1999/xlink" ffdec:objectType="shape" height="19.15px" width="19.2px" xmlns="http://www.w3.org/2000/svg">
  <g transform="matrix(1.0, 0.0, 0.0, 1.0, -2.7, -2.75)">
    <path d="M16.65 8.2 Q14.85 6.4 12.3 6.4 9.75 6.4 7.95 8.2 6.15 10.0 6.15 12.6 6.15 15.15 7.95 16.95 9.75 18.75 12.3 18.75 14.85 18.75 16.65 16.95 18.45 15.15 18.45 12.6 18.45 10.0 16.65 8.2 M19.0 5.6 Q21.8 8.4 21.8 12.3 21.8 16.25 19.0 19.0 16.25 21.8 12.3 21.8 8.4 21.8 5.6 19.0 2.8 16.25 2.8 12.3 2.8 8.4 5.6 5.6 8.4 2.85 12.3 2.85 16.25 2.85 19.0 5.6" fill="#747474" fill-rule="evenodd" stroke="none"/>
    <path d="M19.0 5.6 Q21.8 8.4 21.8 12.3 21.8 16.25 19.0 19.0 16.25 21.8 12.3 21.8 8.4 21.8 5.6 19.0 2.8 16.25 2.8 12.3 2.8 8.4 5.6 5.6 8.4 2.85 12.3 2.85 16.25 2.85 19.0 5.6 Z" ffdec:has-small-stroke="true" ffdec:original-stroke-width="0.2" fill="none" stroke="#666666" stroke-linecap="round" stroke-linejoin="round" stroke-opacity="0.85882354" stroke-width="1.0"/>
  </g>
</svg>
