<?xml version="1.0" encoding="UTF-8" standalone="no"?>
<svg xmlns:ffdec="https://www.free-decompiler.com/flash" xmlns:xlink="http://www.w3.org/1999/xlink" ffdec:objectType="shape" height="74.65px" width="140.0px" xmlns="http://www.w3.org/2000/svg">
  <g transform="matrix(1.0, 0.0, 0.0, 1.0, 0.5, 0.5)">
    <path d="M120.0 73.5 Q104.4 61.9 75.55 68.25 46.7 74.6 0.0 73.5 8.3 62.35 11.35 44.45 10.7 20.95 20.0 3.5 54.85 13.6 84.85 4.8 114.8 -4.05 139.0 3.5 117.75 37.5 120.0 73.5" fill="#767676" fill-opacity="0.9764706" fill-rule="evenodd" stroke="none"/>
    <path d="M120.0 73.5 Q104.4 61.9 75.55 68.25 46.7 74.6 0.0 73.5 8.3 62.35 11.35 44.45 10.7 20.95 20.0 3.5 54.85 13.6 84.85 4.8 114.8 -4.05 139.0 3.5 117.75 37.5 120.0 73.5 Z" fill="none" stroke="#7f7f7f" stroke-linecap="round" stroke-linejoin="round" stroke-opacity="0.85882354" stroke-width="1.0"/>
  </g>
</svg>
