<?xml version="1.0" encoding="UTF-8" standalone="no"?>
<svg xmlns:ffdec="https://www.free-decompiler.com/flash" xmlns:xlink="http://www.w3.org/1999/xlink" ffdec:objectType="shape" height="28.6px" width="28.6px" xmlns="http://www.w3.org/2000/svg">
  <g transform="matrix(1.0, 0.0, 0.0, 1.0, -5.45, -5.95)">
    <path d="M34.0 20.25 Q34.0 26.15 29.8 30.3 25.65 34.5 19.75 34.5 13.85 34.5 9.65 30.3 5.5 26.15 5.5 20.25 5.5 14.35 9.65 10.15 13.85 6.0 19.75 6.0 25.65 6.0 29.8 10.15 34.0 14.35 34.0 20.25" fill="#e6a202" fill-opacity="0.9647059" fill-rule="evenodd" stroke="none"/>
    <path d="M34.0 20.25 Q34.0 26.15 29.8 30.3 25.65 34.5 19.75 34.5 13.85 34.5 9.65 30.3 5.5 26.15 5.5 20.25 5.5 14.35 9.65 10.15 13.85 6.0 19.75 6.0 25.65 6.0 29.8 10.15 34.0 14.35 34.0 20.25 Z" ffdec:has-small-stroke="true" ffdec:original-stroke-width="0.1" fill="none" stroke="#cccccc" stroke-linecap="round" stroke-linejoin="round" stroke-opacity="0.85882354" stroke-width="1.0"/>
  </g>
</svg>
