<?xml version="1.0" encoding="UTF-8" standalone="no"?>
<svg xmlns:ffdec="https://www.free-decompiler.com/flash" xmlns:xlink="http://www.w3.org/1999/xlink" ffdec:objectType="shape" height="23.0px" width="19.5px" xmlns="http://www.w3.org/2000/svg">
  <g transform="matrix(1.0, 0.0, 0.0, 1.0, -10.0, -8.0)">
    <path d="M18.6 13.65 L18.4 13.9 18.35 13.9 Q18.1 14.0 18.1 14.4 L18.1 14.7 18.1 14.8 Q18.1 15.45 18.75 15.6 L18.85 15.55 19.0 15.6 19.4 15.4 19.6 14.85 19.6 14.65 19.55 14.45 19.6 14.1 19.0 13.6 18.6 13.65 M28.95 12.8 Q29.5 14.15 29.5 15.8 L29.5 23.2 Q29.5 26.45 27.2 28.7 24.95 31.0 21.7 31.0 L17.8 31.0 Q14.55 31.0 12.25 28.7 10.0 26.45 10.0 23.2 L10.0 15.8 Q10.0 13.4 11.25 11.55 L17.75 19.6 18.15 19.45 18.5 19.85 19.0 19.65 Q20.4 17.15 28.1 13.2 L28.95 12.8 M27.2 10.25 L28.45 11.85 Q24.05 14.3 18.05 18.45 L13.3 12.4 11.85 10.75 12.25 10.25 Q14.55 8.0 17.8 8.0 L21.7 8.0 Q24.95 8.0 27.2 10.25" fill="#747474" fill-opacity="0.8235294" fill-rule="evenodd" stroke="none"/>
  </g>
</svg>
