<?xml version="1.0" encoding="UTF-8" standalone="no"?>
<svg xmlns:ffdec="https://www.free-decompiler.com/flash" xmlns:xlink="http://www.w3.org/1999/xlink" ffdec:objectType="shape" height="95.7px" width="58.0px" xmlns="http://www.w3.org/2000/svg">
  <g transform="matrix(1.0, 0.0, 0.0, 1.0, 0.0, 0.0)">
    <path d="M37.6 11.75 L37.6 15.1 33.95 15.1 33.95 12.95 Q33.95 11.15 32.15 11.15 L25.2 11.15 Q23.4 11.15 23.4 12.95 L23.4 17.8 Q23.4 19.4 24.9 19.4 L34.2 19.4 Q37.8 19.4 37.8 23.45 L37.8 31.3 Q37.8 35.25 33.85 35.25 L30.35 35.25 30.35 42.7 30.3 42.7 58.0 66.7 51.0 66.95 51.0 95.7 9.0 95.7 9.0 68.4 0.0 68.7 27.3 41.4 27.3 35.25 23.5 35.25 Q19.55 35.25 19.55 31.3 L19.55 27.95 23.25 27.95 23.25 30.05 Q23.25 31.9 25.05 31.9 L32.3 31.9 Q34.15 31.9 34.15 30.05 L34.15 24.9 Q34.15 22.75 32.6 22.75 L23.25 22.75 Q19.75 22.75 19.75 19.2 L19.75 11.75 Q19.75 7.8 23.7 7.8 L27.3 7.8 27.3 0.0 30.35 0.0 30.35 7.8 33.65 7.8 Q37.6 7.8 37.6 11.75" fill="#747474" fill-rule="evenodd" stroke="none"/>
  </g>
</svg>
