<?xml version="1.0" encoding="UTF-8" standalone="no"?>
<svg xmlns:ffdec="https://www.free-decompiler.com/flash" xmlns:xlink="http://www.w3.org/1999/xlink" ffdec:objectType="shape" height="100.0px" width="100.0px" xmlns="http://www.w3.org/2000/svg">
  <g transform="matrix(1.0, 0.0, 0.0, 1.0, 0.0, 0.0)">
    <path d="M88.6 81.85 L70.65 67.0 71.05 66.6 75.8 61.65 80.65 54.9 70.8 49.55 66.35 52.7 72.35 59.05 Q64.7 64.65 57.1 66.6 49.05 68.65 41.0 66.6 35.85 65.3 30.7 62.3 L36.35 51.2 31.9 50.5 23.0 61.4 23.2 62.15 26.95 66.6 Q38.5 79.0 50.9 77.6 L79.6 90.4 Q66.8 100.0 50.0 100.0 29.3 100.0 14.65 85.35 0.0 70.7 0.0 50.0 0.0 29.25 14.65 14.6 29.3 0.0 50.0 0.0 70.7 0.0 85.35 14.6 100.0 29.25 100.0 50.0 100.0 68.25 88.6 81.85 M40.8 38.1 L40.8 37.25 40.65 36.4 Q40.55 36.15 40.3 36.2 40.1 36.1 39.95 36.4 39.8 36.7 39.8 37.25 L39.9 38.0 Q40.1 38.5 40.4 38.5 L40.8 38.1 M48.4 27.7 Q47.55 29.45 48.4 32.2 48.15 36.3 46.7 38.6 46.9 34.85 45.25 31.45 L43.25 21.1 43.75 29.95 Q41.7 36.65 43.1 42.6 43.7 45.1 44.85 47.5 42.7 46.05 42.1 42.8 L42.1 42.75 40.5 39.95 40.65 44.05 Q41.6 47.95 41.3 52.4 40.95 53.65 40.95 54.95 L40.95 55.35 Q41.1 58.8 43.55 61.25 46.15 63.8 49.85 63.8 53.55 63.8 56.1 61.25 58.75 58.6 58.75 54.9 58.75 53.2 58.2 51.75 59.55 45.5 63.5 39.0 L57.85 46.7 Q56.75 42.9 58.9 39.85 61.05 36.75 61.55 27.4 60.05 34.5 57.9 36.45 55.7 38.15 54.65 41.45 55.5 35.9 54.2 28.25 51.45 20.55 54.3 13.1 51.3 19.0 52.3 28.05 L51.1 37.7 Q51.3 34.7 49.7 32.2 L48.4 27.7 M57.8 27.45 Q57.5 27.45 57.25 28.0 56.9 28.4 56.9 29.25 56.9 30.05 57.25 30.6 57.5 31.15 57.8 31.15 L58.4 30.55 Q58.65 30.15 58.55 29.3 58.65 28.45 58.35 27.95 L57.8 27.45 M55.8 21.55 Q55.65 21.25 55.45 21.3 L55.15 21.55 Q54.85 21.9 54.95 22.4 L55.05 23.15 Q55.25 23.65 55.45 23.55 L55.85 23.15 56.0 22.4 55.8 21.55 M49.15 23.3 L48.5 22.8 Q48.2 22.75 48.0 23.2 47.65 23.8 47.65 24.65 47.65 25.4 48.0 25.85 48.2 26.45 48.55 26.45 L49.1 25.95 49.4 24.6 49.15 23.3 M49.75 18.15 Q49.65 18.1 49.5 18.4 49.15 18.75 49.3 19.25 L49.35 20.1 49.75 20.5 50.25 20.05 50.35 19.25 50.15 18.4 49.75 18.15" fill="#767676" fill-opacity="0.9764706" fill-rule="evenodd" stroke="none"/>
  </g>
</svg>
