<?xml version="1.0" encoding="UTF-8" standalone="no"?>
<svg xmlns:ffdec="https://www.free-decompiler.com/flash" xmlns:xlink="http://www.w3.org/1999/xlink" ffdec:objectType="shape" height="21.15px" width="22.85px" xmlns="http://www.w3.org/2000/svg">
  <g transform="matrix(1.0, 0.0, 0.0, 1.0, -7.85, -9.8)">
    <path d="M23.05 10.65 Q24.0 11.75 24.35 13.55 24.65 15.35 24.15 16.85 23.75 18.4 22.75 18.7 21.75 19.0 20.75 17.95 19.9 16.95 19.6 15.1 19.2 13.3 19.65 11.75 20.1 10.25 21.05 9.9 22.05 9.55 23.05 10.65 M28.7 16.45 L29.15 15.85 Q29.8 15.3 30.25 15.6 30.7 15.95 30.7 17.05 L30.15 19.45 Q29.65 20.65 28.95 21.25 28.25 21.85 27.8 21.5 27.35 21.2 27.4 20.05 L27.45 19.3 27.95 17.7 Q28.25 16.95 28.7 16.45 M28.1 24.35 Q28.6 26.2 27.1 28.05 25.6 29.9 22.95 30.6 20.3 31.3 18.1 30.5 15.85 29.6 15.35 27.75 14.85 25.9 16.35 24.05 17.85 22.2 20.5 21.5 L25.35 21.65 Q27.6 22.5 28.1 24.35 M7.9 22.5 Q7.65 21.4 8.3 20.75 8.9 20.15 10.05 20.35 11.2 20.55 12.15 21.55 13.15 22.5 13.3 23.6 13.55 24.75 12.9 25.35 12.25 26.0 11.2 25.75 10.1 25.5 9.1 24.6 8.15 23.65 7.9 22.5 M17.85 17.95 Q17.85 19.4 16.95 19.9 L14.8 19.75 Q13.55 19.05 12.7 17.55 11.8 16.05 11.85 14.65 11.9 13.25 12.75 12.7 L14.9 12.85 Q16.15 13.55 17.05 15.05 17.9 16.55 17.85 17.95" fill="#ffffff" fill-rule="evenodd" stroke="none"/>
  </g>
</svg>
