<?xml version="1.0" encoding="UTF-8" standalone="no"?>
<svg xmlns:ffdec="https://www.free-decompiler.com/flash" xmlns:xlink="http://www.w3.org/1999/xlink" ffdec:objectType="shape" height="100.0px" width="100.0px" xmlns="http://www.w3.org/2000/svg">
  <g transform="matrix(1.0, 0.0, 0.0, 1.0, 0.0, 0.0)">
    <path d="M85.35 85.35 Q70.7 100.0 50.0 100.0 29.3 100.0 14.65 85.35 0.0 70.7 0.0 50.0 0.0 29.25 14.65 14.6 29.3 0.0 50.0 0.0 70.7 0.0 85.35 14.6 100.0 29.25 100.0 50.0 100.0 70.7 85.35 85.35 M62.85 51.0 Q62.5 52.8 61.4 55.1 L59.75 55.65 Q60.5 52.45 62.85 51.0 L62.9 50.55 63.0 45.9 62.75 40.95 Q62.1 37.75 59.75 34.05 L54.35 25.4 50.55 21.6 Q48.35 20.05 44.65 20.0 47.5 24.8 48.85 29.55 50.05 33.75 50.05 37.55 50.05 41.6 49.75 42.65 49.0 45.2 45.75 47.55 L39.8 51.85 38.75 53.1 37.4 54.75 35.45 47.0 34.1 44.5 33.8 44.8 Q33.05 45.55 32.75 46.45 32.4 47.6 32.65 49.35 32.8 50.4 31.15 52.4 L27.2 57.35 Q26.85 58.1 26.85 61.85 26.85 66.9 29.5 71.8 32.6 77.5 37.65 77.45 L39.8 77.2 65.7 77.2 Q66.2 77.2 67.9 76.45 L71.65 74.5 73.6 73.1 75.4 71.3 Q76.0 70.55 76.25 68.25 L76.5 65.6 Q76.5 60.55 75.45 52.2 L74.4 43.8 73.8 44.85 Q73.0 46.3 71.7 46.9 70.4 47.25 70.0 47.55 68.55 48.55 66.55 49.35 L63.6 50.6 62.85 51.0 M37.1 58.85 L36.55 59.4 36.55 55.65 37.4 54.75 37.65 55.9 37.35 57.5 37.1 58.85" fill="#767676" fill-opacity="0.9764706" fill-rule="evenodd" stroke="none"/>
  </g>
</svg>
