<?xml version="1.0" encoding="UTF-8" standalone="no"?>
<svg xmlns:ffdec="https://www.free-decompiler.com/flash" xmlns:xlink="http://www.w3.org/1999/xlink" ffdec:objectType="shape" height="2.0px" width="136.2px" xmlns="http://www.w3.org/2000/svg">
  <g transform="matrix(1.0, 0.0, 0.0, 1.0, 60.45, -18.3)">
    <path d="M62.65 19.2 L66.6 19.0 71.65 19.0 75.65 19.2 75.65 19.7 66.3 19.7 66.3 20.05 68.1 20.15 70.25 20.15 72.1 20.05 72.1 19.95 75.75 19.95 75.75 20.1 71.8 20.3 66.6 20.3 62.65 20.1 62.65 19.2 M66.3 19.25 L66.3 19.55 71.95 19.55 71.95 19.25 70.15 19.15 68.1 19.15 66.3 19.25 M47.45 19.05 L53.9 19.0 57.85 19.2 57.85 20.3 54.2 20.3 54.2 19.25 52.4 19.15 48.8 19.2 48.8 20.3 45.4 20.3 45.4 19.25 43.6 19.15 40.05 19.2 40.05 20.3 36.4 20.3 36.4 19.1 44.5 19.0 47.45 19.05 M23.7 20.15 L27.8 20.1 27.8 19.7 23.4 19.7 21.85 19.8 21.85 20.05 23.7 20.15 M22.25 19.35 L18.55 19.35 18.55 19.2 22.5 19.0 27.55 19.0 31.5 19.2 31.5 20.25 22.15 20.3 18.2 20.1 18.2 19.7 21.55 19.5 27.8 19.5 27.8 19.25 26.0 19.15 24.05 19.15 22.25 19.25 22.25 19.35 M7.2 18.45 L2.95 18.45 0.8 18.55 0.8 20.05 2.95 20.15 9.35 20.1 9.35 19.4 5.8 19.4 5.8 19.25 13.65 19.25 13.65 20.25 0.5 20.3 -3.45 20.1 -3.45 18.5 0.5 18.3 9.65 18.3 13.65 18.5 13.65 18.85 9.35 18.85 9.35 18.55 7.2 18.45 M-16.35 19.0 L-14.55 19.0 -14.55 18.6 -10.9 18.6 -10.9 19.0 -7.15 19.0 -7.15 19.15 -10.9 19.15 -10.9 20.05 -8.95 20.15 -6.65 20.15 -6.65 20.3 -10.3 20.3 -14.55 20.1 -14.55 19.15 -16.35 19.15 -16.35 19.0 M-38.85 20.3 L-38.85 19.1 -30.45 19.0 -26.75 19.2 -26.75 19.35 -30.15 19.35 -30.15 19.25 -31.65 19.15 -35.2 19.2 -35.2 20.3 -38.85 20.3 M-56.2 20.05 L-54.05 20.15 -49.8 20.15 -47.65 20.05 -47.65 19.75 -43.65 19.75 -43.65 20.1 -47.65 20.3 -56.5 20.3 -60.45 20.1 -60.45 18.5 -56.5 18.3 -47.65 18.3 -43.65 18.5 -43.65 18.85 -47.65 18.85 -47.65 18.55 -49.8 18.45 -54.05 18.45 -56.2 18.55 -56.2 20.05" fill="#747474" fill-opacity="0.9764706" fill-rule="evenodd" stroke="none"/>
  </g>
</svg>
