<?xml version="1.0" encoding="UTF-8" standalone="no"?>
<svg xmlns:ffdec="https://www.free-decompiler.com/flash" xmlns:xlink="http://www.w3.org/1999/xlink" ffdec:objectType="shape" height="100.0px" width="100.0px" xmlns="http://www.w3.org/2000/svg">
  <g transform="matrix(1.0, 0.0, 0.0, 1.0, 0.0, 0.0)">
    <path d="M85.35 85.35 Q70.7 100.0 50.0 100.0 29.3 100.0 14.65 85.35 L10.5 80.7 19.85 73.45 Q26.1 68.4 29.05 65.2 L36.3 67.5 Q44.6 69.95 47.75 69.95 51.0 69.95 52.35 66.85 L54.1 61.95 54.85 61.75 Q60.4 60.1 60.4 55.5 60.4 53.5 58.95 48.3 57.35 42.4 56.0 41.45 L49.3 35.7 Q47.9 34.55 46.5 33.8 L46.8 33.25 Q42.9 29.6 40.9 28.95 L36.3 28.65 32.95 28.8 26.95 30.95 26.9 30.95 26.55 31.1 25.35 31.2 Q22.7 31.5 19.45 33.6 L16.3 35.95 Q13.85 37.85 12.95 39.0 10.55 41.8 8.35 45.2 L8.75 45.6 7.1 47.15 3.45 52.65 3.2 52.95 2.85 52.8 0.45 57.05 Q0.0 53.6 0.0 50.0 0.0 29.25 14.65 14.6 29.3 0.0 50.0 0.0 70.7 0.0 85.35 14.6 100.0 29.25 100.0 50.0 100.0 70.7 85.35 85.35 M83.35 73.1 L87.3 68.35 78.9 64.7 89.2 48.75 75.15 52.5 72.7 61.95 64.25 58.25 63.45 64.35 71.5 67.05 65.2 75.15 74.2 79.1 75.95 69.0 83.35 73.1 M56.7 37.3 L75.45 47.95 75.45 33.45 67.15 24.25 55.8 25.85 56.7 37.3 M27.2 31.5 L27.5 31.5 27.5 31.7 27.2 31.5" fill="#767676" fill-opacity="0.9764706" fill-rule="evenodd" stroke="none"/>
  </g>
</svg>
