<?xml version="1.0" encoding="UTF-8" standalone="no"?>
<svg xmlns:ffdec="https://www.free-decompiler.com/flash" xmlns:xlink="http://www.w3.org/1999/xlink" ffdec:objectType="shape" height="100.0px" width="100.0px" xmlns="http://www.w3.org/2000/svg">
  <g transform="matrix(1.0, 0.0, 0.0, 1.0, 0.0, 0.0)">
    <path d="M85.35 85.35 Q70.7 100.0 50.0 100.0 29.3 100.0 14.65 85.35 0.0 70.7 0.0 50.0 0.0 29.25 14.65 14.6 29.3 0.0 50.0 0.0 70.7 0.0 85.35 14.6 100.0 29.25 100.0 50.0 100.0 70.7 85.35 85.35 M63.45 20.3 L55.7 32.35 48.1 19.25 43.1 22.15 42.25 20.7 37.25 23.6 38.1 25.0 31.1 29.0 Q24.45 32.6 15.1 26.4 19.85 39.65 29.95 54.85 L25.85 60.0 33.85 66.3 24.35 76.4 34.75 84.65 42.5 73.2 50.45 79.5 54.65 74.2 47.15 68.3 57.15 58.05 70.9 81.9 75.95 79.0 61.4 53.75 80.65 33.9 79.6 17.55 63.45 20.3 M48.7 43.4 L37.55 60.65 34.4 58.1 Q33.9 48.65 40.35 43.05 L46.45 39.5 48.7 43.4 M51.45 36.6 L53.9 35.25 52.2 37.9 51.45 36.6" fill="#767676" fill-opacity="0.9764706" fill-rule="evenodd" stroke="none"/>
  </g>
</svg>
