<?xml version="1.0" encoding="UTF-8" standalone="no"?>
<svg xmlns:ffdec="https://www.free-decompiler.com/flash" xmlns:xlink="http://www.w3.org/1999/xlink" ffdec:objectType="shape" height="100.0px" width="100.0px" xmlns="http://www.w3.org/2000/svg">
  <g transform="matrix(1.0, 0.0, 0.0, 1.0, 0.0, 0.0)">
    <path d="M85.4 85.4 Q70.75 100.0 50.0 100.0 29.25 100.0 14.65 85.4 0.0 70.7 0.0 50.0 0.0 29.25 14.65 14.65 29.25 0.0 50.0 0.0 70.75 0.0 85.4 14.65 100.0 29.25 100.0 50.0 100.0 70.7 85.4 85.4 M74.05 27.15 Q64.05 20.25 49.9 20.25 35.75 20.25 25.75 27.15 15.75 34.15 15.75 44.0 15.75 53.85 25.75 60.75 28.85 62.95 32.35 64.45 29.6 67.4 29.0 71.1 L28.85 73.1 28.9 74.1 38.75 74.1 38.75 68.4 41.2 68.4 41.2 74.1 47.65 74.1 47.65 67.7 49.9 67.75 50.9 67.75 50.9 74.1 57.3 74.1 57.3 68.15 59.8 68.15 59.8 74.1 69.45 74.1 69.45 73.1 69.3 71.1 Q68.75 67.7 66.35 64.9 70.5 63.3 74.05 60.75 84.05 53.85 84.05 44.0 84.05 34.15 74.05 27.15 M55.9 38.6 Q58.45 36.05 62.0 36.05 65.6 36.05 68.1 38.6 70.7 41.15 70.7 44.75 70.7 48.3 68.1 50.8 65.6 53.4 62.0 53.4 58.45 53.4 55.9 50.8 53.35 48.3 53.35 44.75 53.35 41.15 55.9 38.6 M47.9 44.75 Q47.9 48.3 45.35 50.8 42.8 53.4 39.25 53.4 35.7 53.4 33.1 50.8 30.6 48.3 30.6 44.75 30.6 41.15 33.1 38.6 35.7 36.05 39.25 36.05 42.8 36.05 45.35 38.6 47.9 41.15 47.9 44.75 M53.15 57.6 Q54.1 58.15 54.1 58.85 54.1 59.55 53.15 60.05 52.2 60.55 50.9 60.55 L48.6 60.05 Q47.65 59.55 47.65 58.85 47.65 58.15 48.6 57.6 49.55 57.1 50.9 57.1 52.2 57.1 53.15 57.6" fill="#747474" fill-rule="evenodd" stroke="none"/>
    <path d="M74.05 27.15 Q84.05 34.15 84.05 44.0 84.05 53.85 74.05 60.75 70.5 63.3 66.35 64.9 68.75 67.7 69.3 71.1 L69.45 73.1 69.45 74.1 59.8 74.1 59.8 68.15 57.3 68.15 57.3 74.1 50.9 74.1 50.9 67.75 49.9 67.75 47.65 67.7 47.65 74.1 41.2 74.1 41.2 68.4 38.75 68.4 38.75 74.1 28.9 74.1 28.85 73.1 29.0 71.1 Q29.6 67.4 32.35 64.45 28.85 62.95 25.75 60.75 15.75 53.85 15.75 44.0 15.75 34.15 25.75 27.15 35.75 20.25 49.9 20.25 64.05 20.25 74.05 27.15 M53.15 57.6 Q52.2 57.1 50.9 57.1 49.55 57.1 48.6 57.6 47.65 58.15 47.65 58.85 47.65 59.55 48.6 60.05 L50.9 60.55 Q52.2 60.55 53.15 60.05 54.1 59.55 54.1 58.85 54.1 58.15 53.15 57.6 M47.9 44.75 Q47.9 41.15 45.35 38.6 42.8 36.05 39.25 36.05 35.7 36.05 33.1 38.6 30.6 41.15 30.6 44.75 30.6 48.3 33.1 50.8 35.7 53.4 39.25 53.4 42.8 53.4 45.35 50.8 47.9 48.3 47.9 44.75 M55.9 38.6 Q53.35 41.15 53.35 44.75 53.35 48.3 55.9 50.8 58.45 53.4 62.0 53.4 65.6 53.4 68.1 50.8 70.7 48.3 70.7 44.75 70.7 41.15 68.1 38.6 65.6 36.05 62.0 36.05 58.45 36.05 55.9 38.6" fill="#ffffff" fill-opacity="0.50980395" fill-rule="evenodd" stroke="none"/>
  </g>
</svg>
