<?xml version="1.0" encoding="UTF-8" standalone="no"?>
<svg xmlns:ffdec="https://www.free-decompiler.com/flash" xmlns:xlink="http://www.w3.org/1999/xlink" ffdec:objectType="shape" height="100.0px" width="100.0px" xmlns="http://www.w3.org/2000/svg">
  <g transform="matrix(1.0, 0.0, 0.0, 1.0, 0.0, 0.0)">
    <path d="M84.05 39.25 Q81.2 34.5 81.2 32.45 81.2 29.1 83.0 27.3 84.3 26.15 88.95 22.95 81.95 23.55 78.55 24.6 75.1 25.65 73.75 27.55 72.55 29.2 72.35 32.5 L72.35 40.15 Q72.35 43.4 68.3 45.25 L62.55 46.95 62.1 46.5 Q59.4 43.8 56.05 42.55 L56.1 42.25 Q56.1 40.9 54.2 39.95 52.35 39.05 49.7 39.05 47.05 39.05 45.1 39.95 43.25 40.9 43.25 42.25 L43.45 43.05 Q40.75 44.25 38.5 46.5 L37.95 47.05 32.3 45.4 31.95 45.25 Q27.9 43.4 27.9 40.15 L27.9 32.5 Q27.75 29.2 26.55 27.55 25.15 25.65 21.7 24.6 18.3 23.55 11.35 22.95 16.0 26.15 17.25 27.3 19.1 29.1 19.1 32.45 19.1 34.5 16.2 39.25 L13.35 43.95 Q13.35 44.7 14.6 46.05 15.85 47.5 17.8 48.95 22.75 52.55 27.45 52.55 L34.5 52.3 34.7 52.25 34.4 53.2 Q34.05 54.25 33.85 55.45 L32.0 55.45 32.0 58.45 36.0 58.45 35.85 60.5 Q35.85 62.1 36.2 63.65 L36.2 69.6 36.7 72.8 37.15 75.5 Q37.4 74.15 38.05 73.9 L39.2 73.75 40.45 74.0 41.2 76.45 41.7 78.55 41.85 79.85 Q41.85 78.8 42.5 77.8 43.15 76.75 43.9 76.75 44.75 76.75 45.15 77.7 L45.9 79.6 46.3 81.4 46.8 81.9 46.95 82.7 Q47.75 85.85 48.75 88.05 L48.75 88.2 50.05 85.25 Q50.15 84.45 50.35 84.15 L50.8 83.55 51.05 82.7 51.3 82.05 52.45 78.5 Q52.9 77.05 54.2 77.05 55.65 77.05 56.3 78.75 L56.85 80.65 57.0 77.8 Q57.35 75.65 58.75 75.65 59.5 75.65 60.25 76.35 L61.55 77.6 Q61.55 75.25 61.7 74.4 61.85 72.8 62.9 70.7 L63.7 68.7 64.15 67.3 64.5 64.25 64.25 61.95 64.35 60.5 64.2 58.45 68.15 58.45 68.15 55.45 66.8 55.45 66.0 52.3 72.85 52.55 Q77.55 52.55 82.45 48.95 L85.7 46.05 Q86.9 44.7 86.9 43.95 L84.05 39.25 M85.35 85.35 Q70.7 100.0 50.0 100.0 29.3 100.0 14.6 85.35 0.0 70.7 0.0 50.0 0.0 29.25 14.6 14.6 29.3 0.0 50.0 0.0 70.7 0.0 85.35 14.6 100.0 29.25 100.0 50.0 100.0 70.7 85.35 85.35" fill="#747474" fill-rule="evenodd" stroke="none"/>
    <path d="M84.05 39.25 L86.9 43.95 Q86.9 44.7 85.7 46.05 L82.45 48.95 Q77.55 52.55 72.85 52.55 L66.0 52.3 66.8 55.45 68.15 55.45 68.15 58.45 64.2 58.45 64.35 60.5 64.25 61.95 64.5 64.25 64.15 67.3 63.7 68.7 62.9 70.7 Q61.85 72.8 61.7 74.4 61.55 75.25 61.55 77.6 L60.25 76.35 Q59.5 75.65 58.75 75.65 57.35 75.65 57.0 77.8 L56.85 80.65 56.3 78.75 Q55.65 77.05 54.2 77.05 52.9 77.05 52.45 78.5 L51.3 82.05 51.05 82.7 50.8 83.55 50.35 84.15 Q50.15 84.45 50.05 85.25 L48.75 88.2 48.75 88.05 Q47.75 85.85 46.95 82.7 L46.8 81.9 46.3 81.4 45.9 79.6 45.15 77.7 Q44.75 76.75 43.9 76.75 43.15 76.75 42.5 77.8 41.85 78.8 41.85 79.85 L41.7 78.55 41.2 76.45 40.45 74.0 39.2 73.75 38.05 73.9 Q37.4 74.15 37.15 75.5 L36.7 72.8 36.2 69.6 36.2 63.65 Q35.85 62.1 35.85 60.5 L36.0 58.45 32.0 58.45 32.0 55.45 33.85 55.45 Q34.05 54.25 34.4 53.2 L34.7 52.25 34.5 52.3 27.45 52.55 Q22.75 52.55 17.8 48.95 15.85 47.5 14.6 46.05 13.35 44.7 13.35 43.95 L16.2 39.25 Q19.1 34.5 19.1 32.45 19.1 29.1 17.25 27.3 16.0 26.15 11.35 22.95 18.3 23.55 21.7 24.6 25.15 25.65 26.55 27.55 27.75 29.2 27.9 32.5 L27.9 40.15 Q27.9 43.4 31.95 45.25 L32.3 45.4 37.95 47.05 38.5 46.5 Q40.75 44.25 43.45 43.05 L43.25 42.25 Q43.25 40.9 45.1 39.95 47.05 39.05 49.7 39.05 52.35 39.05 54.2 39.95 56.1 40.9 56.1 42.25 L56.05 42.55 Q59.4 43.8 62.1 46.5 L62.55 46.95 68.3 45.25 Q72.35 43.4 72.35 40.15 L72.35 32.5 Q72.55 29.2 73.75 27.55 75.1 25.65 78.55 24.6 81.95 23.55 88.95 22.95 84.3 26.15 83.0 27.3 81.2 29.1 81.2 32.45 81.2 34.5 84.05 39.25" fill="#ffffff" fill-opacity="0.31764707" fill-rule="evenodd" stroke="none"/>
  </g>
</svg>
