<?xml version="1.0" encoding="UTF-8" standalone="no"?>
<svg xmlns:ffdec="https://www.free-decompiler.com/flash" xmlns:xlink="http://www.w3.org/1999/xlink" ffdec:objectType="shape" height="100.0px" width="100.0px" xmlns="http://www.w3.org/2000/svg">
  <g transform="matrix(1.0, 0.0, 0.0, 1.0, 0.0, 0.0)">
    <path d="M89.6 23.3 L68.25 30.4 56.95 11.55 56.2 10.85 56.65 9.85 Q56.95 9.2 56.75 8.55 56.5 7.85 55.85 7.55 L54.55 7.5 Q53.9 7.75 53.55 8.4 L45.45 25.2 25.1 13.1 24.05 12.9 Q23.45 12.95 23.05 13.35 22.6 13.75 22.5 14.3 L19.25 34.25 8.95 42.25 5.95 41.75 Q5.3 41.6 4.7 42.05 4.1 42.5 4.0 43.15 3.9 43.85 4.3 44.45 L5.4 45.15 6.85 45.4 7.1 45.9 Q7.5 46.45 8.25 46.55 L9.5 46.2 9.9 45.9 19.6 47.55 9.7 67.4 Q9.35 67.95 9.5 68.55 9.65 69.15 10.15 69.5 10.55 69.9 11.2 69.9 L26.95 69.9 32.15 94.65 Q32.25 95.2 32.7 95.55 L33.7 96.0 34.75 95.7 35.45 94.9 41.6 78.4 Q41.85 77.7 41.6 77.1 41.25 76.4 40.6 76.15 L39.3 76.25 Q38.65 76.5 38.4 77.2 L34.3 88.1 30.0 67.8 29.45 66.85 Q28.95 66.45 28.35 66.45 L13.95 66.45 23.75 47.0 23.9 45.9 Q23.8 45.35 23.4 45.0 23.0 44.55 22.45 44.5 L13.55 43.05 21.85 36.55 22.5 35.45 25.5 17.4 45.35 29.1 46.2 29.35 47.1 29.1 47.75 28.4 54.55 14.2 66.0 33.35 66.9 34.05 68.05 34.1 86.25 28.0 79.1 39.8 Q78.8 40.25 78.8 40.75 78.8 41.2 79.1 41.65 L79.85 42.25 90.7 47.15 79.6 54.35 Q79.0 54.75 78.85 55.45 78.7 56.15 79.1 56.75 79.45 57.35 80.2 57.5 L81.5 57.25 95.2 48.3 95.9 47.35 95.85 46.15 Q95.55 45.55 95.0 45.35 L83.0 39.95 91.6 25.8 91.85 24.8 91.5 23.85 Q91.15 23.4 90.6 23.25 L89.6 23.3 M87.8 82.8 L82.0 75.7 81.95 75.75 81.05 74.55 67.55 56.95 67.5 56.55 67.8 56.2 68.6 55.0 69.0 53.65 69.1 51.8 69.0 48.2 68.7 46.45 68.25 45.45 Q65.65 45.1 63.0 45.45 L62.6 44.5 62.25 43.6 61.45 40.4 61.15 39.95 58.05 38.35 Q55.85 37.4 54.0 36.15 L53.9 36.15 50.2 36.35 49.15 36.6 48.8 37.0 Q48.1 37.9 48.25 39.05 48.3 39.8 48.0 40.2 L44.45 40.2 Q43.7 40.35 43.2 40.95 L43.1 41.3 42.85 41.5 42.8 45.25 41.85 45.1 Q39.75 45.0 37.65 45.6 37.45 46.0 37.4 46.5 L37.15 48.2 Q37.0 49.9 37.65 51.45 L37.45 51.0 35.0 53.1 Q33.95 54.1 33.8 55.5 L33.8 55.55 33.8 55.65 33.95 55.9 34.15 56.2 34.2 56.25 35.0 57.6 35.8 58.6 38.95 61.55 Q42.2 64.4 45.75 66.85 48.05 68.55 50.45 69.6 L50.5 69.9 57.5 70.1 70.45 84.35 76.1 91.45 76.7 92.4 Q64.9 100.0 50.0 100.0 29.3 100.0 14.65 85.35 0.0 70.7 0.0 50.0 0.0 29.25 14.65 14.6 29.3 0.0 50.0 0.0 70.7 0.0 85.35 14.6 100.0 29.25 100.0 50.0 100.0 68.9 87.8 82.8" fill="#767676" fill-opacity="0.9764706" fill-rule="evenodd" stroke="none"/>
  </g>
</svg>
