<?xml version="1.0" encoding="UTF-8" standalone="no"?>
<svg xmlns:ffdec="https://www.free-decompiler.com/flash" xmlns:xlink="http://www.w3.org/1999/xlink" ffdec:objectType="shape" height="100.0px" width="100.0px" xmlns="http://www.w3.org/2000/svg">
  <g transform="matrix(1.0, 0.0, 0.0, 1.0, 0.0, 0.0)">
    <path d="M85.35 85.35 Q70.7 100.0 50.0 100.0 L40.7 99.2 43.4 88.4 43.4 88.15 43.25 88.0 40.6 86.85 30.6 59.85 30.45 59.7 30.25 59.65 30.1 59.75 30.0 59.95 30.0 78.1 11.85 71.55 11.6 71.55 11.45 71.75 11.45 71.95 Q10.0 70.55 8.4 69.8 L4.5 68.5 3.15 67.85 Q0.0 59.55 0.0 50.0 0.0 38.5 4.5 28.9 L15.6 25.6 29.2 40.05 29.35 40.15 29.55 40.1 29.7 40.0 29.7 39.8 27.3 22.3 29.9 19.65 30.0 19.4 30.0 4.0 Q39.15 0.0 50.0 0.0 70.7 0.0 85.35 14.6 100.0 29.25 100.0 50.0 100.0 70.7 85.35 85.35 M64.15 70.5 L65.0 71.25 66.2 72.0 74.15 72.0 74.65 71.8 74.9 71.15 74.65 70.6 74.15 70.45 66.65 70.35 Q63.3 68.15 52.0 67.85 52.3 66.7 51.15 67.0 49.95 67.35 49.95 68.25 49.95 69.35 53.7 69.6 L64.15 70.5 M66.6 51.45 L66.5 51.4 53.55 53.15 Q46.95 54.05 46.95 55.3 L46.95 55.7 Q47.4 56.15 48.3 56.15 L56.0 54.65 65.9 52.8 66.4 52.6 66.65 51.95 66.6 51.45 M42.2 40.6 Q43.75 39.65 55.1 34.15 65.75 28.5 65.75 25.8 L65.7 25.3 65.6 25.2 Q64.35 25.65 60.6 28.25 56.55 31.05 55.0 31.75 53.0 32.6 47.7 35.5 41.45 38.95 41.45 39.75 L41.65 40.4 42.2 40.6" fill="#767676" fill-opacity="0.9764706" fill-rule="evenodd" stroke="none"/>
  </g>
</svg>
