<?xml version="1.0" encoding="UTF-8" standalone="no"?>
<svg xmlns:ffdec="https://www.free-decompiler.com/flash" xmlns:xlink="http://www.w3.org/1999/xlink" ffdec:objectType="shape" height="100.0px" width="100.0px" xmlns="http://www.w3.org/2000/svg">
  <g transform="matrix(1.0, 0.0, 0.0, 1.0, 0.0, 0.0)">
    <path d="M85.35 85.35 Q70.7 100.0 50.0 100.0 29.3 100.0 14.65 85.35 10.65 81.35 7.75 76.9 L18.5 78.3 25.45 79.2 33.0 80.05 Q33.45 80.45 34.6 80.65 L38.4 80.95 39.1 81.35 39.6 81.55 44.2 81.55 Q47.35 79.5 47.85 79.5 48.8 79.5 50.45 80.8 L51.7 81.85 52.1 82.25 53.85 82.25 Q54.3 81.6 54.4 80.8 L54.4 79.3 54.25 77.4 54.15 76.95 54.05 75.9 54.85 73.4 Q55.7 71.15 55.75 68.25 55.75 66.95 56.4 65.4 L56.9 64.25 Q58.35 61.5 58.6 60.35 L60.4 51.45 60.45 51.25 60.5 50.2 60.6 44.45 60.6 39.75 Q60.6 37.25 59.5 36.2 L59.15 36.0 59.15 35.95 60.45 31.25 60.6 27.75 60.6 27.7 60.65 25.45 Q60.6 24.5 60.05 23.9 59.6 23.35 58.1 22.6 56.15 21.65 52.6 20.45 L50.75 20.3 50.4 20.25 41.55 20.25 Q41.15 20.4 40.85 20.7 40.2 21.4 40.0 22.55 L39.9 25.45 Q40.0 27.25 40.4 29.05 L40.55 29.65 Q41.85 33.85 44.55 33.85 L46.5 33.6 46.55 33.9 46.6 34.0 Q44.3 34.9 42.75 38.65 L41.95 41.0 41.35 43.3 Q40.35 47.75 40.35 52.95 40.1 55.85 40.35 58.75 L40.35 58.95 Q40.65 62.95 41.85 64.25 L41.5 64.6 38.75 62.2 Q35.35 59.3 34.1 58.05 L25.3 58.05 25.3 58.15 22.55 58.35 Q22.0 58.4 21.9 58.6 15.05 59.3 10.65 61.7 7.0 63.55 6.55 65.5 L6.1 65.35 6.25 64.45 6.2 64.1 5.95 64.05 Q4.25 64.4 3.45 68.25 L3.4 68.55 Q0.0 59.95 0.0 50.0 0.0 29.25 14.65 14.6 29.3 0.0 50.0 0.0 70.7 0.0 85.35 14.6 100.0 29.25 100.0 50.0 100.0 70.7 85.35 85.35 M35.25 44.55 Q35.55 47.5 34.7 48.85 33.75 50.35 33.75 51.35 L35.0 52.75 Q36.75 51.15 37.3 49.9 37.75 48.85 37.75 46.85 L37.6 44.95 Q37.1 43.95 35.25 44.55 M18.25 44.6 Q18.25 45.45 19.25 48.0 20.5 51.25 22.0 51.25 23.25 51.25 23.25 49.75 21.55 48.55 21.45 46.9 L21.75 44.5 Q21.45 42.4 19.85 42.7 18.25 43.0 18.25 44.6 M10.75 47.9 Q8.75 44.0 8.75 49.25 L9.0 51.75 Q9.6 54.25 11.5 54.25 L12.4 54.1 12.5 53.75 12.65 53.7 12.75 53.0 Q11.75 49.9 10.75 47.9" fill="#767676" fill-opacity="0.9764706" fill-rule="evenodd" stroke="none"/>
  </g>
</svg>
