<?xml version="1.0" encoding="UTF-8" standalone="no"?>
<svg xmlns:ffdec="https://www.free-decompiler.com/flash" xmlns:xlink="http://www.w3.org/1999/xlink" ffdec:objectType="shape" height="100.0px" width="100.0px" xmlns="http://www.w3.org/2000/svg">
  <g transform="matrix(1.0, 0.0, 0.0, 1.0, 0.0, 0.0)">
    <path d="M85.35 85.35 Q70.7 100.0 50.0 100.0 29.3 100.0 14.65 85.35 0.0 70.7 0.0 50.0 0.0 29.25 14.65 14.6 29.3 0.0 50.0 0.0 70.7 0.0 85.35 14.6 100.0 29.25 100.0 50.0 100.0 70.7 85.35 85.35 M86.55 68.35 L85.3 66.35 84.65 66.85 79.95 59.2 86.8 54.7 86.5 50.3 78.35 55.65 68.65 32.2 57.2 27.0 57.05 27.1 56.65 40.05 73.1 59.05 64.9 64.4 68.65 66.6 75.5 62.15 80.15 69.7 79.4 70.15 80.65 72.2 86.55 68.35 M37.95 56.9 L17.5 52.3 16.8 52.4 16.7 52.5 16.25 53.0 16.3 53.7 Q20.6 62.25 26.05 63.6 31.6 65.05 38.2 59.15 L38.5 58.55 38.5 58.25 38.65 57.95 38.5 57.25 37.95 56.9 M40.2 57.9 L40.35 58.25 40.35 58.5 40.65 59.15 Q47.25 65.0 52.8 63.55 58.3 62.2 62.6 53.7 L62.6 53.0 62.15 52.45 62.05 52.35 61.35 52.25 40.9 56.85 Q40.55 56.9 40.35 57.25 40.15 57.55 40.2 57.9" fill="#767676" fill-opacity="0.9764706" fill-rule="evenodd" stroke="none"/>
  </g>
</svg>
