<?xml version="1.0" encoding="UTF-8" standalone="no"?>
<svg xmlns:ffdec="https://www.free-decompiler.com/flash" xmlns:xlink="http://www.w3.org/1999/xlink" ffdec:objectType="shape" height="100.0px" width="100.0px" xmlns="http://www.w3.org/2000/svg">
  <g transform="matrix(1.0, 0.0, 0.0, 1.0, 0.0, 0.0)">
    <path d="M85.75 22.3 Q84.15 20.2 82.9 19.5 81.5 18.8 81.1 20.2 80.85 21.2 81.1 20.8 85.15 24.2 86.1 26.2 86.75 27.7 86.15 30.05 L83.95 31.75 Q81.8 33.15 81.35 34.7 80.7 37.1 82.2 38.7 85.35 42.35 87.0 45.25 84.45 46.5 80.3 47.85 78.2 48.5 77.8 49.9 77.1 52.6 79.8 56.95 82.55 61.2 82.25 62.4 81.65 64.55 77.35 65.35 72.95 66.2 72.45 68.0 71.85 70.25 74.75 74.55 L80.15 81.75 71.15 80.5 Q64.2 79.5 63.75 81.2 63.5 82.2 63.75 81.8 64.1 82.55 65.85 83.0 69.95 84.1 76.25 84.0 82.7 83.9 83.05 82.5 83.3 81.7 78.95 75.75 74.55 69.85 74.9 68.65 74.95 68.45 79.4 67.15 83.85 65.95 84.65 63.05 85.5 59.85 82.65 56.15 79.7 52.4 80.2 50.7 80.9 48.05 85.05 48.05 89.2 47.95 89.8 45.8 90.05 44.9 86.65 41.05 83.3 37.3 83.8 35.45 84.05 34.4 86.15 33.25 88.25 32.15 88.7 30.55 89.5 27.45 85.75 22.3 M85.35 85.35 Q70.7 100.0 50.0 100.0 29.3 100.0 14.65 85.35 0.0 70.7 0.0 50.0 0.0 29.25 14.65 14.6 29.3 0.0 50.0 0.0 70.7 0.0 85.35 14.6 100.0 29.25 100.0 50.0 100.0 70.7 85.35 85.35 M21.2 21.35 L21.1 20.55 20.95 20.5 Q17.65 18.35 13.4 24.55 9.7 29.85 9.7 31.85 9.7 34.75 11.15 36.1 14.25 38.95 23.95 38.8 23.5 39.75 16.2 46.6 9.7 52.75 9.7 55.85 9.7 56.65 10.05 56.95 L10.95 57.25 18.7 57.5 18.7 66.05 18.65 68.25 18.75 70.25 Q18.95 71.8 21.95 72.7 L24.95 73.5 Q25.8 75.85 25.7 81.7 25.65 84.35 25.95 86.35 L25.7 86.35 Q25.25 86.55 25.25 87.35 25.25 88.15 25.6 88.45 L26.5 88.75 26.95 89.75 28.0 89.3 28.05 88.75 34.5 88.75 36.75 86.85 36.5 86.3 34.3 85.9 28.15 86.2 28.2 81.4 28.3 78.4 28.2 74.75 Q27.9 72.7 24.65 70.95 21.35 69.2 21.2 68.5 21.1 68.1 21.3 61.5 21.4 56.9 18.95 54.75 L13.25 54.55 Q13.4 53.85 20.15 47.35 26.7 41.05 26.7 39.0 26.7 36.85 24.45 36.1 L19.45 35.5 14.45 34.9 Q12.2 34.2 12.2 32.1 12.2 30.9 16.7 26.05 L21.2 21.35 M51.0 84.0 Q60.45 79.25 67.25 69.75 72.65 46.95 73.0 25.0 L28.35 25.0 Q28.7 46.95 34.1 69.75 41.05 78.7 50.35 84.0 L51.0 84.0" fill="#767676" fill-opacity="0.9764706" fill-rule="evenodd" stroke="none"/>
  </g>
</svg>
