<?xml version="1.0" encoding="UTF-8" standalone="no"?>
<svg xmlns:ffdec="https://www.free-decompiler.com/flash" xmlns:xlink="http://www.w3.org/1999/xlink" ffdec:objectType="shape" height="100.0px" width="100.0px" xmlns="http://www.w3.org/2000/svg">
  <g transform="matrix(1.0, 0.0, 0.0, 1.0, 0.0, 0.0)">
    <path d="M85.35 85.35 Q70.7 100.0 50.0 100.0 29.3 100.0 14.65 85.35 0.0 70.7 0.0 50.0 0.0 29.25 14.65 14.6 29.3 0.0 50.0 0.0 70.7 0.0 85.35 14.6 100.0 29.25 100.0 50.0 100.0 70.7 85.35 85.35 M64.25 15.1 Q59.5 16.3 52.75 16.3 45.95 16.3 41.2 15.1 37.65 14.1 37.35 13.35 37.65 12.6 41.2 11.65 45.95 10.4 52.75 10.4 59.5 10.4 64.25 11.65 67.8 12.6 68.1 13.35 67.8 14.1 64.25 15.1 M71.0 13.35 Q71.35 10.55 65.0 8.85 59.9 7.5 52.75 7.5 45.55 7.5 40.5 8.85 L40.45 8.85 Q34.1 10.55 34.45 13.35 34.1 16.2 40.45 17.9 L40.5 17.9 Q45.55 19.2 52.75 19.2 59.9 19.2 65.0 17.9 71.35 16.2 71.0 13.35 M59.1 29.6 L58.0 29.65 Q57.45 29.95 57.25 30.5 L54.95 36.95 Q54.75 37.45 54.9 37.9 L55.45 38.65 56.3 38.9 58.1 38.9 Q59.5 42.05 58.6 47.8 57.3 49.4 51.9 49.85 L51.9 35.25 53.5 35.25 54.4 34.95 54.95 34.15 54.8 33.2 51.75 26.7 51.05 26.0 50.45 25.85 49.95 25.95 49.85 26.0 Q49.35 26.25 49.15 26.7 L46.1 33.2 Q45.85 33.65 46.0 34.15 46.1 34.65 46.5 34.95 L47.4 35.25 49.0 35.25 49.0 49.95 Q42.75 49.75 42.35 48.25 L42.15 47.6 Q40.4 44.45 42.85 38.9 L44.6 38.9 45.5 38.65 46.0 37.9 Q46.15 37.45 45.95 37.0 L43.7 30.5 42.95 29.65 41.85 29.6 Q41.3 29.8 41.0 30.35 L37.95 36.85 Q37.75 37.3 37.85 37.8 37.95 38.3 38.35 38.6 38.75 38.9 39.25 38.9 L39.7 38.9 Q37.3 45.0 39.5 48.8 39.85 52.55 49.0 52.85 L49.0 93.05 Q49.0 93.65 49.45 94.1 49.85 94.5 50.45 94.5 51.05 94.5 51.5 94.1 51.9 93.65 51.9 93.05 L51.9 52.75 Q59.9 52.15 61.3 49.05 L61.45 48.55 Q62.4 42.55 61.25 38.9 L61.65 38.9 62.55 38.6 63.1 37.8 62.95 36.85 59.9 30.35 Q59.65 29.8 59.1 29.6" fill="#767676" fill-opacity="0.9764706" fill-rule="evenodd" stroke="none"/>
  </g>
</svg>
