<?xml version="1.0" encoding="UTF-8" standalone="no"?>
<svg xmlns:ffdec="https://www.free-decompiler.com/flash" xmlns:xlink="http://www.w3.org/1999/xlink" ffdec:objectType="shape" height="100.0px" width="100.0px" xmlns="http://www.w3.org/2000/svg">
  <g transform="matrix(1.0, 0.0, 0.0, 1.0, 0.0, 0.0)">
    <path d="M75.1 69.45 L75.7 69.0 75.75 68.55 75.35 68.45 74.65 68.65 74.15 69.2 Q73.95 69.5 74.05 69.6 L74.45 69.75 75.1 69.45 M74.15 64.15 L74.8 63.95 75.35 63.5 75.4 63.05 75.05 62.95 74.35 63.15 73.85 63.6 Q73.6 63.9 73.75 64.05 L74.15 64.15 M77.6 66.4 L77.95 66.1 77.95 65.9 Q77.95 65.8 77.8 65.8 77.5 65.8 77.3 65.95 L76.95 66.2 76.9 66.5 77.2 66.55 77.6 66.4 M77.75 62.35 Q77.5 62.3 77.25 62.5 L76.9 62.75 76.8 63.0 77.15 63.1 Q77.3 63.05 77.55 62.95 L77.85 62.65 77.9 62.4 77.75 62.35 M65.95 63.5 L66.25 63.55 66.7 63.35 67.0 63.05 67.05 62.85 66.85 62.75 Q66.65 62.75 66.4 62.9 L66.05 63.15 65.95 63.5 M67.95 48.45 Q68.25 48.75 69.35 48.45 L71.1 47.2 Q72.2 46.25 72.5 45.3 72.65 44.35 72.35 44.05 72.0 43.75 71.1 44.05 70.15 44.2 69.2 45.15 68.25 46.1 67.95 47.2 67.65 48.1 67.95 48.45 M65.75 27.45 Q64.65 27.75 63.7 28.7 62.8 29.65 62.65 30.6 62.15 31.5 62.65 32.0 L63.9 32.0 65.75 30.75 Q66.7 29.8 67.0 28.85 67.15 27.9 66.85 27.6 66.55 27.15 65.75 27.45 M74.2 35.75 Q73.9 36.55 74.2 36.7 L75.15 36.7 76.25 35.9 77.05 34.65 Q77.2 34.2 76.85 34.05 76.7 33.7 76.25 33.85 75.45 34.05 75.0 34.65 L74.2 35.75 M52.3 48.25 Q56.05 45.0 57.15 40.15 L61.05 33.25 Q57.95 34.35 55.6 38.55 50.4 43.1 46.05 44.05 50.75 40.0 52.75 34.05 L62.65 19.3 52.75 30.45 Q38.05 38.25 33.35 52.5 32.4 48.1 35.7 43.6 L37.1 38.4 32.4 43.4 Q29.0 49.2 23.35 54.05 21.45 55.15 19.9 56.7 L19.45 57.2 Q15.5 61.4 15.5 67.2 15.5 73.3 19.9 77.7 24.3 82.1 30.4 82.1 36.65 82.1 41.05 77.7 43.05 75.65 44.15 73.3 52.4 67.95 63.6 65.05 L63.45 65.1 Q61.9 66.6 59.75 67.6 L58.5 68.2 58.3 68.3 Q56.75 69.3 56.25 71.05 55.75 72.95 56.75 74.65 57.75 76.35 59.65 76.85 61.6 77.35 63.3 76.4 L64.6 75.3 Q67.85 74.25 71.9 74.35 L66.85 73.75 Q68.35 72.25 70.3 72.4 72.25 72.6 76.8 70.35 73.1 71.5 71.6 71.05 L68.45 70.9 Q71.25 69.8 74.4 67.15 77.25 63.8 81.45 63.15 77.9 63.3 73.95 66.25 L69.2 68.25 Q70.6 67.55 71.35 66.1 L73.15 64.35 Q72.1 64.45 71.0 65.55 69.05 66.5 67.6 66.4 69.35 65.55 70.5 63.9 L74.8 60.15 70.8 62.75 Q65.6 64.0 63.0 68.0 63.05 66.55 64.5 65.45 L64.95 64.7 65.45 64.55 64.95 64.65 65.3 63.95 64.0 64.8 49.65 66.9 Q52.9 61.1 59.05 60.0 65.15 58.9 76.85 48.45 66.7 55.0 61.85 54.85 57.15 54.2 52.15 56.9 59.65 51.4 67.15 40.75 72.95 28.4 85.15 22.9 74.7 26.35 65.15 38.25 L52.3 48.25 M41.5 34.35 Q41.65 33.85 41.35 33.7 41.2 33.4 40.7 33.55 40.1 33.7 39.45 34.35 L38.7 35.45 Q38.35 36.2 38.7 36.55 L39.6 36.55 40.7 35.6 41.5 34.35 M56.2 13.65 L55.8 13.75 Q55.5 13.85 55.3 14.25 L55.1 15.0 55.2 15.4 55.6 15.25 56.05 14.75 56.35 14.0 56.2 13.65 M45.75 13.65 L45.85 13.25 45.8 13.05 45.6 13.05 45.25 13.4 45.1 13.75 45.2 14.1 45.5 14.05 45.75 13.65 M50.55 13.35 Q49.4 15.2 48.05 15.8 49.2 14.15 49.35 12.2 L51.15 6.85 49.05 11.05 Q45.15 14.7 44.85 19.5 44.2 18.25 44.85 16.55 L44.85 14.85 43.8 16.8 Q43.25 18.8 41.9 20.8 L41.05 21.9 40.95 22.1 Q40.1 23.7 40.6 25.45 41.1 27.35 42.8 28.35 44.5 29.35 46.4 28.85 48.35 28.35 49.35 26.6 L49.95 25.0 Q52.2 22.45 55.75 20.55 L51.1 22.55 Q51.6 20.55 53.45 19.7 55.2 18.8 57.95 14.65 55.35 17.5 53.85 17.85 52.35 18.05 51.0 19.3 52.9 17.0 54.35 13.05 55.1 8.8 58.4 6.05 55.45 8.0 53.5 12.45 L50.35 16.65 Q51.25 15.25 51.2 13.7 L51.8 11.25 Q50.95 11.85 50.55 13.35 M56.75 10.8 L56.9 10.4 56.8 10.2 56.55 10.2 Q56.35 10.3 56.25 10.55 56.1 10.75 56.1 10.9 56.05 11.2 56.15 11.2 L56.45 11.15 56.75 10.8 M53.15 9.05 Q53.0 8.9 52.8 9.05 L52.3 9.65 Q52.05 10.0 52.1 10.3 L52.2 10.75 52.6 10.65 53.05 10.05 53.3 9.4 53.15 9.05 M54.95 7.2 L54.8 7.25 54.5 7.6 54.25 8.05 54.35 8.3 54.7 8.2 55.0 7.85 55.1 7.45 54.95 7.2 M73.9 23.55 Q73.75 23.4 73.25 23.55 72.5 23.55 72.0 24.3 71.4 24.8 71.1 25.4 70.9 26.05 71.1 26.35 L72.2 26.35 73.25 25.6 74.05 24.3 Q74.2 23.7 73.9 23.55 M94.4 38.15 L95.0 37.7 95.05 37.25 94.65 37.15 93.95 37.35 93.45 37.9 Q93.25 38.2 93.35 38.3 L93.75 38.45 94.4 38.15 M85.35 31.85 L85.25 32.2 85.55 32.25 86.0 32.05 86.3 31.75 86.35 31.55 86.15 31.45 85.7 31.6 85.35 31.85 M85.05 36.55 L85.5 35.7 84.45 36.35 82.35 37.8 81.65 38.1 81.5 38.2 Q80.65 38.75 80.35 39.75 80.05 40.85 80.65 41.8 81.2 42.75 82.3 43.05 L84.35 42.8 85.1 42.15 89.25 41.65 86.4 41.3 Q87.25 40.45 88.35 40.5 89.45 40.65 92.05 39.35 L89.1 39.75 87.3 39.65 Q88.9 39.05 90.7 37.5 92.3 35.6 94.7 35.25 92.7 35.35 90.45 37.0 L87.7 38.15 88.95 36.95 89.95 35.95 Q89.35 36.0 88.75 36.6 87.65 37.15 86.8 37.1 L88.45 35.65 90.9 33.55 88.65 35.0 Q85.65 35.75 84.2 38.0 84.2 37.2 85.05 36.55 M96.9 35.1 L97.25 34.8 97.25 34.6 97.1 34.5 Q96.8 34.5 96.6 34.65 L96.25 34.9 Q96.1 35.1 96.2 35.2 L96.5 35.25 96.9 35.1 M96.5 31.25 L96.2 31.45 96.1 31.7 96.45 31.8 96.7 31.7 Q100.0 40.15 100.0 50.0 100.0 70.7 85.35 85.35 70.7 100.0 50.0 100.0 29.3 100.0 14.65 85.35 0.0 70.7 0.0 50.0 0.0 29.25 14.65 14.6 29.3 0.0 50.0 0.0 70.7 0.0 85.35 14.6 92.85 22.1 96.5 31.25 M94.35 31.65 L93.65 31.85 Q93.3 32.1 93.15 32.3 92.9 32.6 93.05 32.75 L93.45 32.85 94.1 32.65 94.65 32.2 94.7 31.75 94.35 31.65" fill="#767676" fill-opacity="0.9764706" fill-rule="evenodd" stroke="none"/>
  </g>
</svg>
