<?xml version="1.0" encoding="UTF-8" standalone="no"?>
<svg xmlns:ffdec="https://www.free-decompiler.com/flash" xmlns:xlink="http://www.w3.org/1999/xlink" ffdec:objectType="shape" height="100.0px" width="100.0px" xmlns="http://www.w3.org/2000/svg">
  <g transform="matrix(1.0, 0.0, 0.0, 1.0, 0.0, 0.0)">
    <path d="M83.5 42.85 L83.5 31.5 78.1 31.5 78.1 37.6 72.1 37.6 72.1 28.35 29.5 28.35 29.5 38.25 22.1 38.25 22.1 32.1 16.75 32.1 16.75 43.5 22.1 43.5 22.1 39.25 29.5 39.25 29.5 76.0 72.1 76.0 72.1 38.6 78.1 38.6 78.1 42.85 83.5 42.85 M85.35 85.35 Q70.7 100.0 50.0 100.0 29.3 100.0 14.65 85.35 0.0 70.7 0.0 50.0 0.0 29.25 14.65 14.6 29.3 0.0 50.0 0.0 70.7 0.0 85.35 14.6 100.0 29.25 100.0 50.0 100.0 70.7 85.35 85.35" fill="#767676" fill-opacity="0.9764706" fill-rule="evenodd" stroke="none"/>
    <path d="M52.75 47.0 Q52.75 50.1 50.6 52.25 48.45 54.35 45.4 54.35 42.35 54.35 40.2 52.25 38.05 50.1 38.05 47.0 38.05 43.95 40.2 41.8 42.35 39.65 45.4 39.65 48.45 39.65 50.6 41.8 52.75 43.95 52.75 47.0 M63.6 48.2 Q64.55 49.15 64.55 50.45 64.55 51.7 63.6 52.65 62.7 53.6 61.4 53.6 60.1 53.6 59.15 52.65 58.25 51.7 58.25 50.45 58.25 49.15 59.15 48.2 60.1 47.25 61.4 47.25 62.7 47.25 63.6 48.2" fill="#747474" fill-opacity="0.9764706" fill-rule="evenodd" stroke="none"/>
    <path d="M54.45 67.8 L54.45 66.1 49.15 64.2 50.05 67.45 M44.65 59.25 L44.65 62.6 49.15 64.2 48.45 61.8 M44.65 66.2 L44.65 62.6 37.1 59.9 M54.45 62.1 L54.45 66.1 58.85 67.7 58.85 63.35 M62.65 69.05 L58.85 67.7 58.85 70.95" fill="none" stroke="#747474" stroke-linecap="round" stroke-linejoin="round" stroke-width="1.0"/>
  </g>
</svg>
