<?xml version="1.0" encoding="UTF-8" standalone="no"?>
<svg xmlns:ffdec="https://www.free-decompiler.com/flash" xmlns:xlink="http://www.w3.org/1999/xlink" ffdec:objectType="shape" height="100.0px" width="100.0px" xmlns="http://www.w3.org/2000/svg">
  <g transform="matrix(1.0, 0.0, 0.0, 1.0, 0.0, 0.0)">
    <path d="M85.35 85.35 Q70.7 100.0 50.0 100.0 29.3 100.0 14.65 85.35 0.0 70.7 0.0 50.0 0.0 29.25 14.65 14.6 29.3 0.0 50.0 0.0 70.7 0.0 85.35 14.6 100.0 29.25 100.0 50.0 100.0 70.7 85.35 85.35 M27.1 46.45 L27.15 46.45 27.15 46.7 27.1 46.45 22.65 46.45 Q18.8 28.55 22.65 13.2 9.75 31.2 21.65 50.2 L39.8 50.2 18.3 55.85 Q11.5 76.55 28.4 89.85 20.9 76.65 22.4 60.05 L26.2 57.3 24.5 57.7 28.1 56.8 28.2 56.75 Q24.75 76.55 41.6 89.8 34.05 76.55 33.35 59.0 35.1 56.3 36.6 54.5 L38.15 54.1 39.65 53.65 40.55 53.4 41.9 53.05 42.1 53.0 42.6 52.9 Q41.25 58.4 41.25 65.35 41.25 75.15 43.9 82.1 46.6 89.0 50.4 89.0 54.2 89.0 56.85 82.1 59.55 75.15 59.55 65.35 59.55 61.05 59.05 57.25 L58.9 56.45 58.7 55.1 58.3 53.4 58.25 53.1 59.3 53.4 59.35 53.4 59.6 53.45 60.5 53.7 62.0 54.15 63.55 54.55 66.8 59.05 Q66.1 76.6 58.55 89.85 75.4 76.6 71.95 56.8 L72.05 56.85 75.65 57.75 73.95 57.35 77.75 60.1 Q79.25 76.7 71.75 89.9 88.65 76.6 81.85 55.9 L60.35 50.25 78.5 50.25 Q90.4 31.25 77.5 13.25 81.35 28.6 77.5 46.5 L73.05 46.5 Q77.6 27.65 64.75 9.75 68.6 25.1 64.75 43.0 L53.45 43.0 52.4 42.3 54.9 40.65 Q56.85 38.75 56.85 36.05 56.85 33.35 54.9 31.4 53.0 29.5 50.3 29.5 47.6 29.5 45.65 31.4 43.75 33.35 43.75 36.05 43.75 38.75 45.65 40.65 46.85 41.85 48.35 42.3 L47.45 42.95 35.4 42.95 Q31.55 25.05 35.4 9.7 22.55 27.6 27.1 46.45 M73.0 46.5 L73.05 46.5 73.0 46.75 73.0 46.5" fill="#767676" fill-opacity="0.9764706" fill-rule="evenodd" stroke="none"/>
  </g>
</svg>
