<?xml version="1.0" encoding="UTF-8" standalone="no"?>
<svg xmlns:ffdec="https://www.free-decompiler.com/flash" xmlns:xlink="http://www.w3.org/1999/xlink" ffdec:objectType="shape" height="100.0px" width="100.0px" xmlns="http://www.w3.org/2000/svg">
  <g transform="matrix(1.0, 0.0, 0.0, 1.0, 0.0, 0.0)">
    <path d="M85.35 85.35 Q70.7 100.0 50.0 100.0 29.3 100.0 14.65 85.35 0.0 70.7 0.0 50.0 0.0 29.25 14.65 14.6 29.3 0.0 50.0 0.0 70.7 0.0 85.35 14.6 100.0 29.25 100.0 50.0 100.0 70.7 85.35 85.35 M68.1 38.6 Q70.7 41.15 70.7 44.75 70.7 48.3 68.1 50.8 65.6 53.4 62.0 53.4 58.45 53.4 55.9 50.8 53.35 48.3 53.35 44.75 53.35 41.15 55.9 38.6 58.45 36.05 62.0 36.05 65.6 36.05 68.1 38.6 M47.9 44.75 Q47.9 48.3 45.35 50.8 42.8 53.4 39.25 53.4 35.7 53.4 33.1 50.8 30.6 48.3 30.6 44.75 30.6 41.15 33.1 38.6 35.7 36.05 39.25 36.05 42.8 36.05 45.35 38.6 47.9 41.15 47.9 44.75 M74.05 27.15 Q64.05 20.25 49.9 20.25 35.75 20.25 25.75 27.15 15.75 34.15 15.75 44.0 15.75 53.85 25.75 60.75 28.85 62.95 32.35 64.45 29.6 67.4 29.0 71.1 L28.85 73.1 28.9 74.1 38.75 74.1 38.75 68.4 41.2 68.4 41.2 74.1 47.65 74.1 47.65 67.7 49.9 67.75 50.9 67.75 50.9 74.1 57.3 74.1 57.3 68.15 59.8 68.15 59.8 74.1 69.45 74.1 69.45 73.1 69.3 71.1 Q68.75 67.7 66.35 64.9 70.5 63.3 74.05 60.75 84.05 53.85 84.05 44.0 84.05 34.15 74.05 27.15 M53.15 57.6 Q54.1 58.15 54.1 58.85 54.1 59.55 53.15 60.05 52.2 60.55 50.9 60.55 L48.6 60.05 Q47.65 59.55 47.65 58.85 47.65 58.15 48.6 57.6 49.55 57.1 50.9 57.1 52.2 57.1 53.15 57.6" fill="#767676" fill-opacity="0.9764706" fill-rule="evenodd" stroke="none"/>
  </g>
</svg>
