<?xml version="1.0" encoding="UTF-8" standalone="no"?>
<svg xmlns:ffdec="https://www.free-decompiler.com/flash" xmlns:xlink="http://www.w3.org/1999/xlink" ffdec:objectType="shape" height="100.0px" width="100.0px" xmlns="http://www.w3.org/2000/svg">
  <g transform="matrix(1.0, 0.0, 0.0, 1.0, 0.0, 0.0)">
    <path d="M85.35 85.35 Q70.7 100.0 50.0 100.0 29.3 100.0 14.65 85.35 0.0 70.7 0.0 50.0 0.0 29.25 14.65 14.6 29.3 0.0 50.0 0.0 70.7 0.0 85.35 14.6 100.0 29.25 100.0 50.0 100.0 70.7 85.35 85.35 M55.45 34.35 L54.8 34.75 Q52.25 29.2 46.45 27.45 39.6 25.45 30.35 32.9 28.75 34.2 29.7 38.05 L26.95 43.85 15.35 52.7 25.55 49.65 28.8 58.0 30.4 59.2 35.3 85.65 41.3 66.85 51.55 58.0 50.35 55.25 52.7 51.05 54.2 46.85 55.45 45.7 56.4 44.7 Q56.45 43.5 57.35 42.25 59.4 39.35 65.9 36.2 L68.65 34.9 69.85 33.75 75.9 27.45 82.55 19.15 Q79.25 22.2 75.9 24.65 72.9 26.8 69.85 28.4 L65.9 30.3 60.45 32.15 Q58.0 32.95 55.95 34.05 L55.45 34.35" fill="#767676" fill-opacity="0.9764706" fill-rule="evenodd" stroke="none"/>
    <path d="M38.4 43.8 Q32.2 48.9 30.2 42.25 L30.2 42.05 43.65 38.4 Q41.15 41.45 39.05 43.3 L38.4 43.8" fill="#747474" fill-opacity="0.9764706" fill-rule="evenodd" stroke="none"/>
  </g>
</svg>
