<?xml version="1.0" encoding="UTF-8" standalone="no"?>
<svg xmlns:ffdec="https://www.free-decompiler.com/flash" xmlns:xlink="http://www.w3.org/1999/xlink" ffdec:objectType="shape" height="100.0px" width="100.0px" xmlns="http://www.w3.org/2000/svg">
  <g transform="matrix(1.0, 0.0, 0.0, 1.0, 0.0, 0.0)">
    <path d="M85.35 85.35 Q70.7 100.0 50.0 100.0 29.3 100.0 14.65 85.35 0.0 70.7 0.0 50.0 0.0 29.25 14.65 14.6 29.3 0.0 50.0 0.0 70.7 0.0 85.35 14.6 100.0 29.25 100.0 50.0 100.0 70.7 85.35 85.35 M68.55 65.3 Q85.25 68.95 92.2 55.85 76.2 57.55 69.7 47.2 65.75 40.95 65.25 30.35 L56.95 45.45 Q52.45 41.45 51.2 32.75 L51.3 32.3 51.2 32.75 Q44.75 43.15 46.8 55.8 48.55 65.35 42.8 65.2 40.65 65.4 39.2 65.15 34.75 64.3 36.2 59.0 46.55 36.55 30.45 27.1 14.3 17.6 6.95 43.7 23.5 35.35 26.05 53.15 22.95 62.55 30.65 64.7 L28.35 78.5 Q31.85 71.1 35.85 68.4 L38.5 68.85 Q49.4 71.05 47.35 78.35 L58.0 70.8 70.9 76.5 71.3 75.6 67.6 68.75 68.55 65.3 M71.4 76.7 L70.9 76.5 71.4 76.7 M66.15 48.7 L66.65 49.25 Q67.35 50.25 67.35 51.5 67.35 53.2 66.15 54.4 65.0 55.6 63.35 55.6 61.65 55.6 60.45 54.4 59.25 53.2 59.25 51.5 59.25 49.85 60.45 48.7 61.65 47.45 63.35 47.45 65.0 47.45 66.15 48.7" fill="#767676" fill-opacity="0.9764706" fill-rule="evenodd" stroke="none"/>
    <path d="M51.2 32.75 Q52.45 41.45 56.95 45.45 L65.25 30.35 Q65.75 40.95 69.7 47.2 76.2 57.55 92.2 55.85 85.25 68.95 68.55 65.3 L65.35 64.45 Q57.2 62.25 52.5 51.5 M67.6 68.75 L71.3 75.6 M70.9 76.5 L71.4 76.7 M51.3 32.3 L51.2 32.75 Q44.75 43.15 46.8 55.8 48.55 65.35 42.8 65.2 40.65 65.4 39.2 65.15 34.75 64.3 36.2 59.0 46.55 36.55 30.45 27.1 14.3 17.6 6.95 43.7 23.5 35.35 26.05 53.15 22.95 62.55 30.65 64.7 L28.35 78.5 Q31.85 71.1 35.85 68.4 L38.5 68.85 Q49.4 71.05 47.35 78.35 L58.0 70.8 70.9 76.5 M66.15 48.7 L66.65 49.25 Q67.35 50.25 67.35 51.5 67.35 53.2 66.15 54.4 65.0 55.6 63.35 55.6 61.65 55.6 60.45 54.4 59.25 53.2 59.25 51.5 59.25 49.85 60.45 48.7 61.65 47.45 63.35 47.45 65.0 47.45 66.15 48.7 Z" fill="none" stroke="#747474" stroke-linecap="round" stroke-linejoin="round" stroke-width="1.0"/>
  </g>
</svg>
