<?xml version="1.0" encoding="UTF-8" standalone="no"?>
<svg xmlns:ffdec="https://www.free-decompiler.com/flash" xmlns:xlink="http://www.w3.org/1999/xlink" ffdec:objectType="shape" height="100.0px" width="100.0px" xmlns="http://www.w3.org/2000/svg">
  <g transform="matrix(1.0, 0.0, 0.0, 1.0, 0.0, 0.0)">
    <path d="M85.35 85.35 Q70.7 100.0 50.0 100.0 29.3 100.0 14.65 85.35 0.0 70.7 0.0 50.0 0.0 29.25 14.65 14.6 29.3 0.0 50.0 0.0 70.7 0.0 85.35 14.6 100.0 29.25 100.0 50.0 100.0 70.7 85.35 85.35 M70.65 48.1 L58.1 15.5 47.65 47.75 47.65 48.1 39.0 48.3 30.75 49.05 39.0 49.8 48.3 50.05 Q46.9 50.8 45.55 51.85 39.85 56.4 39.85 62.8 39.85 69.2 45.55 73.7 51.3 78.25 59.4 78.25 67.5 78.25 73.25 73.7 79.0 69.2 79.0 62.8 79.0 56.4 73.25 51.85 L70.5 50.0 78.7 49.8 86.95 49.05 78.7 48.3 70.65 48.1 M16.15 39.1 L16.2 39.3 17.7 44.15 17.85 44.4 18.15 44.5 23.4 45.25 40.95 75.55 41.25 75.8 41.65 75.75 41.9 75.45 41.85 75.0 24.2 44.45 24.05 44.25 23.8 44.2 18.65 43.45 17.3 39.2 Q18.95 36.4 21.15 36.15 24.25 36.6 25.1 38.3 25.5 39.75 25.0 40.4 L24.85 40.8 25.05 41.15 25.45 41.3 25.8 41.15 Q26.75 40.2 26.15 37.95 L26.15 37.85 Q25.15 35.6 21.25 35.05 L21.15 35.05 20.9 35.05 Q18.2 35.3 16.2 38.85 L16.15 39.1" fill="#767676" fill-opacity="0.9764706" fill-rule="evenodd" stroke="none"/>
    <path d="M73.45 61.75 Q73.45 64.2 71.75 65.9 70.05 67.6 67.65 67.6 65.2 67.6 63.55 65.9 61.85 64.2 61.85 61.75 61.85 59.35 63.55 57.65 65.2 55.95 67.65 55.95 70.05 55.95 71.75 57.65 73.45 59.35 73.45 61.75 M55.8 57.65 Q57.5 59.35 57.5 61.75 57.5 64.2 55.8 65.9 54.1 67.6 51.7 67.6 49.25 67.6 47.6 65.9 45.85 64.2 45.85 61.75 45.85 59.35 47.6 57.65 49.25 55.95 51.7 55.95 54.1 55.95 55.8 57.65" fill="#747474" fill-opacity="0.9764706" fill-rule="evenodd" stroke="none"/>
  </g>
</svg>
