<?xml version="1.0" encoding="UTF-8" standalone="no"?>
<svg xmlns:ffdec="https://www.free-decompiler.com/flash" xmlns:xlink="http://www.w3.org/1999/xlink" ffdec:objectType="shape" height="100.0px" width="100.0px" xmlns="http://www.w3.org/2000/svg">
  <g transform="matrix(1.0, 0.0, 0.0, 1.0, 0.0, 0.0)">
    <path d="M87.25 35.2 Q90.1 32.35 91.65 29.85 93.25 27.4 92.6 26.7 91.95 26.05 89.45 27.6 86.95 29.25 84.1 32.1 81.2 35.0 79.65 37.4 78.3 39.55 78.65 40.35 L76.8 42.55 75.85 42.8 75.85 42.75 72.2 28.6 64.6 28.6 64.6 29.05 62.1 43.55 48.1 40.25 53.8 49.7 53.5 49.9 Q47.4 54.2 47.4 60.3 47.4 64.1 49.8 67.2 51.25 69.0 53.5 70.65 59.65 74.9 68.3 74.9 76.95 74.9 83.05 70.65 89.2 66.35 89.2 60.3 L89.15 59.5 Q88.8 53.95 83.05 49.9 L82.05 49.2 87.5 39.0 86.95 39.45 77.75 42.25 79.0 40.75 79.9 40.7 81.9 39.6 Q84.4 38.1 87.25 35.2 M85.35 85.35 Q70.7 100.0 50.0 100.0 29.3 100.0 14.65 85.35 10.25 80.95 7.2 76.0 0.0 64.5 0.0 50.0 0.0 29.25 14.65 14.6 20.1 9.15 26.4 5.75 37.0 0.0 50.0 0.0 63.0 0.0 73.6 5.75 79.9 9.15 85.35 14.6 100.0 29.25 100.0 50.0 100.0 64.5 92.85 76.0 89.75 80.95 85.35 85.35 M49.7 44.15 L48.9 43.4 Q35.85 38.35 28.5 40.0 24.0 41.0 23.5 45.15 23.15 47.15 24.0 50.05 L14.75 38.0 15.65 37.35 15.75 37.15 15.7 37.0 15.55 36.85 13.35 35.85 13.1 35.9 13.0 35.95 12.9 36.15 12.9 38.9 13.0 39.05 13.15 39.15 13.35 39.1 14.3 38.35 23.85 50.85 Q18.95 48.5 15.35 49.8 10.1 51.35 9.9 72.95 9.85 73.55 10.25 73.95 10.65 74.3 11.2 74.35 11.8 74.35 12.15 73.95 L12.55 73.2 30.45 59.55 35.5 66.15 35.5 68.5 38.75 72.75 38.95 72.9 39.1 72.8 39.25 72.7 39.25 72.55 38.95 70.35 41.2 71.3 41.35 71.25 41.5 71.2 41.55 71.0 41.55 70.85 38.35 66.65 38.2 66.55 36.0 65.95 35.95 65.9 30.95 59.2 48.25 46.0 49.0 45.9 49.7 45.15 Q49.9 44.65 49.7 44.15 M29.1 42.6 Q35.7 41.3 47.65 45.8 L30.6 58.75 27.95 55.3 28.35 54.7 28.25 53.75 Q25.85 48.5 26.2 45.5 26.55 43.15 29.1 42.6 M27.05 55.7 L27.5 55.65 30.15 59.15 12.6 72.5 Q12.85 53.95 16.25 52.4 20.1 51.25 25.9 55.2 L25.95 55.2 26.2 55.4 27.05 55.7" fill="#767676" fill-opacity="0.9764706" fill-rule="evenodd" stroke="none"/>
    <path d="M86.15 57.65 L86.55 57.55 Q79.15 63.4 74.8 62.75 70.55 62.05 69.35 54.85 L69.45 54.8 85.9 57.85 86.05 57.75 86.15 57.65 M66.95 54.8 Q65.8 61.95 61.55 62.7 57.2 63.35 49.8 57.5 L50.2 57.55 50.3 57.65 50.45 57.75 66.9 54.7 66.95 54.8" fill="#747474" fill-opacity="0.9764706" fill-rule="evenodd" stroke="none"/>
  </g>
</svg>
