<?xml version="1.0" encoding="UTF-8" standalone="no"?>
<svg xmlns:ffdec="https://www.free-decompiler.com/flash" xmlns:xlink="http://www.w3.org/1999/xlink" ffdec:objectType="shape" height="100.0px" width="100.0px" xmlns="http://www.w3.org/2000/svg">
  <g transform="matrix(1.0, 0.0, 0.0, 1.0, 0.0, 0.0)">
    <path d="M89.35 38.75 L89.35 37.5 Q82.95 36.15 72.3 35.65 L68.35 35.05 Q67.1 34.45 67.1 32.9 L67.15 31.3 67.15 31.0 Q67.3 29.0 67.85 28.0 L67.85 23.25 Q60.85 26.75 52.3 30.45 L50.35 31.3 44.2 33.75 43.15 31.3 42.25 28.75 Q40.5 23.75 39.6 23.75 37.65 23.75 33.2 31.3 L33.05 31.5 Q28.5 39.25 27.45 39.25 25.5 39.25 24.05 37.25 22.3 34.85 19.1 34.0 19.55 36.2 23.1 42.5 L30.2 54.6 29.9 57.25 29.7 56.6 Q29.3 55.45 28.7 55.45 28.1 55.45 27.7 56.6 27.3 57.75 27.3 59.35 27.3 60.95 27.7 62.1 28.1 63.25 28.7 63.25 29.3 63.25 29.7 62.1 L30.0 60.95 Q30.75 67.35 35.5 72.1 L37.05 73.5 Q42.2 77.75 49.1 77.75 57.05 77.75 62.7 72.1 67.3 67.5 68.2 61.35 L68.45 62.5 Q68.85 63.65 69.45 63.65 70.05 63.65 70.45 62.5 70.85 61.35 70.85 59.75 70.85 58.15 70.45 57.0 70.05 55.85 69.45 55.85 68.85 55.85 68.45 57.0 L68.35 57.45 68.15 55.65 72.5 50.95 76.6 47.0 82.7 43.55 Q85.75 41.9 89.35 38.75 M85.35 85.35 Q70.7 100.0 50.0 100.0 29.35 100.0 14.65 85.35 0.0 70.7 0.0 50.0 0.0 29.3 14.65 14.65 29.35 0.0 50.0 0.0 70.7 0.0 85.35 14.65 100.0 29.3 100.0 50.0 100.0 70.7 85.35 85.35" fill="#747474" fill-opacity="0.9764706" fill-rule="evenodd" stroke="none"/>
    <path d="M89.35 38.75 Q85.75 41.9 82.7 43.55 L76.6 47.0 72.5 50.95 68.15 55.65 68.35 57.45 68.45 57.0 Q68.85 55.85 69.45 55.85 70.05 55.85 70.45 57.0 70.85 58.15 70.85 59.75 70.85 61.35 70.45 62.5 70.05 63.65 69.45 63.65 68.85 63.65 68.45 62.5 L68.2 61.35 Q67.3 67.5 62.7 72.1 57.05 77.75 49.1 77.75 42.2 77.75 37.05 73.5 L35.5 72.1 Q30.75 67.35 30.0 60.95 L29.7 62.1 Q29.3 63.25 28.7 63.25 28.1 63.25 27.7 62.1 27.3 60.95 27.3 59.35 27.3 57.75 27.7 56.6 28.1 55.45 28.7 55.45 29.3 55.45 29.7 56.6 L29.9 57.25 30.2 54.6 23.1 42.5 Q19.55 36.2 19.1 34.0 22.3 34.85 24.05 37.25 25.5 39.25 27.45 39.25 28.5 39.25 33.05 31.5 L33.2 31.3 Q37.65 23.75 39.6 23.75 40.5 23.75 42.25 28.75 L43.15 31.3 44.2 33.75 50.35 31.3 52.3 30.45 Q60.85 26.75 67.85 23.25 L67.85 28.0 Q67.3 29.0 67.15 31.0 L67.15 31.3 67.1 32.9 Q67.1 34.45 68.35 35.05 L72.3 35.65 Q82.95 36.15 89.35 37.5 L89.35 38.75" fill="#ffffff" fill-opacity="0.34901962" fill-rule="evenodd" stroke="none"/>
  </g>
</svg>
