<?xml version="1.0" encoding="UTF-8" standalone="no"?>
<svg xmlns:ffdec="https://www.free-decompiler.com/flash" xmlns:xlink="http://www.w3.org/1999/xlink" ffdec:objectType="shape" height="100.0px" width="100.0px" xmlns="http://www.w3.org/2000/svg">
  <g transform="matrix(1.0, 0.0, 0.0, 1.0, 0.0, 0.0)">
    <path d="M85.35 85.35 Q70.7 100.0 50.0 100.0 29.3 100.0 14.65 85.35 0.0 70.7 0.0 50.0 0.0 29.25 14.65 14.6 29.3 0.0 50.0 0.0 70.7 0.0 85.35 14.6 100.0 29.25 100.0 50.0 100.0 70.7 85.35 85.35 M48.55 38.25 Q47.65 34.4 48.85 30.8 L45.95 33.6 46.2 32.35 Q48.55 18.7 39.75 27.4 L37.55 25.1 38.3 28.3 Q25.95 31.65 39.3 36.3 L40.5 36.75 36.85 38.25 Q40.3 38.9 42.75 41.65 55.65 60.0 67.2 79.5 L69.0 78.45 Q57.35 57.9 48.55 38.25" fill="#767676" fill-opacity="0.9764706" fill-rule="evenodd" stroke="none"/>
  </g>
</svg>
