<?xml version="1.0" encoding="UTF-8" standalone="no"?>
<svg xmlns:ffdec="https://www.free-decompiler.com/flash" xmlns:xlink="http://www.w3.org/1999/xlink" ffdec:objectType="shape" height="327.15px" width="192.35px" xmlns="http://www.w3.org/2000/svg">
  <g transform="matrix(1.0, 0.0, 0.0, 1.0, 90.95, 66.1)">
    <path d="M14.35 -64.75 Q19.5 -63.6 24.55 -54.4 29.55 -45.2 27.75 -36.35 25.95 -27.55 24.55 -17.2 23.1 -6.85 16.6 -5.25 12.45 -0.9 14.45 3.05 L49.45 5.05 84.45 115.05 Q92.9 114.35 101.4 122.05 L80.45 122.05 43.95 39.8 Q38.05 71.35 35.45 103.7 34.9 117.3 36.25 127.05 L74.45 252.05 Q87.9 252.85 98.4 261.05 L54.45 261.05 5.25 143.45 -44.0 261.0 -87.95 261.0 Q-77.45 252.8 -64.0 252.0 L-25.8 127.0 Q-24.45 117.25 -25.0 103.65 -27.6 71.3 -33.5 39.75 L-70.0 122.0 -90.95 122.0 Q-82.45 114.3 -74.0 115.0 L-37.75 5.0 -4.0 3.0 Q-2.0 -0.95 -6.15 -5.3 -12.6 -6.8 -14.45 -16.5 -16.3 -26.2 -17.6 -39.85 -18.9 -53.5 -12.0 -59.4 -5.1 -65.3 -1.2 -65.75 L5.95 -66.05 Q9.2 -65.9 14.35 -64.75" fill="#767676" fill-opacity="0.9764706" fill-rule="evenodd" stroke="none"/>
  </g>
</svg>
