<?xml version="1.0" encoding="UTF-8" standalone="no"?>
<svg xmlns:ffdec="https://www.free-decompiler.com/flash" xmlns:xlink="http://www.w3.org/1999/xlink" ffdec:objectType="shape" height="100.15px" width="100.15px" xmlns="http://www.w3.org/2000/svg">
  <g transform="matrix(1.0, 0.0, 0.0, 1.0, 0.05, 0.05)">
    <path d="M91.8 30.95 Q91.4 30.1 90.4 29.65 66.85 20.6 53.6 23.5 45.55 25.3 44.55 32.75 44.0 36.45 45.45 41.7 L28.85 19.9 30.45 18.7 30.65 18.4 30.6 18.1 30.35 17.85 26.25 16.1 25.9 16.15 25.65 16.25 Q25.5 16.35 25.5 16.55 L25.5 21.55 25.65 21.85 Q25.75 22.05 25.95 22.0 L26.25 21.9 28.05 20.5 45.25 43.1 Q36.45 38.8 30.0 41.2 20.45 44.0 20.1 82.9 20.05 84.0 20.75 84.7 21.5 85.35 22.45 85.4 23.5 85.45 24.15 84.7 24.8 84.15 24.9 83.35 L57.2 58.8 66.25 70.65 66.25 74.7 66.3 74.95 72.1 82.55 72.45 82.75 72.75 82.65 72.95 82.5 73.0 82.2 72.5 78.25 76.5 79.9 76.8 79.85 77.05 79.7 77.15 79.4 77.1 79.15 71.35 71.55 71.05 71.4 67.2 70.35 67.15 70.25 67.05 70.2 58.0 58.15 89.25 34.35 90.55 34.2 Q91.4 33.85 91.8 32.75 92.2 31.9 91.8 30.95 M99.15 59.35 Q95.3 79.7 78.15 91.35 61.0 103.0 40.65 99.15 20.35 95.3 8.7 78.2 -2.95 61.05 0.9 40.7 4.75 20.35 21.9 8.7 39.0 -2.95 59.3 0.9 79.65 4.75 91.35 21.85 103.0 39.0 99.15 59.35 M49.45 33.45 Q50.05 29.25 54.65 28.25 66.65 25.9 88.1 34.0 L57.35 57.35 52.65 51.15 53.35 50.0 Q53.5 49.1 53.2 48.35 48.85 38.8 49.45 33.45 M50.95 51.85 L51.8 51.7 56.6 58.0 24.95 82.1 Q25.45 48.6 31.6 45.85 38.45 43.8 48.95 50.9 L49.0 50.95 49.45 51.3 Q50.05 51.85 50.95 51.85" fill="#767676" fill-opacity="0.9764706" fill-rule="evenodd" stroke="none"/>
  </g>
</svg>
