<?xml version="1.0" encoding="UTF-8" standalone="no"?>
<svg xmlns:ffdec="https://www.free-decompiler.com/flash" xmlns:xlink="http://www.w3.org/1999/xlink" ffdec:objectType="shape" height="20.05px" width="22.25px" xmlns="http://www.w3.org/2000/svg">
  <g transform="matrix(1.0, 0.0, 0.0, 1.0, -8.6, -10.5)">
    <path d="M27.25 11.85 L27.3 12.1 27.05 12.5 26.7 12.75 26.35 12.75 26.35 12.45 26.65 12.1 27.05 11.85 27.25 11.85 M28.25 15.4 L28.0 15.8 27.65 16.05 27.35 16.05 27.35 15.75 27.6 15.4 Q27.75 15.2 28.0 15.15 L28.2 15.2 28.25 15.4 M26.75 18.4 L26.8 18.8 26.35 19.4 25.8 19.8 25.35 19.8 25.35 19.4 25.75 18.75 26.35 18.4 26.75 18.4 M23.65 14.1 L24.0 13.5 24.65 13.1 25.0 13.15 25.05 13.55 24.65 14.15 24.05 14.55 23.65 14.55 Q23.5 14.4 23.65 14.1 M23.15 14.95 L21.9 17.15 Q21.55 18.7 20.35 19.75 L24.45 16.55 Q27.5 12.75 30.85 11.65 26.95 13.4 25.1 17.35 22.7 20.75 20.3 22.5 21.9 21.65 23.4 21.85 24.95 21.9 28.2 19.8 24.45 23.15 22.5 23.5 20.55 23.85 19.5 25.7 L24.55 24.95 Q20.6 25.9 17.75 27.75 L16.75 29.15 Q15.35 30.55 13.35 30.55 11.4 30.55 10.0 29.15 8.6 27.75 8.6 25.8 8.6 23.95 9.85 22.6 L10.0 22.45 11.1 21.6 Q12.9 20.05 14.0 18.2 L15.5 16.6 15.05 18.25 Q14.0 19.7 14.3 21.1 15.8 16.55 20.5 14.05 L23.65 10.5 20.5 15.2 Q19.85 17.1 18.35 18.4 19.75 18.1 21.4 16.65 22.15 15.3 23.15 14.95 M16.25 15.3 L16.65 15.05 16.85 15.1 16.9 15.3 16.65 15.7 16.3 16.0 16.0 16.0 16.0 15.65 16.25 15.3" fill="#ffffff" fill-rule="evenodd" stroke="none"/>
  </g>
</svg>
