<?xml version="1.0" encoding="UTF-8" standalone="no"?>
<svg xmlns:ffdec="https://www.free-decompiler.com/flash" xmlns:xlink="http://www.w3.org/1999/xlink" ffdec:objectType="shape" height="231.5px" width="231.5px" xmlns="http://www.w3.org/2000/svg">
  <g transform="matrix(1.0, 0.0, 0.0, 1.0, 0.5, 0.5)">
    <path d="M168.0 0.0 L218.75 0.0 Q230.5 0.0 230.5 11.75 L230.5 218.75 Q230.5 230.5 218.75 230.5 L11.75 230.5 Q0.0 230.5 0.0 218.75 L0.0 11.75 Q0.0 0.0 11.75 0.0 L57.0 0.0 57.0 53.25 Q57.0 65.0 68.75 65.0 L156.25 65.0 Q168.0 65.0 168.0 53.25 L168.0 0.0 M90.0 8.0 L93.05 8.0 Q95.0 8.0 95.0 9.95 L95.0 51.05 Q95.0 53.0 93.05 53.0 L78.95 53.0 Q77.0 53.0 77.0 51.05 L77.0 9.95 Q77.0 8.0 78.95 8.0 L82.0 8.0 82.0 13.05 Q82.0 15.0 83.95 15.0 L88.05 15.0 Q90.0 15.0 90.0 13.05 L90.0 8.0 90.0 13.05 Q90.0 15.0 88.05 15.0 L83.95 15.0 Q82.0 15.0 82.0 13.05 L82.0 8.0 82.0 1.95 Q82.0 0.0 83.95 0.0 L88.05 0.0 Q90.0 0.0 90.0 1.95 L90.0 8.0 M107.5 77.0 Q93.2 77.0 83.1 87.1 73.0 97.2 73.0 111.5 73.0 125.8 83.1 135.9 93.2 146.0 107.5 146.0 121.8 146.0 131.9 135.9 142.0 125.8 142.0 111.5 142.0 97.2 131.9 87.1 121.8 77.0 107.5 77.0 M33.05 201.0 L15.95 201.0 Q14.0 201.0 14.0 202.95 L14.0 213.05 Q14.0 215.0 15.95 215.0 L33.05 215.0 Q35.0 215.0 35.0 213.05 L35.0 202.95 Q35.0 201.0 33.05 201.0 M212.05 201.0 L194.95 201.0 Q193.0 201.0 193.0 202.95 L193.0 213.05 Q193.0 215.0 194.95 215.0 L212.05 215.0 Q214.0 215.0 214.0 213.05 L214.0 202.95 Q214.0 201.0 212.05 201.0" fill="#747474" fill-rule="evenodd" stroke="none"/>
    <path d="M57.0 0.0 L11.75 0.0 Q0.0 0.0 0.0 11.75 L0.0 218.75 Q0.0 230.5 11.75 230.5 L218.75 230.5 Q230.5 230.5 230.5 218.75 L230.5 11.75 Q230.5 0.0 218.75 0.0 L168.0 0.0 M82.0 8.0 L78.95 8.0 Q77.0 8.0 77.0 9.95 L77.0 51.05 Q77.0 53.0 78.95 53.0 L93.05 53.0 Q95.0 53.0 95.0 51.05 L95.0 9.95 Q95.0 8.0 93.05 8.0 L90.0 8.0 90.0 13.05 Q90.0 15.0 88.05 15.0 L83.95 15.0 Q82.0 15.0 82.0 13.05 L82.0 8.0 82.0 1.95 Q82.0 0.0 83.95 0.0 L88.05 0.0 Q90.0 0.0 90.0 1.95 L90.0 8.0 M107.5 77.0 Q121.8 77.0 131.9 87.1 142.0 97.2 142.0 111.5 142.0 125.8 131.9 135.9 121.8 146.0 107.5 146.0 93.2 146.0 83.1 135.9 73.0 125.8 73.0 111.5 73.0 97.2 83.1 87.1 93.2 77.0 107.5 77.0 M33.05 201.0 L15.95 201.0 Q14.0 201.0 14.0 202.95 L14.0 213.05 Q14.0 215.0 15.95 215.0 L33.05 215.0 Q35.0 215.0 35.0 213.05 L35.0 202.95 Q35.0 201.0 33.05 201.0 Z" fill="none" stroke="#747474" stroke-linecap="round" stroke-linejoin="round" stroke-opacity="0.85882354" stroke-width="1.0"/>
  </g>
</svg>
