<?xml version="1.0" encoding="UTF-8" standalone="no"?>
<svg xmlns:ffdec="https://www.free-decompiler.com/flash" xmlns:xlink="http://www.w3.org/1999/xlink" ffdec:objectType="shape" height="242.25px" width="400.8px" xmlns="http://www.w3.org/2000/svg">
  <g transform="matrix(1.0, 0.0, 0.0, 1.0, 0.0, 0.0)">
    <path d="M325.5 4.1 L331.95 5.0 Q333.95 5.35 335.2 5.9 L336.95 7.0 Q337.9 7.6 338.55 8.95 339.3 10.4 339.95 11.0 342.5 13.45 347.0 16.5 L355.0 22.05 Q365.4 29.95 373.8 44.0 L380.45 54.2 Q384.7 60.55 386.8 65.0 388.4 68.3 389.65 72.3 L391.8 80.0 394.9 91.75 Q397.6 102.2 398.7 107.55 400.8 117.6 400.8 125.0 400.8 130.8 394.9 138.65 L394.4 139.3 Q388.35 147.1 381.8 147.95 L378.8 148.0 378.8 148.9 362.65 147.5 345.8 146.0 341.1 146.2 334.95 146.0 Q332.95 145.8 331.3 144.45 329.65 143.1 327.95 143.0 L297.95 141.0 293.65 140.95 Q290.75 140.9 288.95 141.0 286.7 141.0 286.1 141.6 285.25 142.5 283.95 147.0 L282.9 146.9 Q282.05 154.45 277.25 162.5 L267.95 177.0 Q265.6 181.0 264.05 188.15 263.05 192.9 260.95 193.0 260.45 193.0 260.5 196.6 260.5 201.05 259.95 203.0 L255.7 213.7 Q252.0 222.65 250.95 226.0 L249.65 234.8 Q249.1 238.4 247.15 242.25 L153.65 242.25 Q151.7 238.4 151.15 234.8 L149.85 226.0 145.1 213.7 140.85 203.0 Q140.3 201.05 140.3 196.6 140.35 193.0 139.85 193.0 137.75 192.9 136.75 188.15 135.2 181.0 132.85 177.0 126.45 167.4 123.55 162.5 118.75 154.45 117.95 146.9 L116.85 147.0 Q115.55 142.5 114.7 141.6 114.1 141.0 111.85 141.0 110.05 140.9 107.15 140.95 L102.85 141.0 72.85 143.0 Q71.15 143.1 69.5 144.45 67.85 145.8 65.85 146.0 L59.7 146.2 55.0 146.0 38.15 147.5 19.0 149.0 19.0 147.95 Q12.45 147.1 6.4 139.3 L5.9 138.65 Q0.0 130.8 0.0 125.0 0.0 117.6 2.1 107.55 3.2 102.2 5.9 91.75 L9.0 80.0 11.15 72.3 Q12.4 68.3 14.0 65.0 16.1 60.55 20.35 54.2 L27.0 44.0 Q35.4 29.95 45.8 22.05 L53.8 16.5 Q58.3 13.45 60.85 11.0 L62.25 8.95 Q62.9 7.6 63.85 7.0 L65.6 5.9 Q66.85 5.35 68.85 5.0 L75.3 4.1 80.85 3.0 94.85 0.0 Q104.1 0.0 111.8 7.95 119.85 16.25 119.85 27.0 119.85 31.75 117.55 36.25 114.65 41.85 109.85 42.0 L97.9 41.55 89.35 41.0 Q82.75 41.0 70.9 54.7 64.95 61.6 59.85 69.0 53.8 76.15 51.3 86.15 L50.3 91.0 Q46.65 96.3 47.0 105.0 L49.0 104.0 Q49.4 96.5 50.3 91.0 53.05 87.05 58.0 85.0 69.2 79.9 71.0 79.3 L79.35 79.0 88.35 79.65 Q90.3 80.45 97.85 87.0 100.05 88.95 102.45 92.45 L105.85 90.0 109.05 87.45 112.85 84.0 Q115.85 83.0 116.85 83.0 117.6 80.65 118.85 80.0 120.65 79.1 123.5 78.7 L129.85 78.0 142.85 77.0 Q145.45 76.8 146.4 75.55 147.4 74.2 148.85 74.0 L154.5 74.3 157.85 75.0 162.85 74.0 166.85 74.0 176.4 65.0 Q166.95 56.45 166.95 44.5 166.95 32.3 176.75 23.65 186.55 15.0 200.45 15.0 214.35 15.0 224.15 23.65 233.95 32.3 233.95 44.5 233.95 56.5 224.5 65.05 L233.95 74.0 237.95 74.0 242.95 75.0 246.3 74.3 251.95 74.0 Q253.4 74.2 254.4 75.55 255.35 76.8 257.95 77.0 L270.95 78.0 277.3 78.7 Q280.15 79.1 281.95 80.0 283.2 80.65 283.95 83.0 284.95 83.0 287.95 84.0 290.2 86.25 291.75 87.45 L294.95 90.0 298.35 92.45 Q300.75 88.95 302.95 87.0 310.5 80.45 312.45 79.65 L321.45 79.0 329.8 79.3 Q331.6 79.9 342.8 85.0 347.75 87.05 350.5 91.0 351.4 96.5 351.8 104.0 L353.8 105.0 Q354.15 96.3 350.5 91.0 L349.5 86.15 348.65 83.2 348.6 83.05 348.55 82.9 Q346.0 74.95 340.95 69.0 335.85 61.6 329.9 54.7 318.05 41.0 311.45 41.0 L302.9 41.55 290.95 42.0 Q286.15 41.85 283.25 36.25 280.95 31.75 280.95 27.0 280.95 16.25 289.0 7.95 296.7 0.0 305.95 0.0 313.15 0.0 319.95 3.0 L325.5 4.1" fill="#767676" fill-opacity="0.9764706" fill-rule="evenodd" stroke="none"/>
  </g>
</svg>
