<?xml version="1.0" encoding="UTF-8" standalone="no"?>
<svg xmlns:ffdec="https://www.free-decompiler.com/flash" xmlns:xlink="http://www.w3.org/1999/xlink" ffdec:objectType="shape" height="25.15px" width="33.0px" xmlns="http://www.w3.org/2000/svg">
  <g transform="matrix(1.0, 0.0, 0.0, 1.0, -0.25, 3.25)">
    <path d="M21.35 12.2 Q20.65 12.8 20.2 12.45 19.75 12.15 19.8 11.0 L19.85 10.25 20.35 8.65 Q20.65 7.9 21.1 7.4 L21.55 6.8 Q22.2 6.25 22.65 6.55 23.1 6.9 23.1 8.0 L22.55 10.4 Q22.05 11.6 21.35 12.2 M16.75 4.5 Q17.05 6.3 16.55 7.8 16.15 9.35 15.15 9.65 14.15 9.95 13.15 8.9 12.3 7.9 12.0 6.05 11.6 4.25 12.05 2.7 12.5 1.2 13.45 0.85 14.45 0.5 15.45 1.6 16.4 2.7 16.75 4.5 M4.25 5.6 Q4.3 4.2 5.15 3.65 L7.3 3.8 Q8.55 4.5 9.45 6.0 10.3 7.5 10.25 8.9 10.25 10.35 9.35 10.85 L7.2 10.7 Q5.95 10.0 5.1 8.5 4.2 7.0 4.25 5.6 M2.45 11.3 Q3.6 11.5 4.55 12.5 5.55 13.45 5.7 14.55 5.95 15.7 5.3 16.3 4.65 16.95 3.6 16.7 2.5 16.45 1.5 15.55 0.55 14.6 0.3 13.45 0.05 12.35 0.7 11.7 1.3 11.1 2.45 11.3 M8.75 15.0 Q10.25 13.15 12.9 12.45 L17.75 12.6 Q20.0 13.45 20.5 15.3 21.0 17.15 19.5 19.0 18.0 20.85 15.35 21.55 12.7 22.25 10.5 21.45 8.25 20.55 7.75 18.7 7.25 16.85 8.75 15.0" fill="#747474" fill-rule="evenodd" stroke="none"/>
    <path d="M26.25 1.5 L29.0 1.5 29.0 -1.75 M31.75 1.5 L29.0 1.5 29.0 4.5" fill="none" stroke="#666666" stroke-linecap="round" stroke-linejoin="round" stroke-opacity="0.85882354" stroke-width="3.0"/>
  </g>
</svg>
