<?xml version="1.0" encoding="UTF-8" standalone="no"?>
<svg xmlns:ffdec="https://www.free-decompiler.com/flash" xmlns:xlink="http://www.w3.org/1999/xlink" ffdec:objectType="shape" height="40.0px" width="40.0px" xmlns="http://www.w3.org/2000/svg">
  <g transform="matrix(1.0, 0.0, 0.0, 1.0, 0.0, 0.0)">
    <path d="M18.0 30.2 L21.35 30.2 21.35 16.25 18.0 16.25 18.0 30.2 M22.0 11.75 Q22.0 10.8 21.35 10.15 20.7 9.5 19.75 9.5 18.8 9.5 18.15 10.15 17.5 10.8 17.5 11.75 17.5 12.7 18.15 13.35 18.8 14.0 19.75 14.0 20.7 14.0 21.35 13.35 22.0 12.7 22.0 11.75 M40.0 0.0 L40.0 40.0 0.0 40.0 0.0 0.0 40.0 0.0" fill="#ffffff" fill-opacity="0.5529412" fill-rule="evenodd" stroke="none"/>
    <path d="M22.0 11.75 Q22.0 12.7 21.35 13.35 20.7 14.0 19.75 14.0 18.8 14.0 18.15 13.35 17.5 12.7 17.5 11.75 17.5 10.8 18.15 10.15 18.8 9.5 19.75 9.5 20.7 9.5 21.35 10.15 22.0 10.8 22.0 11.75 M18.0 30.2 L18.0 16.25 21.35 16.25 21.35 30.2 18.0 30.2" fill="#747474" fill-opacity="0.9372549" fill-rule="evenodd" stroke="none"/>
  </g>
</svg>
