<?xml version="1.0" encoding="UTF-8" standalone="no"?>
<svg xmlns:ffdec="https://www.free-decompiler.com/flash" xmlns:xlink="http://www.w3.org/1999/xlink" ffdec:objectType="shape" height="58.8px" width="18.6px" xmlns="http://www.w3.org/2000/svg">
  <g transform="matrix(1.0, 0.0, 0.0, 1.0, 0.0, 0.0)">
    <path d="M11.05 4.6 L7.55 4.6 Q5.05 4.6 5.05 7.1 L5.05 15.7 0.0 15.7 0.0 5.45 Q0.0 0.0 5.45 0.0 L13.15 0.0 Q18.6 0.0 18.6 5.45 L18.6 26.75 Q18.6 30.65 14.75 30.65 L12.0 30.65 Q10.9 30.65 10.9 32.5 L10.9 41.15 5.85 41.15 5.85 30.15 Q5.85 26.05 8.9 26.05 L12.35 26.05 Q13.55 26.05 13.55 24.75 L13.55 7.1 Q13.55 4.6 11.05 4.6 M10.9 58.8 L5.85 58.8 5.85 51.25 10.9 51.25 10.9 58.8" fill="#747474" fill-opacity="0.9764706" fill-rule="evenodd" stroke="none"/>
  </g>
</svg>
