<?xml version="1.0" encoding="UTF-8" standalone="no"?>
<svg xmlns:ffdec="https://www.free-decompiler.com/flash" xmlns:xlink="http://www.w3.org/1999/xlink" ffdec:objectType="shape" height="25.25px" width="27.0px" xmlns="http://www.w3.org/2000/svg">
  <g transform="matrix(1.0, 0.0, 0.0, 1.0, 0.0, 2.25)">
    <path d="M8.4 5.9 L8.35 5.9 Q8.1 6.0 8.1 6.4 L8.1 6.7 8.1 6.8 Q8.1 7.45 8.75 7.6 L8.85 7.55 9.0 7.6 9.4 7.4 9.6 6.85 9.6 6.65 9.55 6.45 9.6 6.1 Q9.5 5.9 9.0 5.6 L8.6 5.65 8.4 5.9 M17.2 2.25 L18.45 3.85 Q14.05 6.3 8.05 10.45 L3.3 4.4 1.85 2.75 2.25 2.25 Q4.55 0.0 7.8 0.0 L11.7 0.0 Q14.95 0.0 17.2 2.25 M18.1 5.2 L18.95 4.8 Q19.5 6.15 19.5 7.8 L19.5 15.2 Q19.5 18.45 17.2 20.7 14.95 23.0 11.7 23.0 L7.8 23.0 Q4.55 23.0 2.25 20.7 0.0 18.45 0.0 15.2 L0.0 7.8 Q0.0 5.4 1.25 3.55 L7.75 11.6 8.15 11.45 8.5 11.85 9.0 11.65 Q10.4 9.15 18.1 5.2" fill="#747474" fill-rule="evenodd" stroke="none"/>
    <path d="M25.5 2.25 L23.0 2.25 23.0 4.75 M20.5 2.25 L23.0 2.25 23.0 -0.75" fill="none" stroke="#666666" stroke-linecap="round" stroke-linejoin="round" stroke-opacity="0.85882354" stroke-width="3.0"/>
  </g>
</svg>
