<?xml version="1.0" encoding="UTF-8" standalone="no"?>
<svg xmlns:ffdec="https://www.free-decompiler.com/flash" xmlns:xlink="http://www.w3.org/1999/xlink" ffdec:objectType="shape" height="100.0px" width="100.0px" xmlns="http://www.w3.org/2000/svg">
  <g transform="matrix(1.0, 0.0, 0.0, 1.0, 0.0, 0.0)">
    <path d="M85.35 85.35 Q70.7 100.0 50.0 100.0 29.3 100.0 14.65 85.35 0.0 70.7 0.0 50.0 0.0 29.25 14.65 14.6 29.3 0.0 50.0 0.0 70.7 0.0 85.35 14.6 100.0 29.25 100.0 50.0 100.0 70.7 85.35 85.35 M64.65 56.3 L71.4 60.9 22.25 60.9 60.15 39.05 64.65 56.3 M83.15 53.6 L81.05 45.2 69.9 33.45 72.35 32.0 69.2 26.5 65.35 28.7 54.55 17.25 58.55 32.85 Q38.95 44.85 19.3 56.8 L22.25 60.9 17.0 60.9 31.0 67.2 31.5 67.2 31.5 71.05 46.9 80.2 38.25 86.0 71.5 86.0 61.4 80.2 80.2 60.9 71.4 60.9 83.15 53.6" fill="#767676" fill-opacity="0.9764706" fill-rule="evenodd" stroke="none"/>
    <path d="M83.15 53.6 L71.4 60.9 80.2 60.9 61.4 80.2 71.5 86.0 38.25 86.0 46.9 80.2 31.5 71.05 31.5 67.2 31.0 67.2 17.0 60.9 22.25 60.9 19.3 56.8 Q38.95 44.85 58.55 32.85 L54.55 17.25 65.35 28.7 69.2 26.5 72.35 32.0 69.9 33.45 81.05 45.2 83.15 53.6 M64.65 56.3 L60.15 39.05 22.25 60.9 71.4 60.9 64.65 56.3" fill="#ffffff" fill-opacity="0.11764706" fill-rule="evenodd" stroke="none"/>
  </g>
</svg>
