<?xml version="1.0" encoding="UTF-8" standalone="no"?>
<svg xmlns:ffdec="https://www.free-decompiler.com/flash" xmlns:xlink="http://www.w3.org/1999/xlink" ffdec:objectType="shape" height="100.0px" width="100.0px" xmlns="http://www.w3.org/2000/svg">
  <g transform="matrix(1.0, 0.0, 0.0, 1.0, 0.0, 0.0)">
    <path d="M85.35 85.35 Q70.7 100.0 50.0 100.0 29.3 100.0 14.65 85.35 0.0 70.7 0.0 50.0 0.0 29.25 14.65 14.6 29.3 0.0 50.0 0.0 70.7 0.0 85.35 14.6 100.0 29.25 100.0 50.0 100.0 70.7 85.35 85.35 M48.75 34.8 Q48.75 36.1 49.55 37.85 50.25 39.6 50.25 42.15 L50.15 43.85 51.5 43.75 Q53.25 44.9 57.6 46.95 61.3 49.0 62.3 51.2 63.45 53.9 66.2 56.0 69.15 58.15 69.85 59.2 L69.65 59.9 69.35 60.3 68.35 60.4 Q61.1 57.65 60.05 53.05 59.85 52.15 58.85 51.25 L58.65 51.1 Q57.6 50.2 55.8 49.4 51.5 47.65 50.7 46.45 L48.75 46.3 47.6 46.85 Q44.85 47.55 44.85 52.35 L41.4 58.45 Q38.1 63.9 38.45 66.05 38.85 68.15 34.45 70.6 L34.55 70.95 Q41.8 80.3 51.4 85.75 L52.1 85.75 Q55.15 84.3 57.85 82.35 56.4 78.9 53.65 70.8 53.65 68.4 54.85 64.1 L56.6 57.05 Q57.7 51.55 58.25 51.65 L58.55 52.35 Q59.05 54.1 59.05 58.9 59.05 60.8 57.6 64.9 56.1 68.9 56.1 70.7 56.1 71.25 57.85 76.65 L59.45 81.15 Q64.75 76.95 68.95 70.95 L71.4 59.4 Q74.75 41.65 74.95 24.5 L51.7 24.5 Q51.6 27.35 50.25 29.2 48.75 31.3 48.75 34.8 M47.0 28.85 L49.35 24.5 28.55 24.5 Q28.95 43.65 32.9 63.5 L33.95 68.5 Q36.0 67.15 36.0 65.95 L35.55 64.6 Q35.05 63.8 35.05 63.25 35.05 61.05 38.75 56.25 40.55 53.8 42.4 51.85 42.4 51.45 41.6 50.8 40.7 49.9 40.45 49.1 41.4 47.15 44.85 45.3 L46.3 44.4 46.3 44.1 46.6 43.85 47.0 43.85 Q47.8 42.95 47.8 42.05 46.3 35.8 46.3 34.5 46.3 30.2 47.0 28.85" fill="#767676" fill-opacity="0.9764706" fill-rule="evenodd" stroke="none"/>
  </g>
</svg>
