<?xml version="1.0" encoding="UTF-8" standalone="no"?>
<svg xmlns:ffdec="https://www.free-decompiler.com/flash" xmlns:xlink="http://www.w3.org/1999/xlink" ffdec:objectType="shape" height="122.0px" width="172.25px" xmlns="http://www.w3.org/2000/svg">
  <g transform="matrix(1.0, 0.0, 0.0, 1.0, 0.0, 0.0)">
    <path d="M165.25 109.3 Q169.75 105.85 169.75 101.5 169.75 100.2 165.9 98.4 L157.4 94.7 Q145.0 89.0 145.0 82.1 145.0 77.5 147.5 72.45 150.0 67.4 150.0 61.85 150.0 59.25 148.3 57.8 147.45 57.1 144.5 55.75 139.0 53.25 139.0 47.75 139.0 44.8 139.15 44.1 139.55 41.9 141.25 41.25 141.25 46.95 146.75 52.15 L150.55 55.95 Q152.25 58.1 152.25 60.35 152.25 64.2 149.75 70.95 147.25 77.7 147.25 80.6 147.25 87.9 159.75 93.0 L168.35 96.3 Q172.25 97.9 172.25 99.25 172.25 103.65 170.15 106.05 168.65 107.7 165.25 109.3 M132.75 7.25 L133.55 7.55 136.0 8.25 135.4 9.3 133.25 9.75 129.6 9.45 119.75 8.75 116.75 5.1 Q114.95 2.85 113.75 2.25 112.05 2.8 110.5 3.5 L114.25 0.0 Q116.05 0.25 118.75 3.05 L122.0 6.75 132.75 7.25 M91.25 21.5 Q93.75 18.25 97.65 14.6 92.5 23.05 90.0 26.0 L89.0 25.75 89.0 21.5 Q85.65 21.5 71.2 23.55 55.65 25.75 54.0 27.0 L49.0 26.75 Q50.75 25.75 90.25 19.0 91.8 19.0 91.7 19.95 L91.25 21.5 M97.25 34.1 Q106.8 26.9 136.0 24.25 L115.6 28.55 Q106.5 30.5 102.5 32.25 97.55 34.45 95.55 38.1 93.5 41.85 93.5 48.9 93.5 51.95 100.0 56.75 99.55 58.05 95.5 63.1 92.25 67.15 92.25 71.75 92.25 73.7 92.6 78.8 92.5 83.6 90.25 86.75 L89.0 86.75 Q89.85 84.15 89.55 79.85 L89.0 72.65 Q89.05 63.85 97.75 59.0 L93.15 53.05 Q91.0 50.45 91.0 49.25 91.0 44.1 91.95 41.25 93.3 37.05 97.25 34.1 M17.0 66.5 L0.0 65.75 Q4.0 61.15 6.65 58.45 11.55 53.45 14.0 53.25 12.8 55.15 8.55 59.0 L3.25 63.75 19.25 64.25 19.95 66.5 20.25 69.5 Q20.25 70.65 18.75 72.9 17.25 75.15 17.25 76.25 17.25 77.4 18.75 79.65 20.25 81.9 20.25 83.0 20.25 86.15 19.15 87.55 14.45 93.55 13.0 95.75 L12.0 95.75 Q13.7 90.5 16.2 88.65 18.0 87.3 18.0 84.5 18.0 83.8 16.5 80.75 15.0 77.65 15.0 77.0 15.0 75.95 16.5 73.6 18.0 71.3 18.0 70.6 L17.7 68.2 17.0 66.5 M140.0 122.0 L138.0 121.75 Q142.25 119.2 148.85 116.6 144.3 119.05 140.0 122.0" fill="#ffffff" fill-opacity="0.9764706" fill-rule="evenodd" stroke="none"/>
  </g>
</svg>
