<?xml version="1.0" encoding="UTF-8" standalone="no"?>
<svg xmlns:ffdec="https://www.free-decompiler.com/flash" xmlns:xlink="http://www.w3.org/1999/xlink" ffdec:objectType="shape" height="179.0px" width="239.0px" xmlns="http://www.w3.org/2000/svg">
  <g transform="matrix(1.0, 0.0, 0.0, 1.0, 69.0, 89.0)">
    <path d="M25.0 -24.25 Q40.8 -26.25 65.35 -16.15 75.65 -11.95 81.75 -7.55 88.25 -2.9 87.25 0.0 L87.25 13.5 Q117.55 17.55 133.9 22.85 140.75 25.0 150.2 28.95 L170.0 37.25 165.0 44.75 Q142.4 46.55 135.65 48.1 132.3 48.9 121.0 53.75 127.3 49.5 129.55 48.3 132.75 46.6 136.25 45.85 141.2 44.85 165.25 42.5 L167.5 38.75 Q158.4 36.5 144.55 31.4 L121.4 22.7 Q94.9 12.95 87.0 16.0 83.55 13.4 84.4 7.15 84.85 3.75 86.0 -2.25 86.0 -2.8 79.4 -6.2 72.1 -9.95 63.45 -13.6 38.8 -24.0 26.0 -24.0 L25.0 -24.25 M160.15 -88.8 L166.0 -88.0 Q165.0 -86.5 165.0 -86.0 L164.7 -86.35 162.5 -86.75 155.25 -86.5 Q152.0 -81.95 144.5 -64.6 137.7 -49.0 137.0 -49.0 135.45 -49.0 133.45 -49.95 L130.5 -51.5 120.5 -51.5 116.1 -41.9 112.0 -33.0 111.0 -33.25 Q110.25 -37.0 114.1 -43.7 116.4 -47.75 121.25 -54.0 131.2 -54.6 133.9 -52.95 L135.4 -51.85 Q136.25 -51.35 138.0 -51.5 146.85 -74.65 155.25 -89.0 L160.15 -88.8 M2.95 77.75 Q1.75 74.7 -1.5 70.35 -4.75 65.9 -5.95 63.05 -8.0 58.25 -8.0 51.5 L-8.0 51.25 -16.5 52.2 -22.0 53.0 Q-24.25 52.2 -24.8 48.65 -25.0 47.5 -25.0 43.75 -25.4 40.3 -25.3 38.05 -25.15 33.95 -22.75 33.25 L-22.75 50.5 -15.55 49.95 -5.75 49.25 Q-6.35 58.45 -4.45 62.85 -3.15 65.8 0.1 67.5 4.0 69.5 4.95 70.65 7.25 73.4 7.25 79.75 7.25 86.5 6.0 90.0 L5.0 89.75 Q5.0 82.75 2.95 77.75 M-14.0 -59.75 L-15.0 -58.25 Q-16.25 -58.25 -17.0 -60.5 -22.1 -57.15 -21.85 -49.95 L-21.8 -44.35 Q-22.1 -41.2 -24.0 -39.0 L-35.5 -39.25 Q-34.95 -34.7 -35.0 -32.1 -35.15 -27.3 -40.0 -26.0 L-66.0 -25.5 Q-61.6 -16.2 -61.05 -14.5 -60.75 -13.5 -60.75 -6.35 -60.75 0.75 -62.0 3.0 L-66.6 -12.65 Q-69.0 -21.65 -69.0 -26.1 -69.0 -27.65 -68.45 -27.9 L-67.75 -28.0 -38.5 -28.5 Q-38.0 -32.25 -38.0 -42.0 L-36.2 -41.9 -33.25 -41.25 Q-27.8 -41.25 -25.45 -44.35 -23.95 -46.35 -23.15 -51.25 -22.25 -56.65 -21.25 -58.55 -19.4 -62.1 -14.75 -62.75 -14.0 -60.5 -14.0 -59.75" fill="#747474" fill-opacity="0.9764706" fill-rule="evenodd" stroke="none"/>
  </g>
</svg>
