<?xml version="1.0" encoding="UTF-8" standalone="no"?>
<svg xmlns:ffdec="https://www.free-decompiler.com/flash" xmlns:xlink="http://www.w3.org/1999/xlink" ffdec:objectType="shape" height="100.0px" width="100.0px" xmlns="http://www.w3.org/2000/svg">
  <g transform="matrix(1.0, 0.0, 0.0, 1.0, 0.0, 0.0)">
    <path d="M81.3 69.0 L81.3 57.25 34.55 57.25 31.05 48.25 38.55 44.0 30.3 44.0 24.05 36.0 24.05 43.8 19.85 42.6 21.85 45.15 13.55 49.5 21.2 48.45 19.05 52.5 24.3 49.7 24.3 57.25 17.55 57.25 29.55 69.0 35.55 69.0 35.55 78.0 31.05 78.0 28.3 82.25 83.05 82.25 80.3 78.0 75.3 78.0 75.3 69.0 81.3 69.0 M85.35 85.35 Q70.7 100.0 50.0 100.0 29.3 100.0 14.65 85.35 0.0 70.7 0.0 50.0 0.0 29.25 14.65 14.6 29.3 0.0 50.0 0.0 70.7 0.0 85.35 14.6 100.0 29.25 100.0 50.0 100.0 70.7 85.35 85.35 M61.2 24.95 Q62.6 23.55 61.0 21.95 L55.0 15.95 Q53.45 14.4 52.05 15.8 L44.8 23.05 42.35 20.6 40.2 22.75 42.65 25.2 34.85 33.0 Q33.45 34.4 35.0 35.95 L41.0 41.95 Q42.6 43.55 44.0 42.15 L51.8 34.35 74.05 56.6 76.15 54.45 53.95 32.2 61.2 24.95 M34.55 57.25 L25.4 57.25 27.3 51.5 34.55 57.25" fill="#767676" fill-opacity="0.9764706" fill-rule="evenodd" stroke="none"/>
  </g>
</svg>
