<?xml version="1.0" encoding="UTF-8" standalone="no"?>
<svg xmlns:ffdec="https://www.free-decompiler.com/flash" xmlns:xlink="http://www.w3.org/1999/xlink" ffdec:objectType="shape" height="100.0px" width="100.0px" xmlns="http://www.w3.org/2000/svg">
  <g transform="matrix(1.0, 0.0, 0.0, 1.0, 0.0, 0.0)">
    <path d="M78.05 14.55 Q78.5 15.0 78.5 15.55 L75.2 23.15 Q71.65 30.9 70.9 34.1 L69.75 38.7 68.75 43.4 68.25 46.0 69.1 47.6 Q70.4 50.4 70.85 53.05 L73.25 56.95 75.65 61.1 75.6 61.35 75.5 61.5 75.2 61.55 Q74.25 61.55 73.0 59.6 L73.6 61.45 73.35 61.55 Q73.15 61.55 72.45 59.7 L72.05 58.65 71.85 58.7 Q71.35 58.7 70.7 57.35 L70.8 57.65 Q71.3 58.85 72.15 59.65 L72.15 59.85 71.95 59.95 71.7 59.85 72.3 61.3 72.25 61.5 72.05 61.55 Q71.85 61.55 71.65 61.35 72.55 62.9 73.45 62.85 L73.5 62.95 Q73.5 63.2 73.1 63.2 71.65 63.2 70.75 60.65 L70.5 60.8 Q70.1 60.8 69.8 59.95 L69.4 58.7 69.25 58.3 69.05 58.3 68.55 58.0 69.5 60.75 69.5 61.5 69.3 61.55 69.05 61.55 69.0 61.25 Q68.2 60.9 67.2 58.15 L66.45 56.05 66.45 57.25 Q67.45 60.4 67.7 64.45 L67.8 71.25 67.6 75.4 67.05 79.25 Q66.75 80.45 64.45 82.9 61.55 86.0 58.95 86.0 L58.1 85.75 58.05 85.5 60.0 84.7 63.7 82.75 62.1 83.2 61.9 83.15 61.85 82.95 61.9 82.75 Q64.55 81.85 65.65 80.15 L65.65 80.05 66.1 78.65 66.35 77.7 66.35 77.2 66.3 75.35 66.15 75.3 66.25 75.0 66.15 74.3 66.05 73.95 66.0 73.95 65.8 73.55 65.65 73.65 65.15 72.3 65.1 72.0 65.1 72.3 65.45 75.1 65.6 77.3 65.55 79.15 64.95 80.05 64.2 80.7 64.05 80.65 63.95 80.45 64.45 79.75 65.1 78.8 65.1 77.95 Q64.85 78.5 64.05 78.5 L63.75 78.4 Q63.85 78.0 64.2 77.9 L64.7 77.45 64.7 76.5 64.3 74.5 64.25 74.45 64.5 76.05 64.5 76.8 64.35 76.9 64.05 76.85 63.3 71.45 63.2 71.15 62.75 69.6 62.65 69.3 Q63.4 73.25 63.4 75.75 L63.35 79.0 62.95 79.15 Q62.4 78.25 62.45 76.55 L62.45 73.7 61.9 71.2 61.3 68.4 Q61.0 65.95 60.1 62.65 59.4 60.15 59.4 57.7 59.4 56.3 59.9 53.5 55.6 56.5 50.15 56.5 43.0 56.5 37.95 51.45 L37.8 51.3 37.65 51.2 37.0 54.1 37.0 55.75 37.15 57.2 37.0 59.45 37.0 64.5 Q35.9 67.9 34.55 70.0 33.95 70.95 33.95 73.65 33.95 76.15 36.45 79.3 38.95 82.55 42.35 84.2 L42.3 84.5 Q42.2 84.7 41.9 84.7 39.75 84.7 35.2 79.25 L34.6 78.5 34.8 79.0 Q35.5 80.55 36.15 81.3 L37.9 83.45 Q39.2 84.85 40.8 85.5 L40.8 85.7 40.55 85.85 Q39.25 85.85 37.5 83.95 L35.85 81.8 34.45 79.4 33.55 77.55 Q33.55 77.05 33.7 77.05 L33.4 76.35 33.15 75.55 33.15 77.0 Q33.9 78.2 34.35 79.75 L34.25 79.8 34.4 80.0 39.5 86.7 39.4 87.0 39.05 87.15 36.85 84.45 33.75 80.2 30.8 76.2 Q30.5 75.6 30.5 73.15 L30.6 71.25 31.85 68.15 31.85 62.25 31.35 63.4 Q30.45 65.5 29.5 65.5 L29.15 65.35 29.15 65.1 Q29.25 64.9 29.8 64.95 L31.1 62.1 Q31.45 61.2 31.85 60.9 L31.85 59.15 31.6 59.95 Q30.65 62.4 29.3 63.65 L28.95 63.55 Q28.8 63.45 28.8 63.1 L29.05 62.55 28.85 62.35 29.6 61.15 30.3 59.75 30.15 60.05 29.8 59.8 30.2 58.9 30.6 58.15 30.6 57.95 25.85 65.15 25.5 65.05 Q25.35 65.0 25.35 64.65 25.35 64.2 28.35 59.95 L28.95 58.85 28.0 59.95 27.85 59.75 27.45 60.45 27.15 60.2 27.35 59.45 Q26.0 62.4 24.3 64.2 L23.95 64.1 Q23.8 64.0 23.8 63.7 L25.95 60.0 Q28.25 56.2 28.8 53.8 L30.0 48.7 Q30.65 46.3 31.65 44.65 L31.3 42.7 30.3 38.0 29.15 33.4 Q28.4 30.2 24.85 22.5 21.5 15.3 21.5 14.85 21.5 14.35 22.0 13.85 L23.8 18.15 Q24.95 20.95 27.55 22.1 30.85 23.5 33.35 25.6 35.2 27.15 35.8 28.45 L36.65 26.95 Q41.1 19.6 48.4 19.7 49.65 20.25 50.2 20.95 50.7 21.25 50.7 21.95 L50.7 22.05 50.75 22.05 51.9 21.0 Q53.95 19.4 55.55 19.9 L56.05 19.8 Q56.95 19.85 58.25 20.9 60.3 22.65 61.05 24.5 L61.05 24.55 63.2 28.0 64.2 29.35 Q64.7 27.95 66.7 26.25 69.2 24.2 72.5 22.8 75.1 21.65 76.25 18.85 L78.05 14.55 M42.65 22.15 L42.5 22.25 42.65 22.2 42.65 22.15 M61.55 26.4 L61.4 26.1 61.4 26.2 61.45 26.3 61.55 26.4 M67.3 48.15 L67.4 48.15 67.45 47.95 67.35 48.05 67.3 48.15 M65.5 48.6 L65.45 48.85 65.5 48.8 65.5 48.6 M67.3 56.35 L67.6 57.15 67.85 57.85 67.5 56.7 67.3 56.35 M69.5 56.25 L69.5 56.7 69.9 57.75 69.9 57.85 70.25 58.5 70.1 58.1 69.8 56.85 69.55 56.2 69.5 56.25 M68.4 56.5 L68.1 56.35 68.15 56.7 68.95 57.65 68.9 57.5 68.85 57.1 68.4 56.5 M70.65 60.3 L70.55 60.1 70.25 59.3 70.25 59.55 70.65 60.3 M70.55 59.1 L70.95 59.85 70.65 59.25 70.55 59.1 M63.35 68.85 L63.95 71.1 64.5 73.3 64.65 74.0 65.05 75.5 64.3 70.35 63.4 68.9 63.35 68.85 M71.9 58.25 L71.6 57.4 71.5 57.5 71.9 58.25 M66.75 74.25 L66.7 74.8 66.75 74.9 66.8 74.35 66.75 74.25 M66.75 75.0 L66.65 75.1 66.65 75.2 66.7 75.45 66.75 75.0 M65.1 70.6 L65.05 70.5 65.0 70.5 65.1 70.6 M29.1 56.15 L28.7 57.25 28.5 57.9 29.15 56.2 29.1 56.15 M35.65 65.4 L35.5 65.65 35.5 65.7 35.65 65.4 M33.75 68.55 L33.4 69.1 33.3 70.5 33.6 69.65 34.1 68.75 34.2 68.35 33.95 68.65 33.75 68.55 M34.85 67.25 L34.9 67.15 34.85 67.2 34.85 67.25 34.75 67.4 34.75 67.45 34.85 67.25 M29.75 54.25 L29.65 54.4 29.65 54.5 29.75 54.25 M32.85 69.95 L32.5 71.5 32.25 73.4 Q32.25 75.35 32.6 76.1 L32.7 74.85 32.75 71.05 32.85 69.95 M32.05 70.65 L32.2 70.05 32.2 69.65 31.55 71.2 31.45 73.15 Q31.45 74.2 31.95 75.45 31.8 74.75 31.8 73.35 L31.8 71.55 32.05 70.65" fill="#ffffff" fill-opacity="0.35686275" fill-rule="evenodd" stroke="none"/>
    <path d="M78.05 14.55 L76.25 18.85 Q75.1 21.65 72.5 22.8 69.2 24.2 66.7 26.25 64.7 27.95 64.2 29.35 L63.2 28.0 61.05 24.55 61.05 24.5 Q60.3 22.65 58.25 20.9 56.95 19.85 56.05 19.8 L55.55 19.9 Q53.95 19.4 51.9 21.0 L50.75 22.05 50.7 22.05 50.7 21.95 Q50.7 21.25 50.2 20.95 49.65 20.25 48.4 19.7 41.1 19.6 36.65 26.95 L35.8 28.45 Q35.2 27.15 33.35 25.6 30.85 23.5 27.55 22.1 24.95 20.95 23.8 18.15 L22.0 13.85 Q21.5 14.35 21.5 14.85 21.5 15.3 24.85 22.5 28.4 30.2 29.15 33.4 L30.3 38.0 31.3 42.7 31.65 44.65 Q30.65 46.3 30.0 48.7 L28.8 53.8 Q28.25 56.2 25.95 60.0 L23.8 63.7 Q23.8 64.0 23.95 64.1 L24.3 64.2 Q26.0 62.4 27.35 59.45 L27.15 60.2 27.45 60.45 27.85 59.75 28.0 59.95 28.95 58.85 28.35 59.95 Q25.35 64.2 25.35 64.65 25.35 65.0 25.5 65.05 L25.85 65.15 30.6 57.95 30.6 58.15 30.2 58.9 29.8 59.8 30.15 60.05 30.3 59.75 29.6 61.15 28.85 62.35 29.05 62.55 28.8 63.1 Q28.8 63.45 28.95 63.55 L29.3 63.65 Q30.65 62.4 31.6 59.95 L31.85 59.15 31.85 60.9 Q31.45 61.2 31.1 62.1 L29.8 64.95 Q29.25 64.9 29.15 65.1 L29.15 65.35 29.5 65.5 Q30.45 65.5 31.35 63.4 L31.85 62.25 31.85 68.15 30.6 71.25 30.5 73.15 Q30.5 75.6 30.8 76.2 L33.75 80.2 36.85 84.45 39.05 87.15 39.4 87.0 39.5 86.7 34.4 80.0 34.25 79.8 34.35 79.75 Q33.9 78.2 33.15 77.0 L33.15 75.55 33.4 76.35 33.7 77.05 Q33.55 77.05 33.55 77.55 L34.45 79.4 35.85 81.8 37.5 83.95 Q39.25 85.85 40.55 85.85 L40.8 85.7 40.8 85.5 Q39.2 84.85 37.9 83.45 L36.15 81.3 Q35.5 80.55 34.8 79.0 L34.6 78.5 35.2 79.25 Q39.75 84.7 41.9 84.7 42.2 84.7 42.3 84.5 L42.35 84.2 Q38.95 82.55 36.45 79.3 33.95 76.15 33.95 73.65 33.95 70.95 34.55 70.0 35.9 67.9 37.0 64.5 L37.0 59.45 37.15 57.2 37.0 55.75 37.0 54.1 37.65 51.2 37.8 51.3 37.95 51.45 Q43.0 56.5 50.15 56.5 55.6 56.5 59.9 53.5 59.4 56.3 59.4 57.7 59.4 60.15 60.1 62.65 61.0 65.95 61.3 68.4 L61.9 71.2 62.45 73.7 62.45 76.55 Q62.4 78.25 62.95 79.15 L63.35 79.0 63.4 75.75 Q63.4 73.25 62.65 69.3 L62.75 69.6 63.2 71.15 63.3 71.45 64.05 76.85 64.35 76.9 64.5 76.8 64.5 76.05 64.25 74.45 64.3 74.5 64.7 76.5 64.7 77.45 64.2 77.9 Q63.85 78.0 63.75 78.4 L64.05 78.5 Q64.85 78.5 65.1 77.95 L65.1 78.8 64.45 79.75 63.95 80.45 64.05 80.65 64.2 80.7 64.95 80.05 65.55 79.15 65.6 77.3 65.45 75.1 65.1 72.3 65.1 72.0 65.15 72.3 65.65 73.65 65.8 73.55 66.0 73.95 66.05 73.95 66.15 74.3 66.25 75.0 66.15 75.3 66.3 75.35 66.35 77.2 66.35 77.7 66.1 78.65 65.65 80.05 65.65 80.15 Q64.55 81.85 61.9 82.75 L61.85 82.95 61.9 83.15 62.1 83.2 63.7 82.75 60.0 84.7 58.05 85.5 58.1 85.75 58.95 86.0 Q61.55 86.0 64.45 82.9 66.75 80.45 67.05 79.25 L67.6 75.4 67.8 71.25 67.7 64.45 Q67.45 60.4 66.45 57.25 L66.45 56.05 67.2 58.15 Q68.2 60.9 69.0 61.25 L69.05 61.55 69.3 61.55 69.5 61.5 69.5 60.75 68.55 58.0 69.05 58.3 69.25 58.3 69.4 58.7 69.8 59.95 Q70.1 60.8 70.5 60.8 L70.75 60.65 Q71.65 63.2 73.1 63.2 73.5 63.2 73.5 62.95 L73.45 62.85 Q72.55 62.9 71.65 61.35 71.85 61.55 72.05 61.55 L72.25 61.5 72.3 61.3 71.7 59.85 71.95 59.95 72.15 59.85 72.15 59.65 Q71.3 58.85 70.8 57.65 L70.7 57.35 Q71.35 58.7 71.85 58.7 L72.05 58.65 72.45 59.7 Q73.15 61.55 73.35 61.55 L73.6 61.45 73.0 59.6 Q74.25 61.55 75.2 61.55 L75.5 61.5 75.6 61.35 75.65 61.1 73.25 56.95 70.85 53.05 Q70.4 50.4 69.1 47.6 L68.25 46.0 68.75 43.4 69.75 38.7 70.9 34.1 Q71.65 30.9 75.2 23.15 L78.5 15.55 Q78.5 15.0 78.05 14.55 M85.35 14.65 Q100.0 29.3 100.0 50.0 100.0 70.7 85.35 85.35 70.7 100.0 50.0 100.0 29.35 100.0 14.65 85.35 0.0 70.7 0.0 50.0 0.0 29.3 14.65 14.65 29.35 0.0 50.0 0.0 70.7 0.0 85.35 14.65" fill="#ffffff" fill-opacity="0.95686275" fill-rule="evenodd" stroke="none"/>
    <path d="M61.55 26.4 L61.45 26.3 61.4 26.2 61.4 26.1 61.55 26.4 M42.65 22.15 L42.65 22.2 42.5 22.25 42.65 22.15 M29.1 56.15 L29.15 56.2 28.5 57.9 28.7 57.25 29.1 56.15 M65.1 70.6 L65.0 70.5 65.05 70.5 65.1 70.6 M66.75 75.0 L66.7 75.45 66.65 75.2 66.65 75.1 66.75 75.0 M66.75 74.25 L66.8 74.35 66.75 74.9 66.7 74.8 66.75 74.25 M71.9 58.25 L71.5 57.5 71.6 57.4 71.9 58.25 M63.35 68.85 L63.4 68.9 64.3 70.35 65.05 75.5 64.65 74.0 64.5 73.3 63.95 71.1 63.35 68.85 M70.55 59.1 L70.65 59.25 70.95 59.85 70.55 59.1 M70.65 60.3 L70.25 59.55 70.25 59.3 70.55 60.1 70.65 60.3 M68.4 56.5 L68.85 57.1 68.9 57.5 68.95 57.65 68.15 56.7 68.1 56.35 68.4 56.5 M69.5 56.25 L69.55 56.2 69.8 56.85 70.1 58.1 70.25 58.5 69.9 57.85 69.9 57.75 69.5 56.7 69.5 56.25 M67.3 56.35 L67.5 56.7 67.85 57.85 67.6 57.15 67.3 56.35 M65.5 48.6 L65.5 48.8 65.45 48.85 65.5 48.6 M67.3 48.15 L67.35 48.05 67.45 47.95 67.4 48.15 67.3 48.15 M29.75 54.25 L29.65 54.5 29.65 54.4 29.75 54.25 M34.85 67.25 L34.75 67.45 34.75 67.4 34.85 67.25 34.85 67.2 34.9 67.15 34.85 67.25 M33.75 68.55 L33.95 68.65 34.2 68.35 34.1 68.75 33.6 69.65 33.3 70.5 33.4 69.1 33.75 68.55 M35.65 65.4 L35.5 65.7 35.5 65.65 35.65 65.4 M32.85 69.95 L32.75 71.05 32.7 74.85 32.6 76.1 Q32.25 75.35 32.25 73.4 L32.5 71.5 32.85 69.95 M32.05 70.65 L31.8 71.55 31.8 73.35 Q31.8 74.75 31.95 75.45 31.45 74.2 31.45 73.15 L31.55 71.2 32.2 69.65 32.2 70.05 32.05 70.65" fill="#747474" fill-opacity="0.9764706" fill-rule="evenodd" stroke="none"/>
  </g>
</svg>
