<?xml version="1.0" encoding="UTF-8" standalone="no"?>
<svg xmlns:ffdec="https://www.free-decompiler.com/flash" xmlns:xlink="http://www.w3.org/1999/xlink" ffdec:objectType="shape" height="100.0px" width="100.0px" xmlns="http://www.w3.org/2000/svg">
  <g transform="matrix(1.0, 0.0, 0.0, 1.0, 0.0, 0.0)">
    <path d="M85.35 85.35 Q70.7 100.0 50.0 100.0 29.3 100.0 14.65 85.35 0.0 70.7 0.0 50.0 0.0 29.25 14.65 14.6 29.3 0.0 50.0 0.0 70.7 0.0 85.35 14.6 100.0 29.25 100.0 50.0 100.0 70.7 85.35 85.35 M43.8 76.75 L43.9 76.95 43.9 77.1 43.85 77.05 43.85 76.95 43.8 76.75 M43.75 76.15 L43.7 76.4 43.65 76.15 43.75 76.15 M31.5 79.0 L31.5 79.85 31.45 79.4 31.5 79.0 M31.5 78.2 L31.4 77.85 31.4 77.8 31.5 77.85 31.5 78.2 M30.1 73.45 L30.1 73.35 30.1 73.3 30.15 73.3 30.1 73.45 M21.1 68.15 L21.15 68.3 21.15 68.55 21.1 68.55 21.1 68.15 M24.75 69.8 L25.0 69.95 25.05 70.95 25.2 71.55 25.2 71.95 25.0 72.6 24.9 72.55 24.9 72.0 24.75 71.5 24.75 69.8 M21.0 67.5 L20.9 67.75 20.9 67.95 20.85 68.15 20.85 68.5 20.9 69.35 20.75 69.3 20.9 70.65 20.9 71.5 20.9 71.75 20.9 72.2 20.65 72.2 20.65 73.65 20.55 73.95 20.5 73.95 20.5 74.25 20.4 75.85 20.3 76.55 20.45 79.05 20.6 79.55 21.15 79.9 Q21.55 79.9 21.55 79.05 L21.5 77.75 21.5 72.85 21.5 72.05 21.45 69.2 21.6 69.0 Q21.35 68.7 21.4 68.25 L21.35 67.5 21.35 66.05 Q22.4 67.8 23.9 69.05 L23.95 69.1 23.7 69.15 24.0 69.25 24.2 70.35 24.2 72.0 24.25 72.3 24.05 73.4 24.25 74.2 Q24.5 74.95 24.8 74.95 L25.05 74.85 24.8 74.3 25.05 74.0 24.9 73.1 24.95 73.05 24.95 73.35 Q24.95 74.0 25.45 74.05 L25.45 74.4 Q25.5 74.75 25.8 74.75 L26.05 74.6 26.2 73.4 25.9 72.8 25.85 72.7 25.75 71.95 25.7 71.9 25.7 70.4 26.5 70.85 26.55 71.2 26.6 71.35 26.6 73.75 26.75 74.45 26.85 74.7 26.95 75.4 26.75 76.15 26.7 76.45 26.55 77.55 26.55 78.45 Q26.65 79.0 27.3 79.0 L27.6 78.95 27.6 76.55 27.75 76.15 27.4 75.0 27.15 73.1 27.15 73.05 27.1 72.7 27.1 71.1 29.45 71.95 29.5 72.15 29.55 72.3 29.55 72.6 29.55 72.9 29.55 73.1 29.55 73.5 29.45 73.8 29.35 74.45 29.6 75.15 30.1 75.8 30.35 75.75 30.25 75.25 30.25 75.2 30.3 74.7 30.4 74.65 30.5 73.65 30.45 73.3 30.4 73.25 30.4 73.2 30.15 72.55 30.05 72.3 30.0 72.25 30.0 72.2 30.0 72.1 30.6 72.25 30.7 72.3 31.1 72.35 31.1 72.45 31.15 72.75 31.15 72.85 31.15 72.9 31.1 73.3 31.15 74.35 31.1 75.05 31.05 75.2 30.9 76.1 30.85 76.35 30.8 76.45 30.8 77.2 30.9 77.45 30.55 79.8 30.8 80.75 30.8 81.25 31.0 81.3 31.1 81.85 31.3 81.9 31.3 81.95 31.1 82.05 31.4 82.15 31.7 81.95 31.7 82.5 31.95 82.55 32.2 82.5 32.2 79.5 32.1 79.0 32.1 78.95 32.05 78.3 32.0 77.85 32.05 77.75 32.05 76.75 31.75 75.9 31.65 75.5 31.7 75.25 31.7 74.55 31.7 73.25 31.7 72.9 31.7 72.6 31.7 72.5 31.65 72.4 32.6 72.2 34.15 71.75 34.15 71.85 34.05 72.45 34.05 72.65 34.05 72.9 34.1 73.7 34.15 74.4 33.9 75.7 33.6 76.9 33.85 77.35 34.4 77.7 Q35.1 77.7 34.95 75.95 L34.7 74.75 34.7 71.75 34.6 71.65 34.6 71.55 Q36.5 70.85 38.05 69.8 L38.1 70.15 38.0 70.6 38.1 71.95 38.1 72.65 38.0 73.65 38.0 73.7 Q37.85 74.2 37.85 74.95 L37.95 75.85 37.85 76.95 37.85 79.15 Q37.9 81.05 38.25 81.05 L38.45 81.0 39.1 77.75 39.0 77.55 39.0 75.35 38.85 75.25 38.65 74.5 38.4 74.1 38.4 73.75 38.6 72.05 38.6 70.8 38.55 69.5 38.6 69.35 39.25 68.75 39.25 69.15 Q39.1 69.35 39.1 69.9 L39.2 70.3 Q39.05 70.4 39.05 70.65 L39.0 71.05 39.0 71.8 39.15 71.8 39.1 72.4 Q39.2 73.05 39.55 73.05 L39.8 73.0 39.75 68.95 39.5 68.95 39.5 68.5 41.6 65.75 41.75 65.9 41.6 68.4 Q41.65 68.8 42.05 68.8 L42.3 68.75 42.25 64.8 42.15 64.8 42.1 64.75 43.0 62.2 43.1 62.9 43.1 66.95 42.9 68.4 42.7 69.5 Q42.45 71.15 42.45 73.35 L42.35 74.95 Q42.35 76.0 43.0 76.05 L43.0 76.25 43.1 76.55 43.15 76.7 43.2 76.85 43.8 77.3 43.95 77.3 44.05 77.3 44.4 77.05 44.55 77.0 44.45 76.8 44.45 76.25 44.3 75.05 44.05 73.65 43.85 72.1 43.55 71.5 43.6 70.5 43.35 68.9 43.35 68.7 43.5 67.95 43.6 66.2 43.65 66.05 43.7 64.9 43.45 62.0 43.35 61.8 43.35 60.55 43.6 58.85 Q44.7 48.55 35.45 49.4 32.8 50.15 31.35 52.1 29.95 50.1 27.25 49.35 18.0 48.5 19.1 58.8 L19.35 60.6 19.4 61.85 19.35 61.85 19.3 62.5 19.25 62.9 19.1 63.7 Q18.75 65.1 18.75 66.2 L18.8 67.15 Q18.55 67.55 18.55 69.1 18.55 70.85 19.1 70.65 L19.05 70.95 19.4 71.1 19.6 71.05 19.6 69.65 19.55 68.7 19.55 68.55 19.35 68.1 19.25 66.25 19.4 65.1 19.5 65.05 19.85 64.7 19.65 63.9 19.65 63.75 19.8 63.0 19.85 62.55 Q20.3 64.1 21.05 65.5 L21.1 66.45 21.0 67.5 M34.6 8.25 L34.5 8.5 35.05 28.8 61.0 62.75 49.55 69.35 55.15 73.65 64.75 68.25 72.3 81.25 71.3 81.75 73.3 85.25 81.5 80.55 79.6 77.05 78.6 77.65 71.0 64.55 80.6 59.0 79.75 51.95 68.3 58.65 51.9 19.25 34.6 8.25" fill="#767676" fill-opacity="0.9764706" fill-rule="evenodd" stroke="none"/>
  </g>
</svg>
