<?xml version="1.0" encoding="UTF-8" standalone="no"?>
<svg xmlns:ffdec="https://www.free-decompiler.com/flash" xmlns:xlink="http://www.w3.org/1999/xlink" ffdec:objectType="shape" height="100.0px" width="100.0px" xmlns="http://www.w3.org/2000/svg">
  <g transform="matrix(1.0, 0.0, 0.0, 1.0, 0.0, 0.0)">
    <path d="M82.0 23.3 Q55.8 13.35 35.45 30.0 L31.2 25.0 30.7 24.6 30.7 20.2 23.45 17.45 22.7 18.1 24.2 25.65 28.6 26.4 28.9 26.95 33.15 31.95 Q11.95 50.9 21.55 76.4 21.8 77.2 22.6 77.55 L24.1 77.6 Q24.85 77.3 25.2 76.55 L25.35 75.45 51.1 53.2 66.05 70.95 Q65.95 71.0 66.0 71.15 L66.55 77.55 66.65 77.8 71.65 83.75 71.9 83.9 72.25 83.9 72.5 83.7 72.5 83.4 71.9 75.55 79.75 77.65 80.05 77.65 80.25 77.45 80.35 77.15 80.25 76.8 75.25 70.9 74.95 70.75 68.7 69.15 68.5 69.15 53.35 51.25 81.15 27.15 82.05 26.95 Q82.85 26.6 83.1 25.9 83.4 25.1 83.1 24.35 82.7 23.55 82.0 23.3 M85.35 85.35 Q70.7 100.0 50.0 100.0 29.3 100.0 14.65 85.35 0.0 70.7 0.0 50.0 0.0 29.25 14.65 14.6 29.3 0.0 50.0 0.0 70.7 0.0 85.35 14.6 100.0 29.25 100.0 50.0 100.0 70.7 85.35 85.35 M38.0 33.05 Q56.45 18.1 80.2 26.9 L52.85 50.6 38.0 33.05 M50.55 52.6 L25.1 74.6 Q16.85 51.95 35.7 35.0 L50.55 52.6" fill="#767676" fill-opacity="0.9764706" fill-rule="evenodd" stroke="none"/>
  </g>
</svg>
