<?xml version="1.0" encoding="UTF-8" standalone="no"?>
<svg xmlns:ffdec="https://www.free-decompiler.com/flash" xmlns:xlink="http://www.w3.org/1999/xlink" ffdec:objectType="shape" height="100.0px" width="100.0px" xmlns="http://www.w3.org/2000/svg">
  <g transform="matrix(1.0, 0.0, 0.0, 1.0, 0.0, 0.0)">
    <path d="M98.15 36.0 Q100.0 42.6 100.0 50.0 100.0 70.7 85.35 85.35 70.7 100.0 50.0 100.0 29.3 100.0 14.65 85.35 L13.6 84.25 13.85 83.85 13.9 83.85 Q16.7 79.9 19.85 76.25 26.8 67.95 35.0 61.0 42.35 54.7 50.6 49.55 L50.6 49.5 50.8 49.4 61.0 62.75 49.55 69.35 55.15 73.65 64.75 68.25 72.3 81.25 71.3 81.75 73.3 85.25 81.5 80.55 79.6 77.05 78.6 77.65 71.0 64.55 80.6 59.0 79.75 51.95 68.3 58.65 61.8 43.05 62.05 42.95 66.55 40.7 Q80.1 34.3 95.7 30.35 L96.1 30.25 Q97.3 33.05 98.15 36.0 M85.65 14.9 Q90.6 19.9 93.85 25.65 78.15 29.7 64.45 36.15 62.15 37.2 59.9 38.45 L54.5 25.45 54.6 25.45 Q68.35 19.15 84.1 15.3 L85.65 14.9 M52.6 20.85 L51.9 19.25 34.6 8.25 34.5 8.5 35.05 28.8 35.85 29.85 Q26.4 35.6 18.1 42.7 9.65 49.9 2.45 58.45 L2.4 58.5 0.95 60.2 Q0.0 55.3 0.0 50.0 0.0 29.25 14.65 14.6 29.3 0.0 50.0 0.0 67.85 0.0 81.2 10.85 65.95 14.75 52.6 20.85 M38.9 33.8 L47.75 45.4 Q39.3 50.75 31.75 57.2 23.3 64.45 16.05 73.0 13.0 76.55 10.2 80.35 5.1 73.8 2.55 66.25 L3.65 64.9 3.7 64.8 6.2 61.75 Q13.15 53.45 21.35 46.5 29.4 39.55 38.65 33.95 L38.7 33.95 38.9 33.8" fill="#767676" fill-opacity="0.9764706" fill-rule="evenodd" stroke="none"/>
  </g>
</svg>
