<?xml version="1.0" encoding="UTF-8" standalone="no"?>
<svg xmlns:ffdec="https://www.free-decompiler.com/flash" xmlns:xlink="http://www.w3.org/1999/xlink" ffdec:objectType="shape" height="100.0px" width="100.0px" xmlns="http://www.w3.org/2000/svg">
  <g transform="matrix(1.0, 0.0, 0.0, 1.0, 0.0, 0.0)">
    <path d="M87.25 44.3 Q86.6 44.35 85.05 48.05 84.35 49.6 79.9 51.55 75.75 53.3 75.75 54.85 75.75 55.65 76.1 55.95 L77.0 56.25 Q83.1 53.75 85.5 51.55 87.75 49.5 87.75 46.85 87.75 44.3 87.25 44.3 M88.55 32.4 L89.25 31.5 Q86.9 28.2 81.15 32.7 79.15 34.2 77.35 36.2 75.75 37.95 75.75 38.35 75.75 39.15 76.1 39.45 L77.0 39.75 82.6 35.9 87.25 32.5 88.55 32.4 M85.35 85.35 Q70.7 100.0 50.0 100.0 29.3 100.0 14.65 85.35 0.0 70.7 0.0 50.0 0.0 29.25 14.65 14.6 29.3 0.0 50.0 0.0 70.7 0.0 85.35 14.6 100.0 29.25 100.0 50.0 100.0 70.7 85.35 85.35 M68.3 20.25 L55.3 20.25 55.3 65.0 Q42.45 67.9 29.55 72.0 24.45 75.0 24.3 78.0 L68.3 76.75 68.3 20.25 M82.5 69.4 Q84.75 67.6 84.75 64.85 L84.6 62.95 Q84.1 61.95 82.25 62.55 82.25 69.05 77.5 70.9 L74.25 71.65 Q72.75 71.95 72.75 72.35 72.75 73.15 73.1 73.45 L74.0 73.75 Q80.35 71.15 82.5 69.4" fill="#767676" fill-opacity="0.9764706" fill-rule="evenodd" stroke="none"/>
  </g>
</svg>
