<?xml version="1.0" encoding="UTF-8" standalone="no"?>
<svg xmlns:ffdec="https://www.free-decompiler.com/flash" xmlns:xlink="http://www.w3.org/1999/xlink" ffdec:objectType="shape" height="100.0px" width="100.0px" xmlns="http://www.w3.org/2000/svg">
  <g transform="matrix(1.0, 0.0, 0.0, 1.0, 0.0, 0.0)">
    <path d="M89.45 44.4 L86.65 40.3 74.75 40.3 71.5 34.95 66.85 34.95 60.75 18.1 57.5 34.5 47.2 14.7 41.7 35.65 8.75 46.1 30.95 51.05 25.15 76.8 36.3 64.35 34.05 76.65 44.8 59.7 59.2 78.5 55.4 65.9 68.25 78.75 66.4 62.1 78.6 64.65 81.15 68.6 81.15 55.6 74.65 58.15 66.15 54.85 71.25 48.25 80.15 48.25 82.0 51.6 89.45 44.4 M85.35 85.35 Q70.7 100.0 50.0 100.0 29.3 100.0 14.65 85.35 0.0 70.7 0.0 50.0 0.0 29.25 14.65 14.6 29.3 0.0 50.0 0.0 70.7 0.0 85.35 14.6 100.0 29.25 100.0 50.0 100.0 70.7 85.35 85.35" fill="#767676" fill-opacity="0.9764706" fill-rule="evenodd" stroke="none"/>
    <path d="M66.9 45.0 L56.7 41.0 71.4 41.0 66.9 45.0" fill="#747474" fill-opacity="0.9764706" fill-rule="evenodd" stroke="none"/>
  </g>
</svg>
