<?xml version="1.0" encoding="UTF-8" standalone="no"?>
<svg xmlns:ffdec="https://www.free-decompiler.com/flash" xmlns:xlink="http://www.w3.org/1999/xlink" ffdec:objectType="shape" height="100.0px" width="100.0px" xmlns="http://www.w3.org/2000/svg">
  <g transform="matrix(1.0, 0.0, 0.0, 1.0, 0.0, 0.0)">
    <path d="M85.35 85.35 Q70.7 100.0 50.0 100.0 35.5 100.0 24.0 92.85 L24.5 92.3 36.7 78.1 59.35 83.2 63.45 92.0 70.9 93.35 72.25 86.25 Q71.05 80.15 65.0 75.25 59.15 63.2 50.55 54.75 L83.4 35.1 48.9 48.3 37.35 39.85 36.55 39.5 34.0 32.4 9.65 29.35 24.4 39.5 Q16.3 45.25 14.05 49.8 9.75 52.95 1.85 63.95 0.0 57.35 0.0 50.0 0.0 29.25 14.65 14.6 29.3 0.0 50.0 0.0 70.7 0.0 85.35 14.6 100.0 29.25 100.0 50.0 100.0 70.7 85.35 85.35" fill="#767676" fill-opacity="0.9764706" fill-rule="evenodd" stroke="none"/>
  </g>
</svg>
