<?xml version="1.0" encoding="UTF-8" standalone="no"?>
<svg xmlns:ffdec="https://www.free-decompiler.com/flash" xmlns:xlink="http://www.w3.org/1999/xlink" ffdec:objectType="morphshape" height="42.7px" width="136.2px" xmlns="http://www.w3.org/2000/svg">
  <g transform="matrix(1.0, 0.0, 0.0, 1.0, 60.45, 22.4)">
    <path d="M66.3 -2.0 L66.3 4.0 71.95 4.0 71.95 -2.0 Q71.95 -3.8 68.1 -3.8 66.3 -3.8 66.3 -2.0 M62.65 -3.2 L62.65 16.35 Q62.65 20.3 66.6 20.3 L71.8 20.3 Q75.75 20.3 75.75 16.35 L75.75 12.95 72.1 12.95 72.1 15.1 Q72.1 16.95 70.25 16.95 69.2 16.95 66.3 15.1 L66.3 7.35 75.65 7.35 75.65 -3.2 Q75.65 -7.15 71.65 -7.15 L66.6 -7.15 Q62.65 -7.15 62.65 -3.2 M36.4 -5.8 L36.4 -1.2 36.4 12.8 36.4 17.0 36.4 20.3 40.05 20.3 40.05 13.6 40.05 7.6 40.05 3.5 40.05 -3.2 42.5 -3.8 43.6 -3.8 Q45.4 -3.8 45.4 -2.0 L45.4 2.2 45.4 16.1 45.4 20.3 47.0 20.3 48.8 20.3 48.8 18.1 48.8 4.0 48.8 -0.3 48.8 -3.2 51.25 -3.8 52.4 -3.8 Q54.2 -3.8 54.2 -2.0 L54.2 4.7 54.2 20.3 57.85 20.3 57.85 14.6 57.85 3.7 57.85 -3.2 Q57.85 -7.15 53.9 -7.15 L51.1 -7.15 47.45 -6.2 Q46.3 -7.15 41.4 -7.15 L36.4 -5.8 M21.85 9.2 L21.85 9.8 21.85 15.1 Q21.85 16.95 23.7 16.95 L25.45 16.95 27.8 16.45 Q27.8 15.15 27.8 13.85 L27.8 7.1 23.4 7.1 Q21.85 7.1 21.85 9.2 M18.2 7.8 L18.2 8.65 18.2 16.35 18.3 17.55 Q18.85 20.3 22.15 20.3 L26.4 20.3 31.5 19.3 31.5 14.1 31.5 11.8 31.5 3.0 31.5 -3.2 Q31.5 -6.15 29.3 -6.9 L27.55 -7.15 22.5 -7.15 21.2 -7.05 20.9 -6.95 Q18.55 -6.25 18.55 -3.2 L18.55 -0.25 18.55 0.15 22.25 0.15 22.25 -2.0 Q22.25 -3.05 22.85 -3.5 L24.05 -3.8 26.2 -3.8 27.8 -2.0 27.8 3.7 21.55 3.7 Q18.2 3.7 18.2 7.8 M-3.45 -18.45 L-3.45 -18.45 -3.45 -14.45 -3.45 -3.15 -3.45 16.35 Q-3.45 20.3 0.5 20.3 L8.95 20.3 10.55 20.0 13.15 19.4 13.65 19.3 13.65 -1.5 13.65 -2.4 5.8 -2.4 5.8 -1.2 5.8 0.7 5.8 1.25 9.35 1.25 9.35 14.55 9.35 16.05 6.95 16.65 5.75 16.65 2.95 16.65 1.65 16.35 Q0.8 15.85 0.8 14.5 L0.8 10.0 0.8 -1.6 0.8 -6.9 0.8 -7.7 0.8 -16.6 Q0.8 -18.4 3.25 -18.75 L7.2 -18.75 Q9.35 -18.75 9.35 -16.6 L9.35 -11.0 13.65 -11.0 13.65 -18.45 Q13.65 -22.4 9.65 -22.4 L4.45 -22.4 0.5 -22.4 Q-3.45 -22.4 -3.45 -18.45 M-16.35 -7.15 L-16.35 -3.8 -14.55 -3.8 -14.55 16.05 Q-14.55 20.3 -10.3 20.3 L-6.65 20.3 -6.65 16.95 Q-7.8 16.95 -10.9 15.0 L-10.9 -3.8 -7.15 -3.8 -7.15 -7.15 -10.9 -7.15 -10.9 -16.3 -14.55 -16.3 -14.55 -7.15 -16.35 -7.15 M-38.85 -5.8 L-38.85 -5.6 -38.85 -1.9 -38.85 9.2 -38.85 12.5 -38.85 20.3 -35.8 20.3 -35.2 20.3 -35.2 15.9 -35.2 5.5 -35.2 5.0 -35.2 -3.2 -32.75 -3.8 -31.2 -3.75 Q-30.15 -3.55 -30.15 -0.05 L-26.75 -0.05 -26.75 -3.5 Q-26.75 -7.15 -30.45 -7.15 L-33.85 -7.15 -38.85 -5.8 M-60.45 -18.45 L-60.45 16.35 Q-60.45 20.3 -56.5 20.3 L-47.65 20.3 Q-43.65 20.3 -43.65 16.35 L-43.65 8.9 -47.65 8.9 -47.65 14.5 Q-47.65 16.65 -49.8 16.65 L-54.05 16.65 Q-56.2 16.65 -56.2 14.5 L-56.2 -16.6 Q-56.2 -18.75 -54.05 -18.75 L-49.8 -18.75 Q-47.65 -18.75 -47.65 -16.6 L-47.65 -11.0 -43.65 -11.0 -43.65 -18.45 Q-43.65 -22.4 -47.65 -22.4 L-56.5 -22.4 Q-60.45 -22.4 -60.45 -18.45" fill="#747474" fill-opacity="0.9764706" fill-rule="evenodd" stroke="none">
      <animate attributeName="fill" dur="2.0s" repeatCount="indefinite" values="#747474;#747475"/>
      <animate attributeName="fill-opacity" dur="2.0s" repeatCount="indefinite" values="0.9764706;0.9764706"/>
      <animate attributeName="d" dur="2.0s" repeatCount="indefinite" values="M66.3 -2.0 L66.3 4.0 71.95 4.0 71.95 -2.0 Q71.95 -3.8 68.1 -3.8 66.3 -3.8 66.3 -2.0 M62.65 -3.2 L62.65 16.35 Q62.65 20.3 66.6 20.3 L71.8 20.3 Q75.75 20.3 75.75 16.35 L75.75 12.95 72.1 12.95 72.1 15.1 Q72.1 16.95 70.25 16.95 69.2 16.95 66.3 15.1 L66.3 7.35 75.65 7.35 75.65 -3.2 Q75.65 -7.15 71.65 -7.15 L66.6 -7.15 Q62.65 -7.15 62.65 -3.2 M36.4 -5.8 L36.4 -1.2 36.4 12.8 36.4 17.0 36.4 20.3 40.05 20.3 40.05 13.6 40.05 7.6 40.05 3.5 40.05 -3.2 42.5 -3.8 43.6 -3.8 Q45.4 -3.8 45.4 -2.0 L45.4 2.2 45.4 16.1 45.4 20.3 47.0 20.3 48.8 20.3 48.8 18.1 48.8 4.0 48.8 -0.3 48.8 -3.2 51.25 -3.8 52.4 -3.8 Q54.2 -3.8 54.2 -2.0 L54.2 4.7 54.2 20.3 57.85 20.3 57.85 14.6 57.85 3.7 57.85 -3.2 Q57.85 -7.15 53.9 -7.15 L51.1 -7.15 47.45 -6.2 Q46.3 -7.15 41.4 -7.15 L36.4 -5.8 M21.85 9.2 L21.85 9.8 21.85 15.1 Q21.85 16.95 23.7 16.95 L25.45 16.95 27.8 16.45 Q27.8 15.15 27.8 13.85 L27.8 7.1 23.4 7.1 Q21.85 7.1 21.85 9.2 M18.2 7.8 L18.2 8.65 18.2 16.35 18.3 17.55 Q18.85 20.3 22.15 20.3 L26.4 20.3 31.5 19.3 31.5 14.1 31.5 11.8 31.5 3.0 31.5 -3.2 Q31.5 -6.15 29.3 -6.9 L27.55 -7.15 22.5 -7.15 21.2 -7.05 20.9 -6.95 Q18.55 -6.25 18.55 -3.2 L18.55 -0.25 18.55 0.15 22.25 0.15 22.25 -2.0 Q22.25 -3.05 22.85 -3.5 L24.05 -3.8 26.2 -3.8 27.8 -2.0 27.8 3.7 21.55 3.7 Q18.2 3.7 18.2 7.8 M-3.45 -18.45 L-3.45 -18.45 -3.45 -14.45 -3.45 -3.15 -3.45 16.35 Q-3.45 20.3 0.5 20.3 L8.95 20.3 10.55 20.0 13.15 19.4 13.65 19.3 13.65 -1.5 13.65 -2.4 5.8 -2.4 5.8 -1.2 5.8 0.7 5.8 1.25 9.35 1.25 9.35 14.55 9.35 16.05 6.95 16.65 5.75 16.65 2.95 16.65 1.65 16.35 Q0.8 15.85 0.8 14.5 L0.8 10.0 0.8 -1.6 0.8 -6.9 0.8 -7.7 0.8 -16.6 Q0.8 -18.4 3.25 -18.75 L7.2 -18.75 Q9.35 -18.75 9.35 -16.6 L9.35 -11.0 13.65 -11.0 13.65 -18.45 Q13.65 -22.4 9.65 -22.4 L4.45 -22.4 0.5 -22.4 Q-3.45 -22.4 -3.45 -18.45 M-16.35 -7.15 L-16.35 -3.8 -14.55 -3.8 -14.55 16.05 Q-14.55 20.3 -10.3 20.3 L-6.65 20.3 -6.65 16.95 Q-7.8 16.95 -10.9 15.0 L-10.9 -3.8 -7.15 -3.8 -7.15 -7.15 -10.9 -7.15 -10.9 -16.3 -14.55 -16.3 -14.55 -7.15 -16.35 -7.15 M-38.85 -5.8 L-38.85 -5.6 -38.85 -1.9 -38.85 9.2 -38.85 12.5 -38.85 20.3 -35.8 20.3 -35.2 20.3 -35.2 15.9 -35.2 5.5 -35.2 5.0 -35.2 -3.2 -32.75 -3.8 -31.2 -3.75 Q-30.15 -3.55 -30.15 -0.05 L-26.75 -0.05 -26.75 -3.5 Q-26.75 -7.15 -30.45 -7.15 L-33.85 -7.15 -38.85 -5.8 M-60.45 -18.45 L-60.45 16.35 Q-60.45 20.3 -56.5 20.3 L-47.65 20.3 Q-43.65 20.3 -43.65 16.35 L-43.65 8.9 -47.65 8.9 -47.65 14.5 Q-47.65 16.65 -49.8 16.65 L-54.05 16.65 Q-56.2 16.65 -56.2 14.5 L-56.2 -16.6 Q-56.2 -18.75 -54.05 -18.75 L-49.8 -18.75 Q-47.65 -18.75 -47.65 -16.6 L-47.65 -11.0 -43.65 -11.0 -43.65 -18.45 Q-43.65 -22.4 -47.65 -22.4 L-56.5 -22.4 Q-60.45 -22.4 -60.45 -18.45;M66.3 19.25 L66.3 19.55 71.95 19.55 71.95 19.25 Q70.0 19.2 68.1 19.15 67.2 19.2 66.3 19.25 M62.65 19.2 L62.65 20.1 Q64.65 20.2 66.6 20.3 L71.8 20.3 Q73.8 20.2 75.75 20.1 L75.75 19.95 72.1 19.95 72.1 20.05 Q71.15 20.1 70.25 20.15 68.25 20.1 66.3 20.05 L66.3 19.7 75.65 19.7 75.65 19.2 Q73.65 19.1 71.65 19.0 L66.6 19.0 Q64.6 19.1 62.65 19.2 M36.4 19.1 L36.4 20.3 40.05 20.3 40.05 19.2 40.95 19.2 41.85 19.15 43.6 19.15 45.4 19.25 45.4 20.3 47.2 20.3 47.8 20.3 48.1 20.3 Q48.45 20.3 48.8 20.3 L48.8 19.2 52.4 19.15 53.7 19.15 54.2 19.25 54.2 19.7 54.2 20.3 57.85 20.3 57.85 19.2 57.3 19.1 56.65 19.0 56.35 19.0 Q56.0 19.0 55.65 19.0 L53.9 19.0 49.9 19.05 48.9 19.05 47.45 19.05 44.5 19.0 42.7 19.1 Q41.9 19.1 41.1 19.1 L40.4 19.1 39.4 19.1 Q38.6 19.1 37.8 19.1 L36.4 19.1 M21.85 19.8 L21.85 20.05 24.1 20.15 Q24.75 20.1 25.4 20.1 L26.1 20.1 27.1 20.1 Q27.45 20.1 27.8 19.7 L25.0 19.7 23.2 19.7 Q22.5 19.75 21.85 19.8 M18.2 19.7 L18.2 20.1 21.65 20.3 22.15 20.3 Q23.4 20.25 24.65 20.25 L26.65 20.25 29.05 20.25 31.5 20.25 31.5 19.2 27.55 19.0 24.65 19.0 Q23.55 19.0 22.5 19.0 L21.5 19.0 19.2 19.05 18.55 19.2 18.55 19.35 Q19.7 19.35 20.85 19.35 L22.25 19.35 22.4 19.2 24.15 19.15 25.15 19.15 Q25.6 19.15 26.0 19.15 L26.85 19.15 27.8 19.25 26.9 19.5 24.2 19.5 21.3 19.5 Q19.75 19.6 18.2 19.7 M-3.45 18.5 L-3.45 18.6 -3.45 20.1 0.5 20.3 7.6 20.25 Q8.8 20.25 10.0 20.25 L13.1 20.25 13.65 20.25 13.65 19.25 13.45 19.25 5.8 19.25 6.0 19.4 8.9 19.4 9.35 19.4 9.35 20.1 9.15 20.1 7.85 20.1 2.95 20.15 2.35 20.15 1.35 20.15 0.8 20.05 0.8 19.05 0.8 18.55 Q1.1 18.5 1.4 18.45 L2.95 18.45 7.2 18.45 9.35 18.55 9.35 18.85 12.65 18.85 Q13.15 18.65 13.65 18.5 L12.35 18.35 Q11.75 18.3 11.15 18.3 L9.15 18.3 7.55 18.3 4.8 18.3 Q3.6 18.3 2.4 18.3 L0.5 18.3 -0.95 18.3 Q-2.2 18.4 -3.45 18.5 M-16.35 19.0 L-16.35 19.15 -14.55 19.15 -14.55 20.1 Q-12.4 20.2 -10.3 20.3 L-6.65 20.3 -6.65 20.15 Q-8.8 20.1 -10.9 20.05 L-10.9 19.15 -7.15 19.15 -7.15 19.0 -10.9 19.0 -10.9 18.6 -14.55 18.6 -14.55 19.0 -16.35 19.0 M-38.85 19.1 L-38.85 19.1 -38.85 20.3 -35.2 20.3 -35.2 19.2 -32.65 19.15 -31.65 19.15 -31.45 19.15 -30.15 19.35 -26.75 19.35 -26.75 19.2 -29.15 19.0 -29.9 19.0 -30.45 19.0 Q-31.15 19.05 -31.85 19.1 L-32.95 19.1 -34.05 19.1 Q-35.05 19.1 -36.05 19.1 L-37.15 19.1 -38.85 19.1 M-60.45 18.5 L-60.45 20.1 Q-58.45 20.2 -56.5 20.3 L-47.65 20.3 Q-45.65 20.2 -43.65 20.1 L-43.65 19.75 -47.65 19.75 -47.65 20.05 Q-48.75 20.1 -49.8 20.15 L-54.05 20.15 Q-55.15 20.1 -56.2 20.05 L-56.2 18.55 Q-55.1 18.5 -54.05 18.45 L-49.8 18.45 Q-48.7 18.5 -47.65 18.55 L-47.65 18.85 -43.65 18.85 -43.65 18.5 Q-45.65 18.4 -47.65 18.3 L-56.5 18.3 Q-58.5 18.4 -60.45 18.5"/>
    </path>
    <path d="M-60.45 -18.45 Q-60.45 -22.4 -56.5 -22.4 L-47.65 -22.4 Q-43.65 -22.4 -43.65 -18.45 L-43.65 -11.0 -47.65 -11.0 -47.65 -16.6 Q-47.65 -18.75 -49.8 -18.75 L-54.05 -18.75 Q-56.2 -18.75 -56.2 -16.6 L-56.2 14.5 Q-56.2 16.65 -54.05 16.65 L-49.8 16.65 Q-47.65 16.65 -47.65 14.5 L-47.65 8.9 -43.65 8.9 -43.65 16.35 Q-43.65 20.3 -47.65 20.3 L-56.5 20.3 Q-60.45 20.3 -60.45 16.35 L-60.45 -18.45 M-38.85 -5.8 L-33.85 -7.15 -30.45 -7.15 Q-26.75 -7.15 -26.75 -3.5 L-26.75 -0.05 -30.15 -0.05 Q-30.15 -3.55 -31.2 -3.75 L-32.75 -3.8 -35.2 -3.2 -35.2 5.0 -35.2 5.5 -35.2 15.9 -35.2 20.3 -35.8 20.3 -38.85 20.3 -38.85 12.5 -38.85 9.2 -38.85 -1.9 -38.85 -5.6 -38.85 -5.8 M-16.35 -7.15 L-14.55 -7.15 -14.55 -16.3 -10.9 -16.3 -10.9 -7.15 -7.15 -7.15 -7.15 -3.8 -10.9 -3.8 -10.9 15.0 Q-7.8 16.95 -6.65 16.95 L-6.65 20.3 -10.3 20.3 Q-14.55 20.3 -14.55 16.05 L-14.55 -3.8 -16.35 -3.8 -16.35 -7.15 M-3.45 -18.45 Q-3.45 -22.4 0.5 -22.4 L4.45 -22.4 9.65 -22.4 Q13.65 -22.4 13.65 -18.45 L13.65 -11.0 9.35 -11.0 9.35 -16.6 Q9.35 -18.75 7.2 -18.75 L3.25 -18.75 Q0.8 -18.4 0.8 -16.6 L0.8 -7.7 0.8 -6.9 0.8 -1.6 0.8 10.0 0.8 14.5 Q0.8 15.85 1.65 16.35 L2.95 16.65 5.75 16.65 6.95 16.65 9.35 16.05 9.35 14.55 9.35 1.25 5.8 1.25 5.8 0.7 5.8 -1.2 5.8 -2.4 13.65 -2.4 13.65 -1.5 13.65 19.3 13.15 19.4 10.55 20.0 8.95 20.3 0.5 20.3 Q-3.45 20.3 -3.45 16.35 L-3.45 -3.15 -3.45 -14.45 -3.45 -18.45 -3.45 -18.45 M18.2 7.8 Q18.2 3.7 21.55 3.7 L27.8 3.7 27.8 -2.0 26.2 -3.8 24.05 -3.8 22.85 -3.5 Q22.25 -3.05 22.25 -2.0 L22.25 0.15 18.55 0.15 18.55 -0.25 18.55 -3.2 Q18.55 -6.25 20.9 -6.95 L21.2 -7.05 22.5 -7.15 27.55 -7.15 29.3 -6.9 Q31.5 -6.15 31.5 -3.2 L31.5 3.0 31.5 11.8 31.5 14.1 31.5 19.3 26.4 20.3 22.15 20.3 Q18.85 20.3 18.3 17.55 L18.2 16.35 18.2 8.65 18.2 7.8 M21.85 9.2 Q21.85 7.1 23.4 7.1 L27.8 7.1 27.8 13.85 Q27.8 15.15 27.8 16.45 L25.45 16.95 23.7 16.95 Q21.85 16.95 21.85 15.1 L21.85 9.8 21.85 9.2 M36.4 -5.8 L41.4 -7.15 Q46.3 -7.15 47.45 -6.2 L51.1 -7.15 53.9 -7.15 Q57.85 -7.15 57.85 -3.2 L57.85 3.7 57.85 14.6 57.85 20.3 54.2 20.3 54.2 4.7 54.2 -2.0 Q54.2 -3.8 52.4 -3.8 L51.25 -3.8 48.8 -3.2 48.8 -0.3 48.8 4.0 48.8 18.1 48.8 20.3 47.0 20.3 45.4 20.3 45.4 16.1 45.4 2.2 45.4 -2.0 Q45.4 -3.8 43.6 -3.8 L42.5 -3.8 40.05 -3.2 40.05 3.5 40.05 7.6 40.05 13.6 40.05 20.3 36.4 20.3 36.4 17.0 36.4 12.8 36.4 -1.2 36.4 -5.8 M62.65 -3.2 Q62.65 -7.15 66.6 -7.15 L71.65 -7.15 Q75.65 -7.15 75.65 -3.2 L75.65 7.35 66.3 7.35 66.3 15.1 Q69.2 16.95 70.25 16.95 72.1 16.95 72.1 15.1 L72.1 12.95 75.75 12.95 75.75 16.35 Q75.75 20.3 71.8 20.3 L66.6 20.3 Q62.65 20.3 62.65 16.35 L62.65 -3.2 M66.3 -2.0 Q66.3 -3.8 68.1 -3.8 71.95 -3.8 71.95 -2.0 L71.95 4.0 66.3 4.0 66.3 -2.0 Z" fill="none" stroke="#000000" stroke-linecap="round" stroke-linejoin="round" stroke-opacity="0.0" stroke-width="0.0">
      <animate attributeName="stroke" dur="2.0s" repeatCount="indefinite" values="#000000;#000001"/>
      <animate attributeName="stroke-width" dur="2.0s" repeatCount="indefinite" values="0.0;0.0"/>
      <animate attributeName="fill-opacity" dur="2.0s" repeatCount="indefinite" values="0.0;0.0"/>
      <animate attributeName="d" dur="2.0s" repeatCount="indefinite" values="M-60.45 -18.45 Q-60.45 -22.4 -56.5 -22.4 L-47.65 -22.4 Q-43.65 -22.4 -43.65 -18.45 L-43.65 -11.0 -47.65 -11.0 -47.65 -16.6 Q-47.65 -18.75 -49.8 -18.75 L-54.05 -18.75 Q-56.2 -18.75 -56.2 -16.6 L-56.2 14.5 Q-56.2 16.65 -54.05 16.65 L-49.8 16.65 Q-47.65 16.65 -47.65 14.5 L-47.65 8.9 -43.65 8.9 -43.65 16.35 Q-43.65 20.3 -47.65 20.3 L-56.5 20.3 Q-60.45 20.3 -60.45 16.35 L-60.45 -18.45 M-38.85 -5.8 L-33.85 -7.15 -30.45 -7.15 Q-26.75 -7.15 -26.75 -3.5 L-26.75 -0.05 -30.15 -0.05 Q-30.15 -3.55 -31.2 -3.75 L-32.75 -3.8 -35.2 -3.2 -35.2 5.0 -35.2 5.5 -35.2 15.9 -35.2 20.3 -35.8 20.3 -38.85 20.3 -38.85 12.5 -38.85 9.2 -38.85 -1.9 -38.85 -5.6 -38.85 -5.8 M-16.35 -7.15 L-14.55 -7.15 -14.55 -16.3 -10.9 -16.3 -10.9 -7.15 -7.15 -7.15 -7.15 -3.8 -10.9 -3.8 -10.9 15.0 Q-7.8 16.95 -6.65 16.95 L-6.65 20.3 -10.3 20.3 Q-14.55 20.3 -14.55 16.05 L-14.55 -3.8 -16.35 -3.8 -16.35 -7.15 M-3.45 -18.45 Q-3.45 -22.4 0.5 -22.4 L4.45 -22.4 9.65 -22.4 Q13.65 -22.4 13.65 -18.45 L13.65 -11.0 9.35 -11.0 9.35 -16.6 Q9.35 -18.75 7.2 -18.75 L3.25 -18.75 Q0.8 -18.4 0.8 -16.6 L0.8 -7.7 0.8 -6.9 0.8 -1.6 0.8 10.0 0.8 14.5 Q0.8 15.85 1.65 16.35 L2.95 16.65 5.75 16.65 6.95 16.65 9.35 16.05 9.35 14.55 9.35 1.25 5.8 1.25 5.8 0.7 5.8 -1.2 5.8 -2.4 13.65 -2.4 13.65 -1.5 13.65 19.3 13.15 19.4 10.55 20.0 8.95 20.3 0.5 20.3 Q-3.45 20.3 -3.45 16.35 L-3.45 -3.15 -3.45 -14.45 -3.45 -18.45 -3.45 -18.45 M18.2 7.8 Q18.2 3.7 21.55 3.7 L27.8 3.7 27.8 -2.0 26.2 -3.8 24.05 -3.8 22.85 -3.5 Q22.25 -3.05 22.25 -2.0 L22.25 0.15 18.55 0.15 18.55 -0.25 18.55 -3.2 Q18.55 -6.25 20.9 -6.95 L21.2 -7.05 22.5 -7.15 27.55 -7.15 29.3 -6.9 Q31.5 -6.15 31.5 -3.2 L31.5 3.0 31.5 11.8 31.5 14.1 31.5 19.3 26.4 20.3 22.15 20.3 Q18.85 20.3 18.3 17.55 L18.2 16.35 18.2 8.65 18.2 7.8 M21.85 9.2 Q21.85 7.1 23.4 7.1 L27.8 7.1 27.8 13.85 Q27.8 15.15 27.8 16.45 L25.45 16.95 23.7 16.95 Q21.85 16.95 21.85 15.1 L21.85 9.8 21.85 9.2 M36.4 -5.8 L41.4 -7.15 Q46.3 -7.15 47.45 -6.2 L51.1 -7.15 53.9 -7.15 Q57.85 -7.15 57.85 -3.2 L57.85 3.7 57.85 14.6 57.85 20.3 54.2 20.3 54.2 4.7 54.2 -2.0 Q54.2 -3.8 52.4 -3.8 L51.25 -3.8 48.8 -3.2 48.8 -0.3 48.8 4.0 48.8 18.1 48.8 20.3 47.0 20.3 45.4 20.3 45.4 16.1 45.4 2.2 45.4 -2.0 Q45.4 -3.8 43.6 -3.8 L42.5 -3.8 40.05 -3.2 40.05 3.5 40.05 7.6 40.05 13.6 40.05 20.3 36.4 20.3 36.4 17.0 36.4 12.8 36.4 -1.2 36.4 -5.8 M62.65 -3.2 Q62.65 -7.15 66.6 -7.15 L71.65 -7.15 Q75.65 -7.15 75.65 -3.2 L75.65 7.35 66.3 7.35 66.3 15.1 Q69.2 16.95 70.25 16.95 72.1 16.95 72.1 15.1 L72.1 12.95 75.75 12.95 75.75 16.35 Q75.75 20.3 71.8 20.3 L66.6 20.3 Q62.65 20.3 62.65 16.35 L62.65 -3.2 M66.3 -2.0 Q66.3 -3.8 68.1 -3.8 71.95 -3.8 71.95 -2.0 L71.95 4.0 66.3 4.0 66.3 -2.0 Z;M-60.45 18.5 Q-58.5 18.4 -56.5 18.3 L-47.65 18.3 Q-45.65 18.4 -43.65 18.5 L-43.65 18.85 -47.65 18.85 -47.65 18.55 Q-48.7 18.5 -49.8 18.45 L-54.05 18.45 Q-55.1 18.5 -56.2 18.55 L-56.2 20.05 Q-55.15 20.1 -54.05 20.15 L-49.8 20.15 Q-48.75 20.1 -47.65 20.05 L-47.65 19.75 -43.65 19.75 -43.65 20.1 Q-45.65 20.2 -47.65 20.3 L-56.5 20.3 Q-58.45 20.2 -60.45 20.1 L-60.45 18.5 M-38.85 19.1 L-37.15 19.1 -36.05 19.1 Q-35.05 19.1 -34.05 19.1 L-32.95 19.1 -31.85 19.1 Q-31.15 19.05 -30.45 19.0 L-29.9 19.0 -29.15 19.0 -26.75 19.2 -26.75 19.35 -30.15 19.35 -31.45 19.15 -31.65 19.15 -32.65 19.15 -35.2 19.2 -35.2 20.3 -38.85 20.3 -38.85 19.1 -38.85 19.1 M-16.35 19.0 L-14.55 19.0 -14.55 18.6 -10.9 18.6 -10.9 19.0 -7.15 19.0 -7.15 19.15 -10.9 19.15 -10.9 20.05 Q-8.8 20.1 -6.65 20.15 L-6.65 20.3 -10.3 20.3 Q-12.4 20.2 -14.55 20.1 L-14.55 19.15 -16.35 19.15 -16.35 19.0 M-3.45 18.5 Q-2.2 18.4 -0.95 18.3 L0.5 18.3 2.4 18.3 Q3.6 18.3 4.8 18.3 L7.55 18.3 9.15 18.3 11.15 18.3 Q11.75 18.3 12.35 18.35 L13.65 18.5 Q13.15 18.65 12.65 18.85 L9.35 18.85 9.35 18.55 7.2 18.45 2.95 18.45 1.4 18.45 Q1.1 18.5 0.8 18.55 L0.8 19.05 0.8 20.05 1.35 20.15 2.35 20.15 2.95 20.15 7.85 20.1 9.15 20.1 9.35 20.1 9.35 19.4 8.9 19.4 6.0 19.4 5.8 19.25 13.45 19.25 13.65 19.25 13.65 20.25 13.1 20.25 10.0 20.25 Q8.8 20.25 7.6 20.25 L0.5 20.3 -3.45 20.1 -3.45 18.6 -3.45 18.5 M18.2 19.7 Q19.75 19.6 21.3 19.5 L24.2 19.5 26.9 19.5 27.8 19.25 26.85 19.15 26.0 19.15 Q25.6 19.15 25.15 19.15 L24.15 19.15 22.4 19.2 22.25 19.35 20.85 19.35 Q19.7 19.35 18.55 19.35 L18.55 19.2 19.2 19.05 21.5 19.0 22.5 19.0 Q23.55 19.0 24.65 19.0 L27.55 19.0 31.5 19.2 31.5 20.25 29.05 20.25 26.65 20.25 24.65 20.25 Q23.4 20.25 22.15 20.3 L21.65 20.3 18.2 20.1 18.2 19.7 M21.85 19.8 Q22.5 19.75 23.2 19.7 L25.0 19.7 27.8 19.7 Q27.45 20.1 27.1 20.1 L26.1 20.1 25.4 20.1 Q24.75 20.1 24.1 20.15 L21.85 20.05 21.85 19.8 M36.4 19.1 L37.8 19.1 Q38.6 19.1 39.4 19.1 L40.4 19.1 41.1 19.1 Q41.9 19.1 42.7 19.1 L44.5 19.0 47.45 19.05 48.9 19.05 49.9 19.05 53.9 19.0 55.65 19.0 Q56.0 19.0 56.35 19.0 L56.65 19.0 57.3 19.1 57.85 19.2 57.85 20.3 54.2 20.3 54.2 19.7 54.2 19.25 53.7 19.15 52.4 19.15 48.8 19.2 48.8 20.3 Q48.45 20.3 48.1 20.3 L47.8 20.3 47.2 20.3 45.4 20.3 45.4 19.25 43.6 19.15 41.85 19.15 40.95 19.2 40.05 19.2 40.05 20.3 36.4 20.3 36.4 19.1 M62.65 19.2 Q64.6 19.1 66.6 19.0 L71.65 19.0 Q73.65 19.1 75.65 19.2 L75.65 19.7 66.3 19.7 66.3 20.05 Q68.25 20.1 70.25 20.15 71.15 20.1 72.1 20.05 L72.1 19.95 75.75 19.95 75.75 20.1 Q73.8 20.2 71.8 20.3 L66.6 20.3 Q64.65 20.2 62.65 20.1 L62.65 19.2 M66.3 19.25 Q67.2 19.2 68.1 19.15 70.0 19.2 71.95 19.25 L71.95 19.55 66.3 19.55 66.3 19.25 Z"/>
    </path>
  </g>
</svg>
