<?xml version="1.0" encoding="UTF-8" standalone="no"?>
<svg xmlns:ffdec="https://www.free-decompiler.com/flash" xmlns:xlink="http://www.w3.org/1999/xlink" ffdec:objectType="shape" height="100.0px" width="100.0px" xmlns="http://www.w3.org/2000/svg">
  <g transform="matrix(1.0, 0.0, 0.0, 1.0, 0.0, 0.0)">
    <path d="M85.35 85.35 Q70.7 100.0 50.0 100.0 29.3 100.0 14.65 85.35 0.0 70.7 0.0 50.0 0.0 29.25 14.65 14.6 29.3 0.0 50.0 0.0 70.7 0.0 85.35 14.6 100.0 29.25 100.0 50.0 100.0 70.7 85.35 85.35 M26.4 19.45 L26.6 28.05 26.7 28.4 26.9 28.5 26.95 28.5 33.0 29.8 63.45 71.8 62.65 78.05 62.65 78.35 68.7 86.65 69.05 86.85 69.35 86.75 69.55 86.45 70.5 80.25 70.45 79.9 71.2 79.4 71.45 79.55 77.7 80.55 78.0 80.45 78.2 80.15 78.1 79.85 72.05 71.55 71.85 71.35 65.6 70.2 35.1 28.15 35.2 28.05 35.8 22.05 35.75 21.8 35.5 21.6 27.35 18.75 26.95 18.7 26.75 19.0 26.45 19.1 26.4 19.45 M26.7 31.4 L26.45 31.2 26.25 31.5 25.45 34.05 24.5 36.25 22.75 40.75 22.75 42.5 25.25 43.25 27.5 44.0 Q29.15 44.0 30.75 39.35 30.75 38.45 29.1 36.95 L27.25 35.0 Q27.1 34.5 27.25 33.75 L27.25 32.5 26.7 31.4 M28.3 68.5 Q29.25 67.55 30.55 67.55 31.85 67.55 32.8 68.5 33.7 69.45 33.7 70.75 33.7 72.05 32.8 73.0 31.85 73.95 30.55 73.95 29.25 73.95 28.3 73.0 27.35 72.05 27.35 70.75 27.35 69.45 28.3 68.5 M25.6 64.3 Q21.95 66.85 21.95 70.5 21.95 74.1 25.6 76.65 L28.0 78.0 Q27.0 79.05 26.8 80.45 L26.75 81.15 26.75 81.55 30.35 81.55 30.35 79.45 31.25 79.45 31.25 81.55 33.65 81.55 33.65 79.2 34.45 79.2 34.8 79.2 34.8 81.55 37.15 81.55 37.15 79.35 38.1 79.35 38.1 81.55 41.6 81.55 41.6 81.15 41.55 80.45 Q41.35 79.2 40.5 78.15 42.0 77.55 43.3 76.65 47.0 74.1 47.0 70.5 47.0 66.85 43.3 64.3 39.65 61.8 34.45 61.8 29.25 61.8 25.6 64.3 M36.65 68.5 Q37.6 67.55 38.9 67.55 40.2 67.55 41.15 68.5 42.1 69.45 42.1 70.75 42.1 72.05 41.15 73.0 40.2 73.95 38.9 73.95 37.6 73.95 36.65 73.0 35.7 72.05 35.7 70.75 35.7 69.45 36.65 68.5 M35.65 76.35 L34.8 76.55 33.95 76.35 33.65 75.95 33.95 75.5 34.8 75.3 35.65 75.5 36.0 75.95 35.65 76.35" fill="#767676" fill-opacity="0.9764706" fill-rule="evenodd" stroke="none"/>
  </g>
</svg>
