<?xml version="1.0" encoding="UTF-8" standalone="no"?>
<svg xmlns:ffdec="https://www.free-decompiler.com/flash" xmlns:xlink="http://www.w3.org/1999/xlink" ffdec:objectType="shape" height="100.0px" width="100.0px" xmlns="http://www.w3.org/2000/svg">
  <g transform="matrix(1.0, 0.0, 0.0, 1.0, 0.0, 0.0)">
    <path d="M85.35 85.35 Q70.7 100.0 50.0 100.0 29.3 100.0 14.65 85.35 0.0 70.7 0.0 50.0 0.0 29.25 14.65 14.6 29.3 0.0 50.0 0.0 70.7 0.0 85.35 14.6 100.0 29.25 100.0 50.0 100.0 70.7 85.35 85.35 M79.45 42.85 Q74.3 42.6 69.5 46.95 72.6 38.05 67.7 27.35 57.1 12.1 41.95 17.6 26.65 24.95 28.3 42.6 28.55 46.7 29.5 50.45 24.9 49.9 21.2 44.85 18.95 41.25 16.7 47.6 16.85 52.2 19.45 55.1 26.35 57.55 31.25 55.95 34.65 64.5 41.95 71.1 59.4 87.4 73.95 81.1 60.1 72.85 67.2 51.6 75.6 47.35 79.95 50.35 85.0 50.85 84.2 46.35 84.15 44.6 79.45 42.85" fill="#767676" fill-opacity="0.9764706" fill-rule="evenodd" stroke="none"/>
    <path d="M56.65 31.85 L57.5 31.8 Q60.3 31.8 62.2 33.7 64.15 35.7 64.15 38.45 64.15 41.2 62.2 43.15 60.3 45.1 57.5 45.1 54.75 45.1 52.75 43.15 50.85 41.2 50.85 38.45 50.85 35.7 52.75 33.7 L53.65 33.0 Q54.9 31.85 56.65 31.85 M45.85 33.75 Q47.8 35.75 47.8 38.5 47.8 41.25 45.85 43.2 43.95 45.15 41.15 45.15 38.4 45.15 36.4 43.2 34.5 41.25 34.5 38.5 34.5 35.75 36.4 33.75 38.4 31.85 41.15 31.85 L41.65 31.9 Q43.75 32.0 45.3 33.3 L45.85 33.75" fill="#747474" fill-opacity="0.9764706" fill-rule="evenodd" stroke="none"/>
  </g>
</svg>
