<?xml version="1.0" encoding="UTF-8" standalone="no"?>
<svg xmlns:ffdec="https://www.free-decompiler.com/flash" xmlns:xlink="http://www.w3.org/1999/xlink" ffdec:objectType="shape" height="100.0px" width="100.0px" xmlns="http://www.w3.org/2000/svg">
  <g transform="matrix(1.0, 0.0, 0.0, 1.0, 0.0, 0.0)">
    <path d="M52.0 13.75 Q52.1 13.0 52.75 12.2 L51.25 13.5 52.0 13.75 M65.5 11.5 Q65.5 10.5 64.5 10.0 63.35 9.35 63.15 8.9 L62.55 7.5 Q62.1 6.6 61.25 6.25 L55.8 9.85 61.25 6.75 Q62.7 8.35 64.65 12.1 66.85 15.4 71.15 16.75 66.9 19.15 64.25 21.8 62.6 23.45 61.75 25.0 L28.35 25.0 Q28.55 37.7 30.45 50.7 L26.35 49.3 Q24.0 48.55 24.0 46.45 L24.75 44.0 23.75 42.6 Q22.75 41.45 22.75 40.9 22.75 40.0 23.25 39.5 23.75 39.0 23.75 38.0 23.75 36.65 23.1 36.25 21.85 35.55 17.25 35.5 L17.0 35.9 Q20.9 35.85 22.35 36.65 23.25 37.2 23.25 38.25 23.25 39.05 22.75 39.8 22.25 40.5 22.25 41.4 L23.25 42.9 24.25 44.35 23.5 46.9 Q23.5 48.1 23.7 48.4 24.25 49.15 26.5 49.65 27.3 49.85 30.35 51.4 L30.55 51.5 31.4 56.55 30.85 57.65 26.6 61.4 Q25.7 62.3 25.7 63.4 L25.75 65.35 Q25.75 66.75 23.65 67.5 21.5 68.2 21.5 68.55 L21.9 69.45 22.25 70.2 Q22.25 70.8 19.45 73.35 16.6 75.95 16.5 76.65 L18.75 76.75 25.9 76.5 33.0 76.4 33.25 76.0 19.0 76.0 17.0 76.15 17.1 75.85 21.05 72.65 Q22.75 71.25 22.75 69.65 L22.1 68.35 Q25.6 68.0 26.1 65.7 26.0 63.1 26.4 62.25 L29.35 59.25 31.45 57.0 Q32.6 63.35 34.1 69.75 41.05 78.7 50.35 84.0 L51.0 84.0 Q60.45 79.25 67.25 69.75 72.65 46.95 73.0 25.0 L62.05 25.0 Q63.15 23.15 65.25 21.25 L69.15 18.7 72.5 16.25 68.05 14.25 Q65.55 13.05 65.5 11.5 M81.25 59.25 Q83.0 58.6 83.0 57.8 L80.0 55.25 Q77.0 52.6 77.0 51.75 77.0 51.25 78.25 50.3 79.5 49.3 79.5 48.5 L77.65 46.45 Q75.75 44.55 75.75 43.7 75.75 42.2 77.7 40.35 80.3 37.85 81.0 36.65 L79.6 35.5 78.0 35.5 77.75 35.9 Q79.65 36.0 80.35 37.25 L77.05 40.8 Q75.25 42.75 75.25 44.15 75.25 45.6 79.0 48.8 L77.75 50.35 Q76.5 51.5 76.5 52.05 76.5 53.75 82.5 58.0 81.9 58.65 79.8 59.45 L77.5 60.4 81.25 59.25 M87.35 82.9 L87.4 83.25 85.35 85.35 Q70.7 100.0 50.0 100.0 29.3 100.0 14.65 85.35 0.0 70.7 0.0 50.0 0.0 29.25 14.65 14.6 29.3 0.0 50.0 0.0 70.7 0.0 85.35 14.6 100.0 29.25 100.0 50.0 100.0 68.7 88.1 82.45 82.85 80.05 82.05 79.55 80.25 78.4 80.25 76.65 80.25 76.1 81.25 75.4 82.25 74.7 82.25 73.75 82.25 72.95 80.9 72.65 L71.75 71.75 71.5 72.15 79.65 73.1 Q81.75 73.25 81.75 74.15 81.75 74.45 80.75 75.35 79.75 76.3 79.75 77.0 79.75 79.15 83.55 81.1 L87.35 82.9" fill="#767676" fill-opacity="0.9764706" fill-rule="evenodd" stroke="none"/>
  </g>
</svg>
