<?xml version="1.0" encoding="UTF-8" standalone="no"?>
<svg xmlns:ffdec="https://www.free-decompiler.com/flash" xmlns:xlink="http://www.w3.org/1999/xlink" ffdec:objectType="shape" height="100.0px" width="100.0px" xmlns="http://www.w3.org/2000/svg">
  <g transform="matrix(1.0, 0.0, 0.0, 1.0, 0.0, 0.0)">
    <path d="M81.35 70.7 Q87.5 65.6 87.5 58.45 87.5 51.3 81.35 46.2 79.55 44.75 77.55 43.7 L67.25 22.1 56.8 43.05 Q54.0 44.25 51.65 46.2 45.5 51.3 45.5 58.45 45.5 65.6 51.65 70.7 57.8 75.75 66.5 75.75 75.2 75.75 81.35 70.7 M85.35 85.35 Q70.7 100.0 50.0 100.0 29.3 100.0 14.65 85.35 0.0 70.7 0.0 50.0 0.0 29.25 14.65 14.6 29.3 0.0 50.0 0.0 70.7 0.0 85.35 14.6 100.0 29.25 100.0 50.0 100.0 70.7 85.35 85.35 M71.25 61.1 Q70.15 59.8 69.8 56.55 L69.7 56.4 84.55 51.95 Q77.8 60.6 74.05 61.8 72.3 62.35 71.25 61.1 M10.7 26.9 L7.65 41.6 26.2 59.9 14.1 67.55 18.7 69.25 28.8 62.95 33.7 70.65 32.6 71.25 33.9 73.3 42.6 67.85 41.35 65.8 40.35 66.5 35.5 58.75 45.6 52.35 46.05 47.45 33.95 55.1 25.4 30.45 10.9 26.7 10.7 26.9 M63.1 61.25 Q62.05 62.5 60.3 61.95 56.55 60.75 49.8 52.1 L64.65 56.55 64.55 56.7 Q64.2 59.95 63.1 61.25" fill="#747474" fill-rule="evenodd" stroke="none"/>
  </g>
</svg>
