<?xml version="1.0" encoding="UTF-8" standalone="no"?>
<svg xmlns:ffdec="https://www.free-decompiler.com/flash" xmlns:xlink="http://www.w3.org/1999/xlink" ffdec:objectType="shape" height="30.0px" width="30.0px" xmlns="http://www.w3.org/2000/svg">
  <g transform="matrix(1.0, 0.0, 0.0, 1.0, 15.0, 15.0)">
    <path d="M12.05 0.0 Q12.05 -5.0 8.55 -8.5 5.0 -12.05 0.0 -12.05 -5.0 -12.05 -8.5 -8.55 L-8.55 -8.5 Q-12.05 -5.0 -12.05 0.0 -12.05 5.0 -8.5 8.55 -5.0 12.1 0.0 12.1 5.0 12.1 8.55 8.55 12.05 5.0 12.05 0.0 M10.65 -10.6 Q15.0 -6.2 15.0 0.0 15.0 6.25 10.65 10.6 L10.6 10.65 Q6.25 15.0 0.0 15.0 -6.25 15.0 -10.6 10.65 -15.0 6.25 -15.0 0.0 -15.0 -6.2 -10.6 -10.6 -6.25 -15.0 0.0 -15.0 6.25 -15.0 10.65 -10.6" fill="#7f7f7f" fill-opacity="0.85882354" fill-rule="evenodd" stroke="none"/>
    <path d="M7.05 7.35 Q4.1 10.3 -0.1 10.3 -4.3 10.3 -7.3 7.35 -10.25 4.35 -10.25 0.15 -10.25 -4.05 -7.3 -7.05 -4.3 -10.0 -0.1 -10.0 4.1 -10.0 7.05 -7.05 10.05 -4.05 10.05 0.15 10.05 4.35 7.05 7.35" fill="#767676" fill-opacity="0.9764706" fill-rule="evenodd" stroke="none"/>
  </g>
</svg>
