<?xml version="1.0" encoding="UTF-8" standalone="no"?>
<svg xmlns:ffdec="https://www.free-decompiler.com/flash" xmlns:xlink="http://www.w3.org/1999/xlink" ffdec:objectType="shape" height="100.0px" width="100.0px" xmlns="http://www.w3.org/2000/svg">
  <g transform="matrix(1.0, 0.0, 0.0, 1.0, 0.0, 0.0)">
    <path d="M86.1 29.65 Q85.4 29.05 84.5 29.05 L63.7 29.05 52.45 9.55 Q51.95 8.75 51.1 8.45 50.25 8.15 49.4 8.45 48.55 8.75 48.1 9.55 L36.8 29.05 16.0 29.05 Q15.1 29.05 14.4 29.65 13.7 30.25 13.55 31.15 13.35 32.0 13.85 32.8 L24.25 50.8 13.85 68.85 Q13.4 69.65 13.55 70.55 13.7 71.45 14.4 72.05 15.1 72.6 16.0 72.6 L36.8 72.6 48.1 92.1 Q48.55 92.9 49.4 93.2 50.25 93.5 51.1 93.2 51.95 92.9 52.45 92.1 L63.7 72.6 84.5 72.6 Q85.4 72.6 86.1 72.05 86.8 71.45 86.95 70.55 87.1 69.65 86.7 68.85 L76.3 50.8 86.7 32.8 Q87.1 32.0 86.95 31.1 86.8 30.2 86.1 29.65 M85.35 85.35 Q70.7 100.0 50.0 100.0 29.3 100.0 14.65 85.35 0.0 70.7 0.0 50.0 0.0 29.25 14.65 14.6 29.3 0.0 50.0 0.0 70.7 0.0 85.35 14.6 100.0 29.25 100.0 50.0 100.0 70.7 85.35 85.35 M42.6 29.05 L50.25 15.8 57.95 29.05 42.6 29.05 M80.2 34.05 L73.4 45.8 66.6 34.05 80.2 34.05 M33.95 34.05 L27.15 45.8 20.35 34.05 33.95 34.05 M27.15 55.85 L33.95 67.6 20.35 67.6 27.15 55.85 M30.05 50.8 L39.7 34.05 60.85 34.05 70.5 50.8 60.8 67.6 39.7 67.6 30.05 50.8 M66.6 67.6 L73.4 55.85 80.2 67.6 66.6 67.6 M57.9 72.6 L50.25 85.85 42.6 72.6 57.9 72.6" fill="#767676" fill-opacity="0.9764706" fill-rule="evenodd" stroke="none"/>
  </g>
</svg>
