<?xml version="1.0" encoding="UTF-8" standalone="no"?>
<svg xmlns:ffdec="https://www.free-decompiler.com/flash" xmlns:xlink="http://www.w3.org/1999/xlink" ffdec:objectType="shape" height="100.0px" width="100.0px" xmlns="http://www.w3.org/2000/svg">
  <g transform="matrix(1.0, 0.0, 0.0, 1.0, 0.0, 0.0)">
    <path d="M85.35 85.35 Q70.7 100.0 50.0 100.0 29.35 100.0 14.65 85.35 0.0 70.7 0.0 50.0 0.0 29.3 14.65 14.65 29.35 0.0 50.0 0.0 70.7 0.0 85.35 14.65 100.0 29.3 100.0 50.0 100.0 70.7 85.35 85.35 M84.15 55.05 L84.95 46.9 64.9 59.55 50.75 18.75 26.75 12.6 26.4 12.9 21.4 37.2 52.1 67.5 32.05 80.15 39.7 83.0 56.4 72.55 64.45 85.25 62.7 86.3 64.8 89.7 79.2 80.65 77.15 77.3 75.45 78.4 67.45 65.6 84.15 55.05" fill="#767676" fill-opacity="0.9764706" fill-rule="evenodd" stroke="none"/>
  </g>
</svg>
