<?xml version="1.0" encoding="UTF-8" standalone="no"?>
<svg xmlns:ffdec="https://www.free-decompiler.com/flash" xmlns:xlink="http://www.w3.org/1999/xlink" ffdec:objectType="shape" height="100.0px" width="100.0px" xmlns="http://www.w3.org/2000/svg">
  <g transform="matrix(1.0, 0.0, 0.0, 1.0, 0.0, 0.0)">
    <path d="M88.6 81.85 L70.65 67.0 71.05 66.6 75.8 61.65 80.65 54.9 70.8 49.55 66.35 52.7 72.35 59.05 Q64.7 64.65 57.1 66.6 49.05 68.65 41.0 66.6 35.85 65.3 30.7 62.3 L36.35 51.2 31.9 50.5 23.0 61.4 23.2 62.15 26.95 66.6 Q38.5 79.0 50.9 77.6 L79.6 90.4 Q66.8 100.0 50.0 100.0 29.3 100.0 14.65 85.35 0.0 70.7 0.0 50.0 0.0 29.25 14.65 14.6 29.3 0.0 50.0 0.0 70.7 0.0 85.35 14.6 100.0 29.25 100.0 50.0 100.0 68.25 88.6 81.85 M52.75 31.4 L56.4 7.55 41.5 38.4 51.6 38.4 49.35 64.8 49.85 65.1 63.1 31.4 52.75 31.4" fill="#767676" fill-opacity="0.9764706" fill-rule="evenodd" stroke="none"/>
  </g>
</svg>
