<?xml version="1.0" encoding="UTF-8" standalone="no"?>
<svg xmlns:ffdec="https://www.free-decompiler.com/flash" xmlns:xlink="http://www.w3.org/1999/xlink" ffdec:objectType="shape" height="100.0px" width="100.0px" xmlns="http://www.w3.org/2000/svg">
  <g transform="matrix(1.0, 0.0, 0.0, 1.0, 0.0, 0.0)">
    <path d="M85.35 85.35 Q70.7 100.0 50.0 100.0 29.3 100.0 14.65 85.35 0.0 70.7 0.0 50.0 0.0 29.25 14.65 14.6 29.3 0.0 50.0 0.0 70.7 0.0 85.35 14.6 100.0 29.25 100.0 50.0 100.0 70.7 85.35 85.35 M28.2 18.4 L28.25 18.65 28.3 18.65 45.35 53.9 50.7 63.2 50.85 63.35 44.75 64.95 Q44.45 65.0 44.4 65.25 L44.3 65.7 44.6 66.05 45.05 66.15 52.05 64.3 52.15 64.65 52.05 64.7 51.95 64.9 55.25 68.4 60.5 76.65 60.35 79.45 Q60.3 79.55 60.4 79.65 L60.5 79.8 64.05 81.05 64.25 81.05 64.4 80.85 64.45 80.8 64.55 80.8 64.75 80.75 64.9 80.55 65.55 76.9 65.55 76.65 65.4 76.55 62.8 75.35 58.35 66.55 57.0 62.0 56.75 62.0 56.65 62.05 56.35 61.8 61.5 56.65 61.65 56.2 61.45 55.8 61.05 55.65 Q60.75 55.6 60.6 55.8 L56.15 60.25 56.1 60.1 50.75 50.8 28.8 18.35 28.75 18.35 28.6 18.15 28.35 18.25 28.2 18.4" fill="#767676" fill-opacity="0.9764706" fill-rule="evenodd" stroke="none"/>
  </g>
</svg>
