<?xml version="1.0" encoding="UTF-8" standalone="no"?>
<svg xmlns:ffdec="https://www.free-decompiler.com/flash" xmlns:xlink="http://www.w3.org/1999/xlink" ffdec:objectType="shape" height="100.0px" width="100.0px" xmlns="http://www.w3.org/2000/svg">
  <g transform="matrix(1.0, 0.0, 0.0, 1.0, 0.0, 0.0)">
    <path d="M85.35 85.35 Q70.7 100.0 50.0 100.0 29.3 100.0 14.65 85.35 0.0 70.7 0.0 50.0 0.0 29.25 14.65 14.6 29.3 0.0 50.0 0.0 70.7 0.0 85.35 14.6 100.0 29.25 100.0 50.0 100.0 70.7 85.35 85.35 M83.6 77.4 L47.4 30.6 49.45 29.05 Q53.25 26.2 56.2 27.5 L46.6 15.05 Q47.45 18.3 43.7 20.65 L41.2 22.55 36.75 16.85 34.3 18.75 38.75 24.45 35.0 27.4 Q31.55 29.25 26.15 30.85 20.65 32.45 9.8 30.1 L36.3 64.3 Q35.0 47.9 39.5 39.45 41.5 35.0 44.95 32.5 L81.25 79.5 83.6 77.4" fill="#767676" fill-opacity="0.9764706" fill-rule="evenodd" stroke="none"/>
  </g>
</svg>
