<?xml version="1.0" encoding="UTF-8" standalone="no"?>
<svg xmlns:ffdec="https://www.free-decompiler.com/flash" xmlns:xlink="http://www.w3.org/1999/xlink" ffdec:objectType="shape" height="100.0px" width="100.0px" xmlns="http://www.w3.org/2000/svg">
  <g transform="matrix(1.0, 0.0, 0.0, 1.0, 0.0, 0.0)">
    <path d="M85.35 85.35 Q70.7 100.0 50.0 100.0 29.3 100.0 14.65 85.35 0.0 70.7 0.0 50.0 0.0 29.25 14.65 14.6 29.3 0.0 50.0 0.0 70.7 0.0 85.35 14.6 100.0 29.25 100.0 50.0 100.0 70.7 85.35 85.35 M51.9 27.5 L51.3 27.5 44.55 25.5 35.05 28.75 27.05 69.0 27.05 72.25 Q31.3 73.55 35.55 72.25 L35.55 68.5 39.3 37.5 Q42.05 49.85 42.05 64.0 L40.3 69.25 43.3 72.25 48.05 69.0 Q51.15 67.6 55.15 69.0 L59.9 72.25 62.9 69.25 61.15 64.0 Q60.15 50.75 63.9 37.5 L67.65 68.5 67.65 72.25 Q73.35 74.15 76.15 72.25 L76.15 69.0 68.15 28.75 58.65 25.5 51.9 27.5" fill="#767676" fill-opacity="0.9764706" fill-rule="evenodd" stroke="none"/>
  </g>
</svg>
