<?xml version="1.0" encoding="UTF-8" standalone="no"?>
<svg xmlns:ffdec="https://www.free-decompiler.com/flash" xmlns:xlink="http://www.w3.org/1999/xlink" ffdec:objectType="shape" height="100.0px" width="100.0px" xmlns="http://www.w3.org/2000/svg">
  <g transform="matrix(1.0, 0.0, 0.0, 1.0, 0.0, 0.0)">
    <path d="M85.35 85.35 Q70.7 100.0 50.0 100.0 29.3 100.0 14.65 85.35 0.0 70.7 0.0 50.0 0.0 29.25 14.65 14.6 29.3 0.0 50.0 0.0 70.7 0.0 85.35 14.6 100.0 29.25 100.0 50.0 100.0 70.7 85.35 85.35 M69.65 48.95 Q76.0 50.85 76.3 53.1 76.0 55.3 69.65 57.2 L69.6 57.25 Q64.65 58.75 58.35 59.25 L58.35 59.2 Q58.35 56.6 56.5 54.75 54.7 52.95 52.1 52.95 49.45 52.95 47.6 54.75 45.8 56.6 45.8 59.2 L45.8 59.3 Q38.45 58.9 33.0 57.25 L33.0 57.2 Q26.6 55.3 26.3 53.1 26.6 50.85 33.0 48.95 40.55 46.7 51.3 46.7 62.05 46.7 69.65 48.95 M70.5 46.05 Q62.55 43.7 51.3 43.7 40.05 43.7 32.15 46.05 L32.15 46.1 Q23.0 48.85 23.3 53.1 22.95 57.4 32.15 60.1 38.0 61.9 45.95 62.3 L46.55 62.2 Q46.95 63.0 47.6 63.65 49.45 65.5 52.1 65.5 54.7 65.5 56.5 63.65 L57.65 62.15 58.35 62.25 Q65.15 61.75 70.5 60.1 79.65 57.4 79.3 53.1 79.6 48.85 70.5 46.1 L70.5 46.05" fill="#767676" fill-opacity="0.9764706" fill-rule="evenodd" stroke="none"/>
  </g>
</svg>
