<?xml version="1.0" encoding="UTF-8" standalone="no"?>
<svg xmlns:ffdec="https://www.free-decompiler.com/flash" xmlns:xlink="http://www.w3.org/1999/xlink" ffdec:objectType="shape" height="100.0px" width="100.0px" xmlns="http://www.w3.org/2000/svg">
  <g transform="matrix(1.0, 0.0, 0.0, 1.0, 0.0, 0.0)">
    <path d="M85.35 85.35 Q70.7 100.0 50.0 100.0 29.3 100.0 14.65 85.35 0.0 70.7 0.0 50.0 0.0 29.25 14.65 14.6 29.3 0.0 50.0 0.0 70.7 0.0 85.35 14.6 100.0 29.25 100.0 50.0 100.0 70.7 85.35 85.35 M60.45 32.65 L55.7 31.05 Q52.55 32.55 51.45 33.2 50.35 33.85 45.2 31.05 L41.95 32.65 36.65 32.35 Q36.1 33.1 33.95 32.55 31.75 31.95 29.55 33.6 26.8 34.8 27.45 38.2 27.85 41.6 26.45 42.9 L35.4 42.9 Q36.4 53.95 38.65 57.75 L41.95 72.65 60.45 72.65 63.75 57.75 Q66.0 53.95 66.95 42.9 L75.95 42.9 Q74.55 41.6 74.95 38.2 75.6 34.8 72.85 33.6 70.6 31.95 68.45 32.55 L65.75 32.35 60.45 32.65" fill="#767676" fill-opacity="0.9764706" fill-rule="evenodd" stroke="none"/>
  </g>
</svg>
