<?xml version="1.0" encoding="UTF-8" standalone="no"?>
<svg xmlns:ffdec="https://www.free-decompiler.com/flash" xmlns:xlink="http://www.w3.org/1999/xlink" ffdec:objectType="shape" height="69.25px" width="369.6px" xmlns="http://www.w3.org/2000/svg">
  <g transform="matrix(1.0, 0.0, 0.0, 1.0, 0.0, -15.05)">
    <path d="M27.3 53.4 Q27.25 52.2 26.4 51.35 25.6 50.5 24.3 50.45 L8.05 50.45 Q6.85 50.5 6.0 51.35 5.15 52.2 5.1 53.4 L5.1 75.45 Q5.15 76.75 6.0 77.6 6.85 78.45 8.05 78.45 L24.3 78.45 Q25.6 78.45 26.4 77.6 27.25 76.75 27.3 75.45 L27.3 53.4 M10.45 15.2 L15.55 15.2 15.55 26.0 31.9 26.0 31.9 31.1 15.55 31.1 15.55 45.35 24.3 45.35 Q27.7 45.4 30.05 47.65 32.3 49.95 32.4 53.4 L32.4 75.45 Q32.3 78.85 30.05 81.2 27.7 83.45 24.3 83.55 L8.05 83.55 Q4.6 83.45 2.35 81.2 0.1 78.85 0.0 75.45 L0.0 53.4 Q0.1 49.95 2.35 47.65 4.6 45.4 8.05 45.35 L10.45 45.35 10.45 15.2 M67.3 18.5 L67.3 21.75 Q67.3 24.45 66.05 26.55 64.85 28.7 62.7 29.95 60.6 31.15 57.9 31.15 L48.55 31.15 Q49.35 38.35 51.0 45.05 52.65 51.7 55.15 57.95 L59.7 51.8 63.35 45.35 67.95 47.5 Q65.9 51.7 63.25 55.65 60.6 59.6 57.3 63.25 59.5 68.0 62.2 72.5 64.85 76.95 68.0 81.2 L63.85 84.2 Q60.9 80.1 58.3 75.9 55.8 71.65 53.65 67.2 L47.1 73.05 Q43.6 75.9 39.7 78.55 L36.85 74.25 Q41.05 71.4 44.65 68.4 L51.3 62.2 Q48.3 54.95 46.3 47.2 44.35 39.5 43.4 31.15 L36.25 31.15 36.25 26.05 42.9 26.05 42.6 21.25 42.55 16.3 47.65 16.3 47.7 21.25 48.0 26.05 57.9 26.05 Q59.8 26.05 60.95 24.85 62.2 23.65 62.2 21.75 L62.2 18.5 67.3 18.5 M83.4 21.1 L114.15 36.35 112.0 40.95 81.2 25.65 83.4 21.1 M81.2 43.25 L83.4 38.75 114.15 54.05 112.0 58.65 81.2 43.25 M121.85 15.1 L127.0 15.1 127.0 61.2 142.95 58.85 143.65 63.95 127.0 66.4 127.0 84.1 121.85 84.1 121.85 67.15 75.7 73.7 75.05 68.6 121.85 61.85 121.85 15.1 M214.0 17.45 L214.0 22.55 187.0 22.55 186.0 32.1 Q185.4 36.6 184.45 40.55 L216.8 40.55 216.8 45.7 194.1 45.7 194.1 74.55 Q194.1 76.4 195.35 77.6 196.6 78.85 198.45 78.9 L218.75 78.9 218.75 84.0 198.45 84.0 Q195.8 83.95 193.65 82.75 191.5 81.45 190.25 79.3 189.0 77.2 188.95 74.55 L188.95 45.7 183.1 45.7 Q180.45 54.55 176.3 61.5 172.05 68.4 166.35 73.95 160.65 79.55 153.35 84.3 L150.55 80.05 Q157.05 75.75 162.25 70.8 167.4 65.8 171.25 59.65 175.15 53.55 177.65 45.7 L153.05 45.7 153.05 40.55 179.05 40.55 Q180.1 36.6 180.8 32.1 L181.9 22.55 155.95 22.55 155.95 17.45 214.0 17.45 M292.2 37.9 L292.2 43.0 265.5 43.0 265.5 78.9 292.75 78.9 292.75 84.0 227.1 84.0 227.1 78.9 236.05 78.9 236.05 24.5 241.15 24.5 241.15 78.9 260.4 78.9 260.4 15.05 265.5 15.05 265.5 37.9 292.2 37.9 M308.7 20.55 L313.8 20.55 313.8 33.2 321.2 33.2 321.2 38.35 313.8 38.35 313.8 70.5 321.2 68.0 322.85 72.8 302.5 79.8 300.85 74.95 308.7 72.3 308.7 38.35 301.15 38.35 301.15 33.2 308.7 33.2 308.7 20.55 M362.2 60.9 L362.2 58.75 331.7 58.75 331.7 60.9 Q331.75 62.2 332.6 63.05 333.45 63.95 334.75 63.95 L359.2 63.95 Q360.5 63.95 361.35 63.05 362.15 62.2 362.2 60.9 M359.2 48.65 L334.75 48.65 Q333.45 48.7 332.6 49.55 331.75 50.4 331.7 51.65 L331.7 53.6 362.2 53.6 362.2 51.65 Q362.15 50.4 361.35 49.55 360.5 48.7 359.2 48.65 M329.05 45.9 Q331.3 43.65 334.75 43.55 L359.2 43.55 Q362.6 43.65 364.95 45.9 367.2 48.25 367.3 51.65 L367.3 60.9 Q367.2 64.35 364.95 66.65 362.6 68.95 359.2 69.05 L357.7 69.05 357.7 75.6 Q357.7 76.9 358.55 77.8 359.4 78.7 360.7 78.75 L369.3 78.75 369.3 83.85 360.7 83.85 Q358.5 83.85 356.65 82.75 354.8 81.65 353.7 79.75 352.6 77.85 352.55 75.6 L352.55 69.05 340.55 69.05 Q338.9 73.85 335.85 77.6 332.85 81.35 328.65 84.25 L325.7 79.95 Q328.9 77.8 331.3 75.15 333.6 72.45 335.05 69.05 L334.75 69.05 Q331.3 68.95 329.05 66.65 326.75 64.35 326.6 60.9 L326.6 51.65 Q326.75 48.25 329.05 45.9 M369.6 35.45 L369.6 40.55 324.6 40.55 324.6 35.45 331.3 35.45 331.3 27.25 336.4 27.25 336.4 35.45 357.85 35.45 357.85 27.25 363.0 27.25 363.0 35.45 369.6 35.45 M368.3 19.95 L368.3 25.05 325.95 25.05 325.95 19.95 344.55 19.95 344.55 15.3 349.65 15.3 349.65 19.95 368.3 19.95" fill="#ffffff" fill-rule="evenodd" stroke="none"/>
  </g>
</svg>
