<?xml version="1.0" encoding="UTF-8" standalone="no"?>
<svg xmlns:ffdec="https://www.free-decompiler.com/flash" xmlns:xlink="http://www.w3.org/1999/xlink" ffdec:objectType="shape" height="19.75px" width="20.6px" xmlns="http://www.w3.org/2000/svg">
  <g transform="matrix(1.0, 0.0, 0.0, 1.0, -9.7, -8.15)">
    <path d="M22.1 12.7 Q22.1 11.8 21.45 11.15 20.75 10.5 19.85 10.5 18.95 10.5 18.25 11.15 17.65 11.8 17.65 12.7 17.65 13.65 18.25 14.3 18.95 14.95 19.85 14.95 20.75 14.95 21.45 14.3 22.1 13.65 22.1 12.7 M24.65 12.9 L24.6 13.35 24.25 15.4 Q23.2 20.3 20.75 24.75 L28.1 24.75 30.3 27.9 9.7 27.9 11.85 24.75 19.0 24.75 Q16.45 20.3 15.35 15.4 L15.05 13.35 15.0 12.9 Q15.0 10.9 16.35 9.5 17.75 8.15 19.75 8.15 L19.85 8.15 Q21.85 8.15 23.25 9.5 24.65 10.9 24.65 12.9" fill="#ffffff" fill-rule="evenodd" stroke="none"/>
  </g>
</svg>
