<?xml version="1.0" encoding="UTF-8" standalone="no"?>
<svg xmlns:ffdec="https://www.free-decompiler.com/flash" xmlns:xlink="http://www.w3.org/1999/xlink" ffdec:objectType="shape" height="14.0px" width="6.0px" xmlns="http://www.w3.org/2000/svg">
  <g transform="matrix(1.0, 0.0, 0.0, 1.0, 0.0, 0.0)">
    <path d="M5.95 4.95 L4.75 4.95 4.75 4.25 Q4.75 3.65 4.15 3.65 L1.85 3.65 Q1.25 3.65 1.25 4.25 L1.25 5.85 Q1.25 6.35 1.75 6.35 L4.8 6.35 Q6.0 6.35 6.0 7.7 L6.0 10.25 Q6.0 11.55 4.7 11.55 L3.55 11.55 3.55 14.0 2.55 14.0 2.55 11.55 1.3 11.55 Q0.0 11.55 0.0 10.25 L0.0 9.15 1.2 9.15 1.2 9.85 Q1.2 10.45 1.8 10.45 L4.2 10.45 Q4.8 10.45 4.8 9.85 L4.8 8.15 Q4.8 7.45 4.3 7.45 L1.2 7.45 Q0.05 7.45 0.05 6.3 L0.05 3.85 Q0.05 2.55 1.35 2.55 L2.55 2.55 2.55 0.0 3.55 0.0 3.55 2.55 4.65 2.55 Q5.95 2.55 5.95 3.85 L5.95 4.95" fill="#747474" fill-opacity="0.9647059" fill-rule="evenodd" stroke="none"/>
  </g>
</svg>
