<?xml version="1.0" encoding="UTF-8" standalone="no"?>
<svg xmlns:ffdec="https://www.free-decompiler.com/flash" xmlns:xlink="http://www.w3.org/1999/xlink" ffdec:objectType="shape" height="84.35px" width="41.85px" xmlns="http://www.w3.org/2000/svg">
  <g transform="matrix(1.0, 0.0, 0.0, 1.0, 9.05, 4.35)">
    <path d="M20.5 -2.3 Q20.5 -3.15 22.25 -3.75 L26.2 -4.35 26.65 -4.35 30.95 -3.75 Q32.8 -3.15 32.8 -2.3 L32.8 -2.1 32.7 -1.9 Q32.35 -1.3 30.95 -0.85 L32.15 -0.4 3.85 78.45 2.65 77.95 Q2.65 78.8 0.8 79.4 L-3.1 80.0 -7.0 79.4 Q-8.85 78.8 -8.85 77.95 L-9.05 77.9 19.7 -2.1 Q19.8 -1.4 21.45 -0.85 L25.8 -0.25 26.2 -0.25 Q23.95 -0.3 22.25 -0.85 20.5 -1.45 20.5 -2.3" fill="#767676" fill-opacity="0.9764706" fill-rule="evenodd" stroke="none"/>
  </g>
</svg>
