<?xml version="1.0" encoding="UTF-8" standalone="no"?>
<svg xmlns:ffdec="https://www.free-decompiler.com/flash" xmlns:xlink="http://www.w3.org/1999/xlink" ffdec:objectType="shape" height="100.0px" width="100.0px" xmlns="http://www.w3.org/2000/svg">
  <g transform="matrix(1.0, 0.0, 0.0, 1.0, 0.0, 0.0)">
    <path d="M82.8 19.9 L77.25 33.35 91.05 28.4 92.65 23.65 Q100.0 35.25 100.0 50.0 100.0 70.7 85.35 85.35 70.7 100.0 50.0 100.0 29.3 100.0 14.65 85.35 0.0 70.7 0.0 50.0 0.0 29.25 14.65 14.6 29.3 0.0 50.0 0.0 70.7 0.0 85.35 14.6 L88.65 18.2 82.8 19.9 M63.6 43.15 Q63.9 43.5 65.05 42.95 L67.15 41.35 68.75 39.2 Q69.3 38.2 68.95 37.9 L67.65 38.05 65.45 39.7 Q64.3 40.85 63.9 41.85 63.25 42.8 63.6 43.15 M41.1 37.55 Q41.55 36.65 41.25 36.4 40.95 36.1 40.15 36.55 L38.25 37.95 Q37.25 38.95 36.9 39.8 36.35 40.65 36.65 40.95 36.9 41.25 37.9 40.75 L39.7 39.4 41.1 37.55 M51.9 10.05 L52.5 9.95 53.4 9.25 54.1 8.35 Q54.35 7.9 54.2 7.75 L53.65 7.85 52.7 8.55 52.0 9.45 Q51.75 9.9 51.9 10.05 M77.7 24.0 Q77.4 23.7 76.6 24.15 75.65 24.65 74.7 25.55 73.7 26.55 73.35 27.4 72.8 28.25 73.1 28.55 73.35 28.85 74.35 28.35 L76.15 27.0 77.55 25.15 Q78.0 24.25 77.7 24.0 M62.65 20.3 Q62.25 20.9 62.45 21.15 L63.35 21.0 64.65 20.05 65.65 18.7 Q66.0 18.05 65.8 17.85 65.55 17.65 65.0 18.0 64.3 18.35 63.6 19.0 62.9 19.7 62.65 20.3 M86.25 36.15 L87.5 35.2 88.45 33.95 Q88.75 33.3 88.55 33.15 L87.8 33.25 Q87.15 33.6 86.5 34.2 L85.55 35.5 Q85.15 36.05 85.4 36.25 L86.25 36.15 M45.8 15.15 L37.95 34.1 57.45 27.15 63.0 10.05 45.8 15.15 M58.6 73.25 L57.8 73.35 56.45 74.35 Q55.75 75.05 55.5 75.65 55.15 76.25 55.35 76.45 L56.2 76.35 57.5 75.4 58.5 74.1 Q58.8 73.45 58.6 73.25 M57.25 66.2 Q56.55 66.85 56.35 67.4 55.95 68.0 56.15 68.2 L57.0 68.05 58.2 67.15 59.15 65.9 Q59.45 65.3 59.25 65.15 L58.5 65.25 Q57.85 65.6 57.25 66.2 M61.75 58.9 Q62.1 58.25 61.85 58.05 L61.0 58.15 Q60.3 58.55 59.55 59.25 L58.5 60.65 Q58.1 61.3 58.3 61.55 L59.3 61.4 60.65 60.35 61.75 58.9 M38.2 76.35 Q37.35 77.7 37.8 78.15 38.2 78.6 39.8 77.85 41.05 77.3 42.6 75.7 44.0 74.25 44.8 72.8 45.5 71.4 45.05 71.0 44.55 70.55 43.3 71.25 41.8 72.05 40.35 73.45 38.75 75.0 38.2 76.35 M20.95 71.25 L22.75 69.9 24.15 68.05 Q24.6 67.15 24.3 66.9 24.0 66.6 23.2 67.05 L21.3 68.45 Q20.3 69.45 19.95 70.3 19.4 71.15 19.7 71.45 19.95 71.75 20.95 71.25 M22.0 47.4 L20.6 48.45 19.55 49.85 Q19.15 50.5 19.35 50.7 L20.3 50.55 21.7 49.55 22.75 48.15 Q23.1 47.45 22.85 47.25 22.65 47.05 22.0 47.4 M36.95 19.95 L38.75 18.6 40.15 16.75 Q40.6 15.85 40.3 15.6 40.0 15.3 39.2 15.75 38.25 16.25 37.3 17.15 36.3 18.15 35.95 19.0 35.4 19.85 35.7 20.15 35.95 20.45 36.95 19.95 M36.75 45.4 L21.9 79.8 53.5 61.3 64.5 30.8 36.75 45.4" fill="#767676" fill-opacity="0.9764706" fill-rule="evenodd" stroke="none"/>
  </g>
</svg>
