<?xml version="1.0" encoding="UTF-8" standalone="no"?>
<svg xmlns:ffdec="https://www.free-decompiler.com/flash" xmlns:xlink="http://www.w3.org/1999/xlink" ffdec:objectType="shape" height="21.15px" width="22.85px" xmlns="http://www.w3.org/2000/svg">
  <g transform="matrix(1.0, 0.0, 0.0, 1.0, 0.0, 0.0)">
    <path d="M22.4 5.8 Q22.85 6.15 22.85 7.25 L22.3 9.65 Q21.8 10.85 21.1 11.45 20.4 12.05 19.95 11.7 19.5 11.4 19.55 10.25 L19.6 9.5 20.1 7.9 Q20.4 7.15 20.85 6.65 L21.3 6.05 Q21.95 5.5 22.4 5.8 M16.5 3.75 Q16.8 5.55 16.3 7.05 15.9 8.6 14.9 8.9 13.9 9.2 12.9 8.15 12.05 7.15 11.75 5.3 11.35 3.5 11.8 1.95 12.25 0.45 13.2 0.1 14.2 -0.25 15.2 0.85 16.15 1.95 16.5 3.75 M17.5 11.85 Q19.75 12.7 20.25 14.55 20.75 16.4 19.25 18.25 17.75 20.1 15.1 20.8 12.45 21.5 10.25 20.7 8.0 19.8 7.5 17.95 7.0 16.1 8.5 14.25 10.0 12.4 12.65 11.7 L17.5 11.85 M9.2 5.25 Q10.05 6.75 10.0 8.15 10.0 9.6 9.1 10.1 L6.95 9.95 Q5.7 9.25 4.85 7.75 3.95 6.25 4.0 4.85 4.05 3.45 4.9 2.9 L7.05 3.05 Q8.3 3.75 9.2 5.25 M2.2 10.55 Q3.35 10.75 4.3 11.75 5.3 12.7 5.45 13.8 5.7 14.95 5.05 15.55 4.4 16.2 3.35 15.95 2.25 15.7 1.25 14.8 0.3 13.85 0.05 12.7 -0.2 11.6 0.45 10.95 1.05 10.35 2.2 10.55" fill="#747474" fill-rule="evenodd" stroke="none"/>
  </g>
</svg>
