<?xml version="1.0" encoding="UTF-8" standalone="no"?>
<svg xmlns:ffdec="https://www.free-decompiler.com/flash" xmlns:xlink="http://www.w3.org/1999/xlink" ffdec:objectType="shape" height="60.0px" width="64.45px" xmlns="http://www.w3.org/2000/svg">
  <g transform="matrix(1.0, 0.0, 0.0, 1.0, 0.0, 0.0)">
    <path d="M48.05 23.8 Q50.4 26.0 52.8 28.75 L57.65 35.5 47.8 40.85 43.35 37.7 49.35 31.35 44.9 28.35 Q39.45 25.2 34.1 23.8 26.05 21.75 18.0 23.8 12.85 25.1 7.7 28.1 L13.35 39.2 8.9 39.9 0.0 29.0 0.2 28.25 Q2.05 25.85 3.95 23.8 8.8 18.6 13.8 15.85 20.7 12.0 27.9 12.8 L56.6 0.0 64.45 9.5 47.65 23.4 48.05 23.8 M30.5 47.0 L51.35 48.15 Q60.0 49.35 60.0 51.0 60.0 52.45 53.55 53.5 60.0 54.55 60.0 56.0 60.0 57.65 51.35 58.8 L30.5 60.0 9.65 58.8 Q1.0 57.65 1.0 56.0 1.0 54.55 7.5 53.5 1.0 52.45 1.0 51.0 1.0 49.35 9.65 48.15 L30.5 47.0" fill="#747474" fill-rule="evenodd" stroke="none"/>
  </g>
</svg>
