<?xml version="1.0" encoding="UTF-8" standalone="no"?>
<svg xmlns:ffdec="https://www.free-decompiler.com/flash" xmlns:xlink="http://www.w3.org/1999/xlink" ffdec:objectType="shape" height="97.75px" width="279.0px" xmlns="http://www.w3.org/2000/svg">
  <g transform="matrix(1.0, 0.0, 0.0, 1.0, -59.0, -39.0)">
    <path d="M338.0 88.25 L337.0 89.75 323.75 89.75 317.9 83.45 Q313.3 78.55 311.5 77.25 L283.75 76.75 Q279.45 67.2 276.75 61.9 271.85 52.25 269.5 52.25 263.5 52.25 258.0 57.65 262.55 51.55 265.25 50.0 L271.5 50.25 Q276.05 55.3 279.75 62.3 L286.0 74.75 313.75 75.25 Q316.1 77.25 326.0 87.75 L338.0 88.25 M252.9 64.45 Q248.55 71.45 247.25 72.75 L243.0 72.75 Q248.35 69.7 252.9 64.45 M201.15 73.25 Q201.0 79.0 203.0 82.25 L202.0 83.75 Q198.7 81.1 198.85 75.55 199.05 68.4 198.25 66.5 L138.25 65.75 136.4 65.3 Q136.0 65.1 136.0 63.5 136.0 61.9 140.5 52.7 145.35 42.8 145.75 41.25 L112.0 40.75 113.25 39.0 148.0 39.25 142.5 51.6 Q138.25 60.75 138.25 61.75 138.25 63.3 138.8 63.5 L140.5 63.75 200.25 64.25 Q201.25 66.85 201.15 73.25 M216.25 127.0 L271.25 127.0 272.25 127.25 271.55 128.7 Q271.0 129.7 271.0 130.0 L252.45 129.8 Q233.7 129.55 232.75 129.25 215.8 129.15 208.4 130.55 200.8 132.0 195.0 132.0 186.15 132.0 184.15 126.65 L182.75 122.1 Q181.8 119.5 179.75 118.25 L172.9 118.45 166.0 119.0 165.0 118.75 Q165.0 118.2 165.45 117.3 L166.25 116.0 182.0 116.25 Q186.45 118.1 187.75 120.7 188.45 122.1 188.45 125.1 188.45 127.55 189.6 128.45 191.3 129.75 196.75 129.75 L209.9 129.15 Q212.05 128.75 216.25 127.0 M61.25 87.25 L63.4 89.4 68.0 93.75 77.65 93.3 Q80.7 93.1 82.25 93.25 81.3 96.5 84.45 103.3 88.2 111.45 88.5 114.25 L89.2 124.75 90.0 135.25 89.15 136.3 87.75 136.75 86.95 126.25 86.25 115.75 Q85.85 111.7 82.4 104.9 79.45 99.05 80.0 95.5 L75.8 95.7 Q71.95 95.9 65.75 95.75 L61.7 92.05 Q59.0 89.6 59.0 89.25 59.0 85.45 63.05 75.9 66.95 66.7 68.25 66.25 68.25 67.35 64.75 76.3 61.25 85.3 61.25 87.25" fill="#747474" fill-opacity="0.9764706" fill-rule="evenodd" stroke="none"/>
  </g>
</svg>
