<?xml version="1.0" encoding="UTF-8" standalone="no"?>
<svg xmlns:ffdec="https://www.free-decompiler.com/flash" xmlns:xlink="http://www.w3.org/1999/xlink" ffdec:objectType="shape" height="100.0px" width="100.0px" xmlns="http://www.w3.org/2000/svg">
  <g transform="matrix(1.0, 0.0, 0.0, 1.0, 0.0, 0.0)">
    <path d="M85.35 85.35 Q70.7 100.0 50.0 100.0 29.3 100.0 14.65 85.35 0.0 70.7 0.0 50.0 0.0 29.25 14.65 14.6 29.3 0.0 50.0 0.0 70.7 0.0 85.35 14.6 100.0 29.25 100.0 50.0 100.0 70.7 85.35 85.35 M90.0 50.0 Q90.0 33.75 78.55 22.25 67.05 10.75 50.75 10.75 L50.55 10.75 Q34.45 10.85 23.0 22.25 11.6 33.7 11.5 49.8 L11.5 50.0 Q11.5 66.3 23.0 77.75 34.45 89.2 50.55 89.25 L50.75 89.25 Q67.05 89.25 78.55 77.75 89.9 66.35 90.0 50.25 L90.0 50.0 M75.0 25.8 Q85.0 35.85 85.0 50.0 85.0 64.2 75.0 74.2 64.95 84.25 50.75 84.25 36.6 84.25 26.55 74.2 16.5 64.2 16.5 50.0 16.5 35.85 26.55 25.8 36.6 15.75 50.75 15.75 64.95 15.75 75.0 25.8 M51.0 84.0 Q60.45 79.25 67.25 69.75 72.65 46.95 73.0 25.0 L28.35 25.0 Q28.7 46.95 34.1 69.75 41.05 78.7 50.35 84.0 L51.0 84.0" fill="#767676" fill-opacity="0.9764706" fill-rule="evenodd" stroke="none"/>
  </g>
</svg>
