<?xml version="1.0" encoding="UTF-8" standalone="no"?>
<svg xmlns:ffdec="https://www.free-decompiler.com/flash" xmlns:xlink="http://www.w3.org/1999/xlink" ffdec:objectType="shape" height="100.0px" width="100.0px" xmlns="http://www.w3.org/2000/svg">
  <g transform="matrix(1.0, 0.0, 0.0, 1.0, 0.0, 0.0)">
    <path d="M88.45 41.15 L74.15 34.25 80.85 19.35 80.95 18.4 80.55 17.6 Q80.15 17.2 79.7 17.15 L78.75 17.25 63.35 23.95 54.35 13.3 Q54.0 12.9 53.45 12.75 L52.4 12.9 Q51.9 13.15 51.7 13.7 L47.1 23.85 30.75 18.15 29.65 18.2 Q29.1 18.45 28.8 19.0 28.55 19.55 28.75 20.1 L34.0 38.55 16.65 41.6 15.65 42.2 Q15.25 42.7 15.3 43.3 15.4 43.95 15.9 44.35 L26.15 53.4 18.0 65.15 Q17.65 65.65 17.75 66.25 17.8 66.85 18.25 67.25 18.7 67.65 19.3 67.65 L34.6 67.65 Q35.3 67.65 35.75 67.2 36.2 66.7 36.2 66.05 36.2 65.35 35.75 64.9 35.3 64.45 34.6 64.45 L22.35 64.45 29.55 54.0 Q29.9 53.5 29.85 52.9 L29.35 51.9 20.45 44.15 36.3 41.35 37.1 40.95 37.55 40.2 37.55 39.35 32.65 22.25 47.45 27.35 48.6 27.3 49.4 26.55 53.55 17.3 61.65 26.9 Q62.0 27.3 62.5 27.4 L63.5 27.3 76.25 21.8 70.6 34.35 Q70.3 34.9 70.55 35.55 70.75 36.15 71.35 36.45 L83.85 42.5 70.05 48.25 Q69.5 48.45 69.25 48.95 68.95 49.45 69.05 50.0 69.15 50.5 69.55 50.9 L82.4 62.55 71.1 65.1 Q70.45 65.25 70.1 65.8 69.7 66.3 69.85 67.0 70.05 67.65 70.6 68.0 L71.8 68.2 86.1 65.0 87.05 64.4 Q87.4 63.9 87.35 63.3 87.25 62.7 86.8 62.3 L73.55 50.25 88.35 44.05 89.2 43.2 Q89.45 42.6 89.25 42.0 89.0 41.4 88.45 41.15 M85.35 85.35 Q70.7 100.0 50.0 100.0 29.3 100.0 14.65 85.35 0.0 70.7 0.0 50.0 0.0 29.25 14.65 14.6 29.3 0.0 50.0 0.0 70.7 0.0 85.35 14.6 100.0 29.25 100.0 50.0 100.0 70.7 85.35 85.35 M53.35 80.65 Q53.35 78.55 52.1 77.0 50.85 75.55 49.05 75.55 47.25 75.55 46.0 77.0 44.75 78.55 44.75 80.65 44.75 82.75 46.0 84.2 47.25 85.75 49.05 85.75 50.85 85.75 52.1 84.2 53.35 82.75 53.35 80.65 M60.9 40.95 L60.9 37.85 Q49.2 26.9 44.45 39.65 39.4 53.4 45.55 69.4 47.15 73.85 51.75 72.2 53.05 54.5 60.9 40.95" fill="#767676" fill-opacity="0.9764706" fill-rule="evenodd" stroke="none"/>
  </g>
</svg>
