<?xml version="1.0" encoding="UTF-8" standalone="no"?>
<svg xmlns:ffdec="https://www.free-decompiler.com/flash" xmlns:xlink="http://www.w3.org/1999/xlink" ffdec:objectType="shape" height="100.0px" width="100.0px" xmlns="http://www.w3.org/2000/svg">
  <g transform="matrix(1.0, 0.0, 0.0, 1.0, 0.0, 0.0)">
    <path d="M85.35 85.35 Q70.7 100.0 50.0 100.0 29.3 100.0 14.65 85.35 0.0 70.7 0.0 50.0 0.0 29.25 14.65 14.6 29.3 0.0 50.0 0.0 70.7 0.0 85.35 14.6 100.0 29.25 100.0 50.0 100.0 70.7 85.35 85.35 M35.75 21.8 L35.5 21.6 27.35 18.75 26.95 18.7 26.75 19.0 26.45 19.1 26.4 19.45 26.6 28.05 26.7 28.4 26.95 28.5 33.0 29.8 63.45 71.8 62.65 78.05 62.65 78.35 68.7 86.65 69.05 86.85 69.35 86.75 69.55 86.45 70.5 80.25 70.45 79.9 71.2 79.4 71.45 79.55 77.7 80.55 78.0 80.45 78.2 80.15 78.1 79.85 72.05 71.55 71.85 71.35 65.6 70.2 35.1 28.15 35.2 28.05 35.8 22.05 35.75 21.8 M25.55 36.9 L25.0 38.0 Q24.5 39.5 24.5 40.75 L23.95 42.4 23.5 43.6 23.7 45.1 Q24.0 45.85 25.0 46.25 L27.35 46.75 Q31.25 46.75 31.25 42.75 31.25 41.15 30.7 40.35 29.7 38.9 29.25 37.75 L28.0 35.45 27.1 33.85 26.75 33.25 Q26.4 33.75 26.0 36.25 L25.55 36.9 M31.5 60.6 Q31.85 61.5 31.85 62.8 L31.8 63.65 32.5 63.6 35.6 65.25 Q37.5 66.3 38.0 67.4 38.6 68.8 40.0 69.85 L41.85 71.5 41.75 71.85 41.6 72.05 41.1 72.1 Q37.4 70.7 36.85 68.35 36.6 67.35 34.7 66.5 32.5 65.6 32.1 65.0 L31.1 64.9 30.5 65.2 Q29.1 65.55 29.1 68.0 L27.35 71.1 Q25.65 73.9 25.85 75.0 26.05 76.05 23.8 77.3 L23.85 77.5 Q27.55 82.25 32.45 85.05 L32.8 85.05 35.75 83.3 Q35.0 81.55 33.6 77.4 33.6 76.2 34.2 74.0 L35.1 70.4 Q35.8 66.65 36.1 68.0 L36.35 71.35 Q36.35 72.3 35.6 74.4 34.85 76.45 34.85 77.35 L35.75 80.4 36.55 82.7 Q39.25 80.55 41.4 77.5 44.3 65.4 44.45 53.8 L32.6 53.8 Q32.55 55.25 31.85 56.2 31.1 57.25 31.1 59.05 L31.5 60.6 M30.2 56.0 L31.4 53.8 20.8 53.8 Q21.0 64.8 23.55 76.25 24.6 75.55 24.6 74.95 L24.35 74.25 24.1 73.55 Q24.1 72.45 26.0 70.0 L27.85 67.75 27.45 67.2 26.85 66.35 Q27.35 65.35 29.1 64.4 L29.85 63.95 29.85 63.8 30.0 63.65 30.2 63.65 Q30.6 63.2 30.6 62.75 29.85 59.55 29.85 58.9 29.85 56.7 30.2 56.0" fill="#767676" fill-opacity="0.9764706" fill-rule="evenodd" stroke="none"/>
  </g>
</svg>
