<?xml version="1.0" encoding="UTF-8" standalone="no"?>
<svg xmlns:ffdec="https://www.free-decompiler.com/flash" xmlns:xlink="http://www.w3.org/1999/xlink" ffdec:objectType="shape" height="100.0px" width="100.0px" xmlns="http://www.w3.org/2000/svg">
  <g transform="matrix(1.0, 0.0, 0.0, 1.0, 0.0, 0.0)">
    <path d="M85.65 14.9 L69.95 26.2 69.8 26.15 52.5 22.25 52.0 22.25 Q51.75 22.3 51.55 22.5 L37.65 35.7 Q37.45 35.9 37.4 36.25 L37.45 36.85 43.25 49.35 43.3 49.45 43.3 49.5 43.4 49.65 35.15 48.75 35.05 48.75 23.7 47.45 23.25 47.5 Q23.05 47.55 22.9 47.7 L10.4 58.7 0.8 59.35 Q0.0 54.85 0.0 50.0 0.0 46.25 0.5 42.7 L0.75 42.9 1.35 43.0 1.85 42.6 17.55 16.05 36.05 16.05 36.55 15.95 59.05 0.75 Q74.0 3.3 85.35 14.6 L85.65 14.9 M85.35 85.35 Q74.6 96.1 60.65 98.95 L60.8 98.45 61.7 89.1 61.5 88.4 59.55 86.0 66.4 71.45 66.5 70.75 66.1 70.2 49.4 58.05 47.35 53.5 48.05 47.75 48.05 47.7 48.15 47.0 63.2 34.05 59.95 53.8 Q59.85 54.2 60.1 54.55 60.35 54.85 60.75 54.95 L61.5 54.75 61.9 54.1 65.35 33.35 65.15 32.65 65.05 32.5 69.95 28.25 71.25 28.5 71.65 28.5 72.05 28.3 87.25 16.6 Q100.0 30.65 100.0 50.0 100.0 70.7 85.35 85.35 M56.6 0.4 L35.8 14.4 17.1 14.4 16.7 14.5 Q16.45 14.6 16.35 14.85 L7.2 30.4 6.95 30.1 Q6.7 29.8 6.35 29.8 L4.1 29.8 Q7.75 21.5 14.65 14.6 29.3 0.0 50.0 0.0 L56.6 0.4 M44.55 47.45 L39.55 36.65 52.55 24.3 67.55 27.7 46.65 45.65 46.5 45.75 46.35 45.95 45.8 46.45 45.75 46.45 45.05 47.0 Q45.0 47.0 44.9 47.1 L44.55 47.45 M6.35 31.45 L6.5 31.45 0.7 41.35 Q1.5 36.15 3.4 31.45 L6.35 31.45 M23.45 73.9 Q23.2 74.05 23.1 74.35 L20.45 80.65 20.3 80.6 Q19.9 80.4 19.55 80.6 L12.75 83.4 Q6.65 76.6 3.45 68.65 L6.35 60.95 10.9 60.65 11.45 60.4 23.85 49.5 34.8 50.75 42.3 52.75 41.8 60.55 38.9 73.7 24.0 73.7 23.45 73.9 M4.2 61.1 L2.45 65.8 1.2 61.3 4.2 61.1 M14.25 84.95 L19.55 82.75 17.4 87.95 14.65 85.35 14.25 84.95 M39.85 77.35 L40.3 76.75 40.7 74.95 40.7 74.85 40.7 74.75 43.8 60.9 43.8 60.75 44.9 55.95 44.95 55.7 44.95 55.6 45.35 53.95 45.45 54.1 45.45 54.15 47.7 59.1 48.0 59.5 64.25 71.35 58.1 84.4 57.9 84.35 57.15 84.55 Q56.8 84.8 56.75 85.2 56.7 85.6 56.95 85.95 L57.45 86.65 57.6 86.8 59.65 89.35 58.8 98.25 Q58.75 98.65 59.05 99.0 L59.3 99.2 50.0 100.0 Q44.55 100.0 39.55 99.0 L42.9 93.15 43.0 92.7 42.9 92.25 40.05 86.1 40.0 85.95 39.6 85.1 39.6 77.45 39.85 77.35 M37.7 85.8 L37.9 86.15 38.5 85.75 38.2 86.15 Q38.05 86.55 38.25 86.95 L40.9 92.6 37.5 98.55 Q27.35 96.0 19.0 89.3 L24.7 75.7 37.6 75.7 37.6 85.35 37.7 85.8" fill="#767676" fill-opacity="0.9764706" fill-rule="evenodd" stroke="none"/>
  </g>
</svg>
