<?xml version="1.0" encoding="UTF-8" standalone="no"?>
<svg xmlns:ffdec="https://www.free-decompiler.com/flash" xmlns:xlink="http://www.w3.org/1999/xlink" ffdec:objectType="shape" height="100.0px" width="100.0px" xmlns="http://www.w3.org/2000/svg">
  <g transform="matrix(1.0, 0.0, 0.0, 1.0, 0.0, 0.0)">
    <path d="M44.7 24.9 Q46.05 20.1 51.65 16.95 57.15 13.75 61.1 16.6 65.1 19.45 67.2 25.85 69.25 32.25 69.25 37.25 69.35 41.5 67.15 43.35 L69.4 43.0 Q72.45 43.0 74.6 45.15 76.8 47.35 76.8 50.4 76.8 53.45 74.6 55.6 72.45 57.8 69.4 57.8 66.35 57.8 64.15 55.6 62.0 53.45 62.0 50.4 62.0 47.35 64.15 45.15 L65.05 44.4 Q62.5 45.0 59.15 43.05 54.95 40.5 49.1 35.2 43.25 29.75 44.7 24.9 M44.75 49.3 Q46.2 47.9 48.0 47.4 L48.0 45.9 Q48.0 44.2 49.2 43.0 50.4 41.8 52.1 41.8 L52.15 41.8 Q53.85 41.8 55.05 43.0 56.25 44.2 56.25 45.9 L56.25 47.65 Q57.6 48.2 58.7 49.3 61.0 51.6 61.0 54.85 L61.0 64.25 Q61.0 67.25 59.05 69.4 L59.15 69.4 56.75 79.8 55.1 79.8 53.95 72.05 53.2 72.05 50.3 72.05 48.75 71.9 47.0 79.5 45.35 79.5 43.8 69.1 44.2 69.1 Q42.5 67.05 42.5 64.25 L42.5 58.15 37.0 64.1 Q38.2 64.6 39.2 65.6 41.3 67.7 41.3 70.65 41.3 73.6 39.2 75.7 37.1 77.8 34.15 77.8 31.2 77.8 29.1 75.7 27.0 73.6 27.0 70.65 27.0 67.7 29.1 65.6 31.2 63.5 34.15 63.5 L35.05 63.55 38.8 54.1 38.95 54.2 39.25 53.75 Q40.0 53.05 41.0 53.05 41.9 53.05 42.6 53.65 42.95 51.15 44.75 49.3" fill="#ffffff" fill-opacity="0.34901962" fill-rule="evenodd" stroke="none"/>
    <path d="M85.35 85.35 Q70.7 100.0 50.0 100.0 29.35 100.0 14.65 85.35 0.0 70.7 0.0 50.0 0.0 29.3 14.65 14.65 29.35 0.0 50.0 0.0 70.7 0.0 85.35 14.65 100.0 29.3 100.0 50.0 100.0 70.7 85.35 85.35 M44.7 24.9 Q43.25 29.75 49.1 35.2 54.95 40.5 59.15 43.05 62.5 45.0 65.05 44.4 L64.15 45.15 Q62.0 47.35 62.0 50.4 62.0 53.45 64.15 55.6 66.35 57.8 69.4 57.8 72.45 57.8 74.6 55.6 76.8 53.45 76.8 50.4 76.8 47.35 74.6 45.15 72.45 43.0 69.4 43.0 L67.15 43.35 Q69.35 41.5 69.25 37.25 69.25 32.25 67.2 25.85 65.1 19.45 61.1 16.6 57.15 13.75 51.65 16.95 46.05 20.1 44.7 24.9 M44.75 49.3 Q42.95 51.15 42.6 53.65 41.9 53.05 41.0 53.05 40.0 53.05 39.25 53.75 L38.95 54.2 38.8 54.1 35.05 63.55 34.15 63.5 Q31.2 63.5 29.1 65.6 27.0 67.7 27.0 70.65 27.0 73.6 29.1 75.7 31.2 77.8 34.15 77.8 37.1 77.8 39.2 75.7 41.3 73.6 41.3 70.65 41.3 67.7 39.2 65.6 38.2 64.6 37.0 64.1 L42.5 58.15 42.5 64.25 Q42.5 67.05 44.2 69.1 L43.8 69.1 45.35 79.5 47.0 79.5 48.75 71.9 50.3 72.05 53.2 72.05 53.95 72.05 55.1 79.8 56.75 79.8 59.15 69.4 59.05 69.4 Q61.0 67.25 61.0 64.25 L61.0 54.85 Q61.0 51.6 58.7 49.3 57.6 48.2 56.25 47.65 L56.25 45.9 Q56.25 44.2 55.05 43.0 53.85 41.8 52.15 41.8 L52.1 41.8 Q50.4 41.8 49.2 43.0 48.0 44.2 48.0 45.9 L48.0 47.4 Q46.2 47.9 44.75 49.3" fill="#ffffff" fill-opacity="0.96862745" fill-rule="evenodd" stroke="none"/>
  </g>
</svg>
