<?xml version="1.0" encoding="UTF-8" standalone="no"?>
<svg xmlns:ffdec="https://www.free-decompiler.com/flash" xmlns:xlink="http://www.w3.org/1999/xlink" ffdec:objectType="shape" height="100.0px" width="100.0px" xmlns="http://www.w3.org/2000/svg">
  <g transform="matrix(1.0, 0.0, 0.0, 1.0, 0.0, 0.0)">
    <path d="M85.35 85.35 Q70.7 100.0 50.0 100.0 29.3 100.0 14.65 85.35 0.0 70.7 0.0 50.0 0.0 29.25 14.65 14.6 29.3 0.0 50.0 0.0 70.7 0.0 85.35 14.6 100.0 29.25 100.0 50.0 100.0 70.7 85.35 85.35 M62.35 18.85 L58.15 31.9 Q58.05 32.2 58.2 32.5 L58.65 32.85 59.25 32.8 59.65 32.35 63.8 19.35 63.75 18.75 63.3 18.35 62.7 18.4 62.35 18.85 M48.2 15.45 L48.2 28.45 Q48.2 28.8 48.45 29.0 L49.0 29.25 49.55 29.0 49.75 28.45 49.75 15.45 49.55 14.9 Q49.3 14.65 49.0 14.65 48.7 14.65 48.45 14.9 48.2 15.15 48.2 15.45 M40.9 34.2 L40.7 33.65 28.7 21.65 28.15 21.45 Q27.85 21.45 27.6 21.65 L27.35 22.2 27.6 22.75 39.6 34.75 40.15 35.0 40.7 34.75 40.9 34.2 M48.65 37.25 Q42.25 37.5 38.4 41.35 34.1 45.65 33.95 52.4 33.8 59.1 40.95 67.3 43.8 71.85 43.65 77.45 L44.85 77.45 44.85 86.3 47.45 87.85 47.45 91.0 51.25 91.0 51.25 87.85 53.85 86.3 53.85 77.45 55.05 77.45 Q54.95 71.85 57.75 67.3 64.9 59.1 64.75 52.4 64.6 45.65 60.3 41.35 56.45 37.5 50.1 37.25 L49.35 37.2 48.65 37.25 M80.5 33.35 L80.4 32.75 79.9 32.4 79.3 32.5 66.3 40.85 65.95 41.35 Q65.85 41.65 66.05 41.9 L66.55 42.3 67.1 42.15 80.15 33.85 80.5 33.35 M18.6 38.2 L19.05 38.6 30.5 42.75 31.1 42.7 31.5 42.3 31.45 41.7 31.05 41.3 19.6 37.1 19.0 37.15 Q18.65 37.25 18.55 37.6 L18.6 38.2" fill="#767676" fill-opacity="0.9764706" fill-rule="evenodd" stroke="none"/>
  </g>
</svg>
