<?xml version="1.0" encoding="UTF-8" standalone="no"?>
<svg xmlns:ffdec="https://www.free-decompiler.com/flash" xmlns:xlink="http://www.w3.org/1999/xlink" ffdec:objectType="shape" height="100.0px" width="100.0px" xmlns="http://www.w3.org/2000/svg">
  <g transform="matrix(1.0, 0.0, 0.0, 1.0, 0.0, 0.0)">
    <path d="M85.35 85.35 Q70.7 100.0 50.0 100.0 29.3 100.0 14.65 85.35 0.0 70.7 0.0 50.0 0.0 29.25 14.65 14.6 29.3 0.0 50.0 0.0 70.7 0.0 85.35 14.6 100.0 29.25 100.0 50.0 100.0 70.7 85.35 85.35 M48.9 18.95 Q45.65 18.95 43.3 21.25 41.0 23.6 41.0 26.85 41.0 30.1 43.3 32.4 L44.6 33.5 Q39.45 38.0 34.85 44.5 31.0 49.85 27.5 56.5 37.35 62.2 43.5 60.5 L27.0 71.0 Q37.1 78.95 47.5 74.0 60.35 79.15 70.45 71.2 L53.95 60.7 Q60.1 62.4 69.95 56.7 66.45 50.05 62.6 44.7 58.0 38.2 52.85 33.7 L54.45 32.4 Q56.8 30.1 56.8 26.85 56.8 23.6 54.45 21.25 52.15 18.95 48.9 18.95 M54.45 56.2 L55.95 47.7 59.95 52.7 54.45 56.2 M47.3 63.7 L47.5 64.0 Q46.55 64.0 58.95 70.2 L38.5 70.0 47.3 63.7 M43.0 56.0 L37.5 52.5 41.5 47.5 43.0 56.0" fill="#767676" fill-opacity="0.9764706" fill-rule="evenodd" stroke="none"/>
  </g>
</svg>
