<?xml version="1.0" encoding="UTF-8" standalone="no"?>
<svg xmlns:ffdec="https://www.free-decompiler.com/flash" xmlns:xlink="http://www.w3.org/1999/xlink" ffdec:objectType="shape" height="100.0px" width="100.0px" xmlns="http://www.w3.org/2000/svg">
  <g transform="matrix(1.0, 0.0, 0.0, 1.0, 0.0, 0.0)">
    <path d="M85.25 68.1 L77.4 68.1 73.15 60.75 Q73.0 60.45 72.65 60.35 72.35 60.2 72.0 60.35 L71.55 60.75 67.25 68.1 59.45 68.1 58.85 68.3 Q58.55 68.55 58.5 68.9 L58.6 69.5 62.55 76.3 58.6 83.1 58.5 83.75 58.85 84.3 59.45 84.5 67.25 84.5 71.55 91.85 72.0 92.25 72.65 92.25 73.15 91.85 77.4 84.5 85.25 84.5 85.85 84.3 86.15 83.75 86.05 83.1 82.15 76.3 86.05 69.5 86.15 68.85 85.85 68.3 85.25 68.1 M81.05 78.2 L83.6 82.6 78.5 82.6 81.05 78.2 M81.05 74.4 L78.5 70.0 83.6 70.0 81.05 74.4 M85.35 85.35 Q70.7 100.0 50.0 100.0 29.3 100.0 14.65 85.35 0.0 70.7 0.0 50.0 0.0 29.25 14.65 14.6 29.3 0.0 50.0 0.0 70.7 0.0 85.35 14.6 100.0 29.25 100.0 50.0 100.0 70.7 85.35 85.35 M61.05 70.0 L66.2 70.0 63.65 74.4 61.05 70.0 M57.45 21.05 L42.4 21.05 42.4 43.9 21.5 43.9 21.5 58.95 42.4 58.95 42.4 80.0 57.45 80.0 57.45 58.95 80.45 58.95 80.45 43.9 57.45 43.9 57.45 21.05 M75.25 68.1 L69.45 68.1 72.35 63.1 75.25 68.1 M76.35 70.0 L79.95 76.3 76.3 82.6 68.35 82.6 64.7 76.3 68.35 70.0 76.35 70.0 M63.65 78.2 L66.2 82.6 61.05 82.6 63.65 78.2 M72.35 89.5 L69.45 84.5 75.2 84.5 72.35 89.5" fill="#767676" fill-opacity="0.9764706" fill-rule="evenodd" stroke="none"/>
  </g>
</svg>
