<?xml version="1.0" encoding="UTF-8" standalone="no"?>
<svg xmlns:ffdec="https://www.free-decompiler.com/flash" xmlns:xlink="http://www.w3.org/1999/xlink" ffdec:objectType="shape" height="100.0px" width="100.0px" xmlns="http://www.w3.org/2000/svg">
  <g transform="matrix(1.0, 0.0, 0.0, 1.0, 0.0, 0.0)">
    <path d="M87.35 73.8 L87.35 72.55 87.6 70.85 Q88.7 60.55 79.45 61.4 76.8 62.15 75.35 64.1 73.95 62.1 71.25 61.35 62.0 60.5 63.1 70.8 L63.35 72.6 63.4 73.85 63.35 73.85 63.3 74.5 63.25 74.9 63.1 75.7 Q62.75 77.1 62.75 78.2 L62.8 79.15 Q62.55 79.55 62.55 81.1 L63.55 80.55 63.35 80.1 63.25 78.25 63.4 77.1 63.5 77.05 63.85 76.7 63.65 75.9 63.65 75.75 63.8 75.0 63.85 74.55 Q64.3 76.1 65.05 77.5 L65.1 78.45 65.0 79.5 64.9 79.75 65.35 79.5 65.35 78.05 Q66.4 79.8 67.9 81.05 L69.0 81.75 73.45 83.95 74.75 84.25 77.25 83.85 77.45 83.8 82.25 81.65 83.5 80.5 85.6 77.75 85.75 77.9 86.3 77.95 86.25 76.8 86.15 76.8 86.1 76.75 87.0 74.2 87.1 74.9 87.1 78.0 87.65 78.05 87.7 76.9 87.45 74.0 87.35 73.8 M85.35 85.35 Q70.7 100.0 50.0 100.0 29.3 100.0 14.65 85.35 0.0 70.7 0.0 50.0 0.0 29.25 14.65 14.6 29.3 0.0 50.0 0.0 70.7 0.0 85.35 14.6 100.0 29.25 100.0 50.0 100.0 70.7 85.35 85.35 M57.45 43.9 L57.45 21.05 42.4 21.05 42.4 43.9 21.5 43.9 21.5 58.95 42.4 58.95 42.4 80.0 57.45 80.0 57.45 58.95 80.45 58.95 80.45 43.9 57.45 43.9" fill="#767676" fill-opacity="0.9764706" fill-rule="evenodd" stroke="none"/>
  </g>
</svg>
