<?xml version="1.0" encoding="UTF-8" standalone="no"?>
<svg xmlns:ffdec="https://www.free-decompiler.com/flash" xmlns:xlink="http://www.w3.org/1999/xlink" ffdec:objectType="shape" height="100.0px" width="100.0px" xmlns="http://www.w3.org/2000/svg">
  <g transform="matrix(1.0, 0.0, 0.0, 1.0, 0.0, 0.0)">
    <path d="M85.35 85.35 Q70.7 100.0 50.0 100.0 29.3 100.0 14.65 85.35 0.0 70.7 0.0 50.0 0.0 29.25 14.65 14.6 29.3 0.0 50.0 0.0 70.7 0.0 85.35 14.6 100.0 29.25 100.0 50.0 100.0 70.7 85.35 85.35 M46.15 27.0 Q46.25 31.7 46.7 36.5 L22.85 36.5 Q23.1 50.85 26.6 65.7 31.15 71.55 37.2 75.0 L37.65 75.0 Q43.8 71.9 48.25 65.7 L50.15 56.5 Q54.6 62.15 60.5 65.5 L60.95 65.5 Q67.1 62.4 71.55 56.2 75.05 41.35 75.3 27.0 L46.15 27.0" fill="#767676" fill-opacity="0.9764706" fill-rule="evenodd" stroke="none"/>
  </g>
</svg>
