<?xml version="1.0" encoding="UTF-8" standalone="no"?>
<svg xmlns:ffdec="https://www.free-decompiler.com/flash" xmlns:xlink="http://www.w3.org/1999/xlink" ffdec:objectType="shape" height="100.0px" width="100.0px" xmlns="http://www.w3.org/2000/svg">
  <g transform="matrix(1.0, 0.0, 0.0, 1.0, 0.0, 0.0)">
    <path d="M85.35 85.35 Q70.7 100.0 50.0 100.0 29.3 100.0 14.65 85.35 0.0 70.7 0.0 50.0 0.0 29.25 14.65 14.6 29.3 0.0 50.0 0.0 70.7 0.0 85.35 14.6 100.0 29.25 100.0 50.0 100.0 70.7 85.35 85.35 M83.35 71.2 L82.2 72.05 75.55 61.4 87.5 53.8 87.7 47.35 73.5 56.45 60.95 23.15 42.85 17.2 42.5 17.4 40.0 36.6 64.35 62.25 49.9 71.4 55.8 74.1 67.85 66.45 74.3 76.95 73.05 77.75 74.8 80.6 85.15 74.0 83.35 71.2 M34.1 54.85 L33.8 54.75 33.55 54.85 33.35 55.1 30.2 63.85 16.75 65.0 Q16.6 65.0 16.5 65.15 L16.3 65.4 16.35 65.7 16.55 65.95 27.2 72.2 23.85 81.35 23.85 81.65 24.0 81.9 24.3 82.0 24.6 81.9 32.75 75.4 43.05 81.45 43.35 81.5 43.65 81.4 43.8 81.15 43.8 80.85 39.75 69.9 48.15 63.15 48.3 62.9 48.3 62.6 48.05 62.35 47.75 62.25 37.3 63.2 34.3 55.1 34.1 54.85" fill="#767676" fill-opacity="0.9764706" fill-rule="evenodd" stroke="none"/>
  </g>
</svg>
